<?xml version="1.0" encoding="UTF-8"?><svg id="Layer_2" xmlns="http://www.w3.org/2000/svg" viewBox="0 0 132.31 25.5"><defs><style>.cls-1{fill:#fff;}.cls-2{stroke-miterlimit:10;}.cls-2,.cls-3{fill:none;stroke:#fff;stroke-width:1.5px;}.cls-3{stroke-linejoin:round;}</style></defs><g id="Logo-Sizes"><g><path class="cls-1" d="m40.86,16.87c-.46.2-1.17.38-2.14.54-.88.15-1.61.22-2.17.22-.96,0-1.44-.42-1.44-1.26,0,.07.04-.55.12-1.86.1-1.7.15-3.58.15-5.66,0-.22.08-.41.23-.57s.35-.23.58-.23.43.08.59.23.23.35.23.57c0,2.08-.05,4-.16,5.75-.04.31-.07.79-.11,1.44.93-.02,2.11-.24,3.56-.68.09-.03.18-.04.26-.04.25,0,.45.09.6.27.14.16.21.34.21.54,0,.34-.17.58-.51.73Z"/><path class="cls-1" d="m44.99,17.36c-.93,0-1.7-.22-2.29-.67-.66-.49-.98-1.19-.98-2.08,0-.99.26-1.82.78-2.51.58-.76,1.36-1.14,2.34-1.14.68,0,1.24.11,1.69.33.59.29.88.74.88,1.35,0,.43-.24.81-.72,1.14-.22.15-.66.38-1.32.67l-1.97.87c.19.2.41.36.68.46s.57.15.91.15c.52,0,.97-.11,1.33-.32.32-.19.58-.29.78-.29.41,0,.61.2.61.59,0,.45-.33.81-.98,1.09-.55.23-1.13.35-1.74.35Zm-.16-4.97c-.36,0-.67.12-.93.36s-.46.61-.62,1.09c.44-.19.88-.38,1.32-.57.53-.24.95-.46,1.26-.66-.26-.15-.6-.22-1.03-.22Z"/><path class="cls-1" d="m52.96,12.8c-.39,0-.62-.16-.7-.49-.16-.03-.32-.04-.48-.04-.94,0-1.41.13-1.41.39,0,.15.28.36.85.62.77.36,1.3.63,1.57.83.57.41.85.87.85,1.39,0,.67-.31,1.18-.94,1.53-.5.28-1.12.42-1.86.42-.52,0-.99-.08-1.42-.24-.59-.22-.88-.54-.88-.97,0-.39.23-.59.7-.59.18,0,.44.06.78.17s.6.17.79.17c.79,0,1.19-.16,1.2-.48,0-.2-.28-.42-.83-.66-.8-.36-1.32-.61-1.55-.77-.55-.39-.83-.86-.83-1.41,0-.79.42-1.31,1.25-1.59.49-.16,1.23-.24,2.23-.24.39,0,.68.05.87.15.26.14.39.39.39.76,0,.7-.19,1.05-.57,1.05Z"/><path class="cls-1" d="m56.56,16.23c0,.74-.27,1.11-.81,1.11-.23,0-.43-.07-.58-.22s-.23-.34-.23-.57v-8.1c0-.23.08-.41.25-.56.16-.13.35-.2.58-.2s.42.07.57.21.22.32.22.55v7.79Z"/><path class="cls-1" d="m59.96,14.34c0,.22,0,.58.02,1.07s.02.85.02,1.07-.08.41-.23.56-.35.22-.58.22-.43-.07-.58-.22-.23-.33-.23-.56,0-.58-.02-1.07-.02-.85-.02-1.07c0-.35.02-.78.06-1.31s.06-.96.06-1.31c0-.23.08-.41.23-.56s.35-.22.58-.22.43.07.58.22.23.33.23.56c0,.35-.02.78-.06,1.31s-.06.96-.06,1.31Zm-.5-4.29c-.25,0-.47-.08-.65-.25s-.28-.37-.28-.62.09-.45.28-.62.4-.25.65-.25.47.08.65.25.27.37.27.62-.09.45-.27.62-.4.25-.65.25Z"/><path class="cls-1" d="m64.53,17.36c-.93,0-1.7-.22-2.29-.67-.66-.49-.98-1.19-.98-2.08,0-.99.26-1.82.78-2.51.58-.76,1.36-1.14,2.34-1.14.68,0,1.24.11,1.69.33.59.29.88.74.88,1.35,0,.43-.24.81-.72,1.14-.22.15-.66.38-1.32.67l-1.97.87c.19.2.41.36.68.46s.57.15.91.15c.52,0,.97-.11,1.33-.32.32-.19.58-.29.78-.29.41,0,.61.2.61.59,0,.45-.33.81-.98,1.09-.55.23-1.13.35-1.74.35Zm-.16-4.97c-.36,0-.67.12-.93.36s-.46.61-.62,1.09c.44-.19.88-.38,1.32-.57.53-.24.95-.46,1.26-.66-.26-.15-.6-.22-1.03-.22Z"/><path class="cls-1" d="m79.56,9.58c-.08,0-.16-.01-.25-.04-.63-.17-1.25-.26-1.85-.26-.29,0-.61.02-.94.07s-.69.12-1.07.21c0,.52-.02,1.29-.05,2.31.22-.02.98-.09,2.29-.22.75-.07,1.22-.11,1.42-.11.23,0,.43.07.59.22s.25.34.25.58c0,.46-.25.73-.74.79-.31.02-.78.06-1.4.12-.55.06-1.39.14-2.51.23-.03.5-.04.9-.04,1.2,0,.77.04,1.2.13,1.31.04.05.29.08.74.08.24,0,.61,0,1.1-.02s.85-.02,1.1-.02c.08,0,.19-.01.35-.04s.27-.04.34-.04c.23,0,.42.06.58.19.18.14.28.35.28.61,0,.44-.23.7-.69.79-.39.07-1.2.11-2.43.11s-2.1-.17-2.49-.52c-.43-.38-.64-1.2-.64-2.46,0-.52.04-1.31.11-2.36s.11-1.83.11-2.35c0-.14-.02-.34-.06-.61s-.06-.47-.06-.61c0-.59.27-.89.82-.89.17,0,.33.05.47.15.45-.11.88-.2,1.29-.25s.79-.08,1.16-.08c.98,0,1.77.11,2.36.34.36.14.54.38.54.74,0,.2-.07.38-.21.54-.16.18-.36.27-.6.27Z"/><path class="cls-1" d="m85.36,12.8c-.39,0-.62-.16-.7-.49-.16-.03-.32-.04-.48-.04-.94,0-1.41.13-1.41.39,0,.15.28.36.85.62.77.36,1.3.63,1.57.83.57.41.85.87.85,1.39,0,.67-.31,1.18-.94,1.53-.5.28-1.12.42-1.86.42-.52,0-.99-.08-1.42-.24-.59-.22-.88-.54-.88-.97,0-.39.23-.59.7-.59.18,0,.44.06.78.17s.6.17.79.17c.79,0,1.19-.16,1.2-.48,0-.2-.28-.42-.83-.66-.8-.36-1.32-.61-1.55-.77-.55-.39-.83-.86-.83-1.41,0-.79.42-1.31,1.25-1.59.49-.16,1.23-.24,2.23-.24.39,0,.68.05.87.15.26.14.39.39.39.76,0,.7-.19,1.05-.57,1.05Z"/><path class="cls-1" d="m88.68,11.9c.59-.68,1.15-1.03,1.68-1.03.6,0,1.04.23,1.32.69.24-.21.5-.37.79-.47s.6-.16.94-.16c.77,0,1.29.38,1.56,1.14.05.16.14.69.25,1.59.11.63.25,1.69.42,3.16.02.22-.06.41-.23.55s-.37.22-.59.22c-.45,0-.71-.22-.79-.67-.07-.4-.14-.97-.22-1.71-.08-.8-.14-1.38-.19-1.71-.11-.7-.24-1.05-.4-1.05-.09,0-.29.09-.62.27s-.55.33-.7.46c0,.45.05,1.09.16,1.92.11.86.16,1.5.16,1.92,0,.22-.08.41-.23.56s-.35.22-.58.22-.43-.07-.58-.22-.23-.33-.23-.56c0-.45-.05-1.1-.14-1.97s-.14-1.52-.14-1.97c0-.25-.02-.45-.06-.6-.45.26-.91.7-1.37,1.31-.02.03-.05.07-.1.12-.02.79-.02,1.41-.02,1.86,0,.11,0,.26-.01.44s-.01.32-.01.41c0,.21-.09.38-.26.5-.16.11-.35.17-.58.17-.33,0-.56-.14-.67-.43-.08-.2-.12-.51-.12-.93v-2.18c0-.2,0-.48-.02-.86s-.02-.66-.02-.86c0-.35.06-.66.19-.94.15-.35.37-.53.64-.53.22,0,.41.08.59.25s.26.36.26.56c0-.08-.02.09-.05.5Z"/><path class="cls-1" d="m99.52,17.36c-.93,0-1.7-.22-2.29-.67-.66-.49-.98-1.19-.98-2.08,0-.99.26-1.82.78-2.51.58-.76,1.36-1.14,2.34-1.14.68,0,1.24.11,1.69.33.59.29.88.74.88,1.35,0,.43-.24.81-.72,1.14-.22.15-.66.38-1.32.67l-1.97.87c.19.2.41.36.68.46s.57.15.91.15c.52,0,.97-.11,1.33-.32.32-.19.58-.29.78-.29.41,0,.61.2.61.59,0,.45-.33.81-.98,1.09-.55.23-1.13.35-1.74.35Zm-.16-4.97c-.36,0-.67.12-.93.36s-.46.61-.62,1.09c.44-.19.88-.38,1.32-.57.53-.24.95-.46,1.26-.66-.26-.15-.6-.22-1.03-.22Z"/><path class="cls-1" d="m108.27,12.86c-.04.6-.31.9-.81.9s-.74-.25-.74-.76l-.03-.59c-.88.14-1.51.59-1.89,1.35v2.95c0,.22-.07.41-.22.55s-.35.22-.58.22-.43-.08-.56-.23c-.12-.14-.19-.32-.19-.54v-3.84c0-.12,0-.3.01-.54s.01-.42.01-.54c0-.22.07-.4.2-.55s.32-.22.56-.22c.43,0,.69.22.77.67.69-.52,1.46-.77,2.3-.77.78,0,1.17.52,1.17,1.56,0,.2,0,.33,0,.39Z"/><path class="cls-1" d="m114.27,17.41c-.18,0-.46-.17-.86-.52-.36.17-.68.3-.95.39s-.51.13-.7.13c-.94,0-1.65-.25-2.12-.76s-.71-1.26-.71-2.26c0-.94.35-1.75,1.04-2.42s1.53-1,2.5-1c.37,0,.8.1,1.29.31.59.25.88.54.88.88,0,.14-.04.26-.13.37-.04.15-.07.35-.09.58-.02.23-.03.51-.03.82,0,.74.05,1.27.16,1.59.01.04.1.24.27.6.15.33.23.52.23.57,0,.21-.08.38-.24.51-.16.14-.34.2-.55.2Zm-1.45-3.96c0-.12,0-.27.03-.43s.04-.34.08-.54c-.08-.04-.15-.07-.21-.08s-.11-.03-.16-.03c-.53,0-1,.21-1.39.62s-.6.9-.6,1.44.09.92.28,1.18.47.4.84.4c.24,0,.47-.04.69-.12s.42-.2.61-.35c-.12-.93-.18-1.62-.18-2.09Z"/><path class="cls-1" d="m117.77,16.23c0,.74-.27,1.11-.81,1.11-.23,0-.43-.07-.58-.22s-.23-.34-.23-.57v-8.1c0-.23.08-.41.25-.56.16-.13.35-.2.58-.2s.42.07.57.21.22.32.22.55v7.79Z"/><path class="cls-1" d="m123.62,11.2c.05-1.33.11-2.25.18-2.76.07-.46.32-.69.76-.69.23,0,.42.08.56.22.14.15.21.33.21.55,0,.57-.04,1.42-.13,2.56-.09,1.13-.13,1.98-.13,2.56,0,1.4.04,2.33.13,2.8.01.06.02.12.02.17,0,.22-.08.4-.23.54s-.34.21-.54.21c-.29,0-.5-.13-.64-.39-.27.16-.54.26-.83.31s-.58.07-.88.07c-.88,0-1.6-.28-2.18-.84-.59-.57-.88-1.3-.88-2.18,0-1.05.3-1.9.89-2.55s1.37-.97,2.33-.97c.29,0,.55.03.79.09s.43.16.6.28Zm-.12,1.85c-.13-.25-.3-.43-.5-.55s-.45-.18-.74-.18c-.58,0-1.01.17-1.3.5s-.43.83-.43,1.5c0,.42.16.78.47,1.08s.68.45,1.09.45c.3,0,.53-.04.69-.11.11-.05.29-.17.54-.38.07-.05.13-.12.19-.18,0-.19,0-.9,0-2.14Z"/><path class="cls-1" d="m131.52,17.41c-.18,0-.46-.17-.86-.52-.36.17-.68.3-.95.39s-.51.13-.7.13c-.94,0-1.65-.25-2.12-.76s-.71-1.26-.71-2.26c0-.94.35-1.75,1.04-2.42s1.53-1,2.5-1c.37,0,.8.1,1.29.31.59.25.88.54.88.88,0,.14-.04.26-.13.37-.04.15-.07.35-.09.58-.02.23-.03.51-.03.82,0,.74.05,1.27.16,1.59.01.04.1.24.27.6.15.33.23.52.23.57,0,.21-.08.38-.24.51-.16.14-.34.2-.55.2Zm-1.45-3.96c0-.12,0-.27.03-.43s.04-.34.08-.54c-.08-.04-.15-.07-.21-.08s-.11-.03-.16-.03c-.53,0-1,.21-1.39.62s-.6.9-.6,1.44.09.92.28,1.18.47.4.84.4c.24,0,.47-.04.69-.12s.42-.2.61-.35c-.12-.93-.18-1.62-.18-2.09Z"/></g><g id="_32x32"><rect class="cls-3" x=".75" y=".75" width="24" height="24"/><line class="cls-3" x1="7.28" y1=".75" x2="10.2" y2="4.64"/><line class="cls-3" x1="13.66" y1="24.75" x2="14.18" y2="20.98"/><path class="cls-2" d="m12.75,15.99c-.06.51-.07,1.17.06,1.93.26,1.47.94,2.51,1.37,3.06l3.18-2.68-1.6-3.88,3.59-2.24s-3.79-5.52-10.22-7.99c0,0-.55,2.55-.75,3.95-.57,3.99-.54,7.59-.27,10.61,1.54-.92,3.09-1.84,4.63-2.76Z"/></g></g></svg>