<svg width="1512" height="600" viewBox="0 0 1512 600" fill="none" xmlns="http://www.w3.org/2000/svg">
<g clip-path="url(#clip0_215_1425)">
<rect width="1512" height="600" fill="#EBEFEC"/>
<path d="M1403.28 429.077C1390.11 455.449 1370.37 500.658 1357.2 510.077C1344.04 519.495 1335.28 536.449 1330.88 549.635C1326.48 562.821 1240.91 602.379 1225.57 613.681C1212.4 623.401 1194.42 645.629 1196.49 681.495L1309.25 681.495C1318.8 660.623 1331.7 639.789 1348.4 626.867C1392.3 592.96 1451.53 538.332 1469.06 476.17C1478.99 440.982 1489.63 385.865 1512.95 336.775L1512.95 301.286L1486.62 323.589C1486.62 323.589 1416.4 402.705 1403.24 429.077L1403.28 429.077Z" fill="#99A49D" fill-opacity="0.33"/>
<path d="M1472.47 -151.748C1466.6 -141.689 1539.76 -169.341 1519.26 -136.678C1498.8 -104.014 1465.44 -80.9952 1437.34 -36.2005C1375.92 61.7527 1419.78 134.577 1405.15 177.3C1390.52 219.985 1340.8 285.312 1329.1 305.392C1317.4 325.473 1320.33 365.671 1320.33 365.671C1320.33 365.671 1334.97 287.798 1413.95 232.568C1449.23 207.891 1443.21 147.16 1443.21 114.534C1443.21 81.9084 1443.21 21.5919 1495.86 -31.1522C1519.11 -54.4349 1557.1 -78.8478 1593.88 -101.603L1593.88 -309C1568.64 -287.337 1569.47 -272.004 1560.22 -259.722C1528.02 -217.037 1478.3 -161.769 1472.47 -151.71L1472.47 -151.748Z" fill="#99A49D" fill-opacity="0.33"/>
<path d="M1125.57 591.481C1125.57 591.481 1078.78 616.61 1043.65 644.225C1011 669.919 1006.19 682.54 1005.66 684.197C1006.68 680.844 1021.16 633.45 1046.55 614.085C1072.87 594.005 1151.86 578.935 1166.49 548.796C1181.12 518.656 1222.08 518.656 1233.77 506.111C1245.47 493.565 1207.44 458.415 1216.21 425.752C1222.11 403.712 1263 340.344 1271.8 315.253C1280.56 290.124 1289.36 270.044 1286.43 194.695C1283.49 119.347 1344.95 61.5919 1353.71 43.998C1362.48 26.4041 1350.78 -6.22185 1371.28 -61.49C1391.74 -116.758 1362.51 -141.849 1371.28 -154.432C1380.04 -166.978 1415.17 -204.652 1441.5 -280.001C1441.5 -280.001 1374.21 -189.583 1350.82 -169.502C1327.42 -149.422 1339.12 -106.699 1339.12 -106.699C1339.12 -106.699 1368.38 -129.304 1359.58 -109.223C1350.78 -89.1429 1336.19 -41.4096 1324.49 -23.8157C1312.79 -6.22185 1303.99 56.5435 1301.1 74.1375C1298.16 91.7313 1239.68 154.497 1216.25 207.241C1192.81 259.985 1169.46 320.264 1148.96 340.344C1128.5 360.424 1058.28 395.612 1055.35 435.773C1052.41 475.972 1067.04 531.202 1049.48 566.39C1034.36 596.718 949.66 675.57 921 720.854L1129.21 720.854C1126.69 706.689 1151.74 684.16 1137.26 671.878C1105.11 644.564 1125.57 591.519 1125.57 591.519L1125.57 591.481Z" fill="#99A49D" fill-opacity="0.33"/>
<path d="M926.998 511.323C906.763 530.01 892.621 552.351 868.588 600.498L906.5 600.498C912.367 570.359 916.73 532.685 926.96 511.323L926.998 511.323Z" fill="#99A49D" fill-opacity="0.33"/>
<path d="M4.38369 793.133C9.62157 784.153 -55.684 808.84 -37.385 779.68C-19.1196 750.521 10.6624 729.971 35.7438 689.982C90.5736 602.537 51.4238 537.525 64.4849 499.385C77.5461 461.279 121.934 402.96 132.376 385.034C142.818 367.108 140.199 331.222 140.199 331.222C140.199 331.222 127.138 400.741 56.6281 450.046C25.1337 472.076 30.5059 526.292 30.5059 555.417C30.5059 584.543 30.5059 638.389 -16.5006 685.475C-37.2507 706.26 -71.1626 728.054 -104 748.368V933.516C-81.4704 914.177 -82.2091 900.489 -73.9494 889.525C-45.2082 851.419 -0.820602 802.08 4.38369 793.1V793.133Z" fill="#99A49D" fill-opacity="0.33"/>
<path d="M95.95 210.339C107.702 186.796 125.329 146.437 137.081 138.029C148.832 129.621 156.656 114.486 160.584 102.714C164.512 90.943 240.898 55.6287 254.597 45.5389C266.349 36.8616 282.398 17.0183 280.551 -15H179.89C171.362 3.63252 159.845 22.2314 144.938 33.7674C105.754 64.0368 52.8718 112.804 37.2253 168.298C28.3612 199.711 18.8592 248.916 -1.95801 292.739V324.421L21.5453 304.511C21.5453 304.511 84.2319 233.882 95.9835 210.339H95.95Z" fill="#99A49D" fill-opacity="0.33"/>
<path d="M336.039 104.495C336.039 104.495 377.808 82.0617 409.168 57.4089C438.312 34.4714 442.61 23.2045 443.08 21.7246C442.173 24.7179 429.247 67.0279 406.583 84.3151C383.079 102.241 312.57 115.694 299.509 142.601C286.447 169.507 249.883 169.507 239.441 180.706C228.999 191.906 262.944 223.285 255.121 252.445C249.849 272.12 213.352 328.69 205.495 351.09C197.672 373.523 189.815 391.449 192.434 458.714C195.053 525.98 140.19 577.539 132.367 593.245C124.543 608.952 134.986 638.078 116.687 687.417C98.4212 736.756 124.51 759.155 116.687 770.389C108.863 781.588 77.5033 815.221 54 882.487C54 882.487 114.068 801.768 134.952 783.842C155.836 765.916 145.394 727.776 145.394 727.776C145.394 727.776 119.272 747.956 127.129 730.029C134.986 712.103 148.013 669.491 158.455 653.784C168.897 638.078 176.754 582.046 179.34 566.339C181.959 550.633 234.169 494.6 255.087 447.515C276.005 400.429 296.856 346.617 315.155 328.69C333.42 310.764 396.107 279.351 398.726 243.499C401.345 207.613 388.284 158.307 403.964 126.894C417.461 99.8198 493.075 29.4265 518.66 -11H332.782C335.032 1.6459 312.67 21.7583 325.597 32.7225C354.305 57.1062 336.039 104.461 336.039 104.461V104.495Z" fill="#99A49D" fill-opacity="0.33"/>
<path d="M75.0322 64.6086C93.0962 47.9268 105.721 27.9826 127.176 -15H93.3312C88.0933 11.9062 84.1985 45.5389 75.0658 64.6086H75.0322Z" fill="#99A49D" fill-opacity="0.33"/>
<path d="M925 79.6086C943.064 62.9268 955.689 42.9826 977.144 0H943.299C938.061 26.9062 934.167 60.5389 925.034 79.6086H925Z" fill="#99A49D" fill-opacity="0.33"/>
<path d="M648 382C598.461 427.681 563.839 482.297 505 600L597.817 600C612.181 526.32 622.862 434.221 647.908 382L648 382Z" fill="#99A49D" fill-opacity="0.33"/>
<path d="M546.13 350.132C546.634 348.686 547.144 347.632 547.359 346.522C547.87 343.86 548.237 341.173 548.663 338.496C548.713 338.191 548.682 337.84 548.825 337.588C549.774 335.921 549.245 334.391 548.383 332.933C547.726 331.823 547.695 330.744 548.028 329.528C548.641 327.301 547.25 324.21 545.399 322.855C544.67 322.32 544.219 321.34 543.784 320.488C543.086 319.132 542.28 318.532 540.616 319.024C538.282 319.714 538.079 319.624 537.441 317.344C536.604 314.372 534.245 313.523 531.532 312.711C531.012 313.286 530.471 314.058 529.761 314.608C529.397 314.891 528.659 314.978 528.217 314.816C527.243 314.462 526.347 313.893 525.423 313.408C524.103 312.714 522.787 312.015 521.225 311.188C520.764 311.188 519.893 311.181 519.025 311.191C518.745 311.191 518.306 311.128 518.216 311.271C517.123 312.957 515.91 312.012 514.712 311.483C514.428 311.359 514.148 311.219 513.871 311.088C512.745 312.487 511.164 312.757 509.129 311.897C508.133 313.61 505.646 313.812 504.227 312.295C503.577 311.598 501.392 311.24 500.493 311.819C497.817 313.538 495.24 312.963 492.797 311.446C491.419 310.59 490.152 311.402 489.184 311.794C487.706 312.391 484.834 312.842 483.271 312.503C481.834 312.192 480.654 311.781 479.842 310.578C479.076 309.446 478.364 308.274 477.657 307.102C477.34 306.576 477.222 305.864 476.792 305.485C475.345 304.207 475.974 303.389 477.088 302.269C478.541 300.808 480.496 299.744 481.193 297.608C481.236 297.474 481.37 297.338 481.498 297.269C484.796 295.481 487.323 292.723 490.196 290.397C490.544 290.114 491.076 289.968 491.54 289.927C492.256 289.865 493.043 290.123 493.7 289.921C494.611 289.641 495.788 289.253 496.174 288.544C496.485 287.975 495.791 286.858 495.592 286.156C500.481 282.172 505.578 278.021 510.405 274.09C510.405 277.156 510.426 280.543 510.392 283.926C510.38 285.188 509.362 286 507.669 286.09C506.418 286.156 505.335 286.286 505.453 287.94C505.463 288.065 505.351 288.301 505.276 288.31C503.91 288.463 503.334 289.884 502.292 290.304C498.532 291.812 496.239 295.089 493.021 297.294C494.067 298.513 494.988 299.586 495.981 300.742C496.995 300.015 498.069 299.632 498.753 301.38C499.413 301.109 500.001 300.78 500.63 300.64C501.147 300.528 501.859 300.438 502.233 300.699C503.4 301.517 504.635 301.396 505.939 301.392C510.495 301.38 515.051 301.455 519.604 301.545C520.077 301.554 520.783 301.747 520.967 302.08C521.617 303.264 522.635 303.152 523.73 303.283C524.676 303.395 525.663 303.843 526.453 304.393C527.293 304.978 527.969 305.314 528.964 304.788C529.783 304.359 530.685 303.896 531.575 303.84C532.686 303.768 533.831 304.064 534.949 304.269C535.531 304.378 536.085 304.629 536.648 304.832C537.301 305.065 537.958 305.295 538.599 305.569C538.829 305.665 539.032 306.041 539.206 306.016C541.001 305.768 542.2 307.055 543.653 307.677C543.986 307.82 544.409 307.895 544.621 308.146C545.89 309.651 547.204 309.496 548.837 308.65C550.518 307.783 551.952 308.51 553.113 310.923C553.901 312.559 555.158 313.551 556.468 314.655C559.623 317.32 562.645 320.143 565.763 322.861C566.638 323.623 566.769 324.409 566.127 325.286C565.272 326.459 565.558 327.388 566.619 328.175C567.646 328.937 567.811 329.826 567.375 331.017C566.215 334.198 565.717 337.51 565.589 340.887C565.57 341.385 565.39 341.901 565.194 342.367C564.192 344.74 563.261 347.153 562.082 349.438C561.656 350.265 560.573 350.741 559.86 351.444C559.234 352.063 558.693 352.772 558.136 353.459C557.722 353.966 557.433 354.616 556.935 355.004C552.983 358.102 549.027 361.202 544.982 364.175C544.219 364.734 543.046 364.737 542.103 364.983C541.437 365.453 540.796 366.106 540.018 366.413C536.358 367.856 532.64 369.144 528.992 370.618C527.636 371.165 526.45 372.123 525.137 372.797C524.483 373.133 523.73 373.345 523.002 373.441C521.633 373.618 520.086 373.006 519.047 374.514C518.906 374.716 518.349 374.598 518.016 374.713C517.385 374.934 516.787 375.266 516.149 375.465C515.62 375.63 514.936 375.916 514.528 375.717C513.467 375.204 512.549 375.357 511.593 375.857C511.41 375.954 511.195 375.988 511.021 376.097C507.996 377.969 504.336 377.092 501.175 378.351C498.196 379.539 495.228 378.578 492.284 378.264C490.563 378.081 489.041 378.351 487.432 378.818C486.455 379.104 485.319 379.079 484.295 378.933C482.254 378.643 480.107 378.479 478.246 377.692C476.419 376.921 474.813 375.537 473.273 374.228C472.523 373.59 472.028 372.561 471.626 371.622C471.197 370.624 470.88 369.535 470.764 368.46C470.646 367.34 470.864 366.193 470.867 365.055C470.87 363.932 471.219 363.341 472.376 362.769C473.945 361.995 475.23 360.636 476.593 359.476C477.222 358.944 477.76 358.304 478.32 357.691C479.36 356.553 480.576 356.024 482.176 356.133C484.084 356.264 486.01 356.186 487.927 356.158C488.864 356.143 489.352 356.444 489.411 357.473C489.498 358.96 488.888 360.552 490.065 361.923C490.183 362.06 489.698 362.781 489.418 363.18C488.506 364.476 487.491 365.708 486.645 367.048C485.935 368.17 486.474 368.988 487.581 369.52C488.328 369.878 489.063 370.257 489.794 370.621C491.437 368.509 493.289 367.95 495.866 368.556C497.823 369.016 499.821 369.299 501.806 369.635C502.208 369.703 502.771 369.818 503.02 369.616C504.977 368.009 507.473 368.506 509.645 367.825C514.575 366.283 519.806 365.82 524.458 363.235C526.982 361.833 529.973 361.289 532.618 360.067C535.534 358.72 538.313 357.069 541.104 355.468C541.58 355.194 541.966 354.55 542.144 353.997C542.834 351.833 543.88 350.119 546.139 350.119L546.13 350.132Z" fill="#4C8A31"/>
<path d="M1060.43 314.617C1060.96 314.123 1061.64 313.454 1062.36 312.842C1062.86 312.41 1063.11 311.24 1064.14 312.074C1065.04 312.789 1065.66 313.647 1065.22 314.872C1064.85 315.889 1064.44 316.89 1064.02 317.988C1064.43 318.231 1064.79 318.411 1065.12 318.635C1065.96 319.201 1066 319.956 1065.32 320.588C1063.97 321.841 1063.54 323.324 1063.59 325.134C1063.64 326.658 1063.39 328.2 1063.17 329.717C1063.1 330.227 1062.64 330.669 1062.45 331.173C1062.21 331.804 1062.01 332.46 1061.89 333.122C1061.71 334.03 1061.86 335.081 1061.45 335.853C1059.84 338.9 1059.08 342.181 1058.42 345.508C1058.38 345.704 1058.35 345.956 1058.22 346.071C1056.41 347.647 1057.11 349.616 1057.32 351.519C1057.39 352.125 1057.47 352.781 1057.32 353.353C1056.69 355.682 1056.03 358.005 1055.26 360.294C1054.98 361.112 1054.16 361.774 1053.98 362.592C1053.55 364.66 1053.35 366.774 1053.07 368.87C1053.03 369.175 1053.09 369.523 1052.97 369.787C1052.11 371.665 1050.9 373.447 1050.4 375.413C1049.83 377.686 1048.03 379.495 1048.38 382.201C1048.56 383.631 1047.19 385.22 1046.66 386.784C1045.93 388.948 1045.34 391.166 1044.66 393.348C1044.46 393.961 1044.26 394.617 1043.88 395.115C1042.91 396.399 1042.6 397.758 1042.93 399.334C1043.06 399.953 1043.07 400.69 1042.86 401.275C1041.87 404.039 1040.94 406.844 1039.7 409.496C1038.1 412.92 1037.33 416.726 1034.99 419.817C1034.69 420.218 1034.52 420.734 1034.35 421.22C1033.92 422.491 1033.75 423.912 1033.07 425.026C1031.43 427.691 1030.29 430.542 1029.19 433.437C1028.95 434.065 1028.34 434.625 1027.78 435.051C1026.42 436.08 1024.73 435.772 1023.74 434.42C1023.5 434.087 1023.28 433.723 1022.99 433.434C1021.84 432.28 1021.85 431.403 1023.05 430.088C1024.27 428.766 1024.91 426.935 1025.87 425.365C1026.33 424.612 1026.94 423.953 1027.5 423.222C1027.68 422.582 1027.82 421.813 1028.08 421.092C1029.11 418.272 1030.93 415.818 1031.45 412.718C1031.76 410.802 1033.07 409.067 1033.79 407.192C1034.61 405.037 1035.78 403.081 1036.34 400.743C1037.64 395.292 1039.57 389.993 1041.1 384.592C1041.75 382.275 1042.81 380.198 1044.02 378.164C1044.2 377.872 1044.34 377.499 1044.34 377.169C1044.28 374.302 1045.4 371.759 1046.44 369.181C1046.67 368.615 1046.53 367.918 1046.66 367.297C1046.91 366 1047.04 364.638 1047.56 363.45C1048.24 361.895 1048.14 360.381 1048 358.792C1047.95 358.251 1048.04 357.514 1048.37 357.156C1049.18 356.292 1049.42 355.371 1049.4 354.218C1049.34 350.651 1049.54 347.069 1049.3 343.518C1049.15 341.422 1048.35 339.373 1047.63 337.267C1045.84 339.398 1043.11 340.337 1041.95 343.036C1041.34 344.466 1039.64 345.34 1039.4 347.15C1039.35 347.501 1038.41 347.663 1038.03 348.051C1036.71 349.373 1035.43 350.735 1034.18 352.116C1032.94 353.481 1031.79 354.924 1030.52 356.264C1028.78 358.108 1027.01 359.939 1025.15 361.665C1024.49 362.287 1023.47 362.52 1022.71 363.064C1021.69 363.792 1020.87 364.831 1019.8 365.412C1018.43 366.152 1016.92 366.718 1015.4 367.082C1013.52 367.536 1011.06 365.288 1011.06 363.338C1011.05 358.428 1011.05 353.515 1011 348.605C1010.99 347.573 1011.11 346.708 1011.98 345.993C1012.32 345.71 1012.47 345.122 1012.58 344.643C1012.81 343.664 1013.24 342.607 1013.06 341.686C1012.58 339.295 1013.81 337.193 1013.89 334.914C1013.98 332.168 1014.24 329.428 1014.3 326.686C1014.32 326.057 1013.81 325.417 1013.29 324.776C1011.93 327.898 1009 328.934 1006.61 330.569C1006.33 330.759 1005.78 330.815 1005.5 330.666C1004.47 330.147 1003.11 327.199 1003.41 326.107C1003.54 325.644 1003.97 325.252 1004.31 324.86C1004.67 324.434 1005.05 324.005 1005.48 323.654C1006.45 322.864 1007.45 322.102 1008.47 321.368C1008.74 321.169 1009.27 321.207 1009.42 320.967C1011.56 317.562 1015.25 315.951 1018.16 313.457C1020.52 311.436 1023.34 309.928 1026.04 308.339C1027.66 307.388 1030.9 309.35 1030.91 311.175C1030.91 311.498 1030.69 311.881 1030.47 312.136C1028.96 313.806 1028.77 315.883 1028.48 317.979C1028.11 320.718 1027.5 323.427 1027.03 326.154C1026.91 326.86 1027.04 327.618 1026.85 328.296C1026.45 329.705 1025.82 331.051 1025.47 332.469C1025.21 333.555 1025.15 334.708 1025.14 335.834C1025.12 339.143 1025.17 342.448 1025.19 345.757C1025.2 347.489 1025.19 349.221 1025.19 350.953L1025.73 351.046C1026.05 350.682 1026.4 350.331 1026.7 349.951C1028.98 347.181 1031.46 344.65 1034.66 342.927C1034.83 342.834 1034.99 342.672 1035.1 342.504C1036.47 340.417 1038.5 338.881 1040.02 337.006C1042.56 333.859 1045.73 331.375 1048.31 328.306C1049.24 327.202 1049.76 326.098 1049.75 324.568C1049.73 322.161 1049.71 319.496 1051.46 317.68C1053.41 315.65 1055.69 313.756 1058.82 313.775C1059.27 313.775 1059.72 314.232 1060.44 314.62L1060.43 314.617Z" fill="#4C8A31"/>
<path d="M941.091 354.336C943.615 353.537 945.202 351.826 946.711 349.855C947.86 348.356 949.528 347.268 950.85 345.89C952.142 344.547 953.281 343.058 954.501 341.646C955.254 340.775 957.448 340.688 958.027 341.63C958.957 343.148 959.67 344.849 958.755 346.606C958.437 347.215 957.535 347.498 956.99 348.023C956.141 348.848 955.338 349.728 954.572 350.629C954.018 351.285 953.558 352.019 953.05 352.713C952.36 353.658 951.666 354.6 950.965 355.536C950.782 355.782 950.617 356.056 950.38 356.239C948.607 357.595 946.808 358.913 945.043 360.281C944.732 360.524 944.505 360.9 944.3 361.252C943.276 363.012 942.277 364.787 941.262 366.553C941.135 366.777 940.967 367.15 940.808 367.154C938.966 367.21 937.976 368.739 936.557 369.495C935.259 370.188 933.619 369.402 932.564 367.645C930.971 364.986 929.493 362.256 928.074 359.501C927.343 358.083 926.885 356.525 926.213 355.07C925.413 353.344 925.077 351.631 925.292 349.681C925.444 348.272 924.94 346.789 924.713 345.34C924.427 343.533 924.147 341.724 923.804 339.923C923.739 339.584 923.359 339.015 923.194 339.037C922.687 339.108 922.086 339.301 921.76 339.662C921.405 340.057 921.296 340.682 921.112 341.22C920.761 342.249 920.135 342.952 919.289 343.72C918.097 344.799 917.468 346.49 916.572 347.905C916.161 348.555 915.8 349.308 915.221 349.765C914.331 350.468 913.441 351.046 913.802 352.386C913.852 352.57 913.843 352.859 913.731 352.98C911.948 354.911 911.235 357.623 908.839 359.174C907.79 359.855 907.249 361.367 906.573 362.558C905.966 363.627 905.736 365.453 904.912 365.748C902.898 366.466 902.901 368.242 902.061 369.582C900.505 372.07 895.778 373.889 892.915 373.09C892.576 372.996 892.221 372.393 892.156 371.983C891.636 368.715 890.979 365.45 890.799 362.156C890.712 360.546 891.555 358.885 891.978 357.25C892.793 354.09 893.534 350.909 894.455 347.784C894.981 346.002 895.333 344.336 894.549 342.523C894.424 342.237 895.261 341.176 895.8 341.039C897.197 340.685 897.906 339.488 897.819 338.138C897.735 336.829 898.23 335.479 898.495 334.155C898.52 334.037 898.796 333.974 898.828 333.85C899.391 331.676 899.942 329.5 900.48 327.32C900.564 326.981 900.53 326.611 900.639 326.285C902.039 322.093 904.382 318.427 907.398 315.27C909.218 313.364 911.394 311.738 913.613 310.298C914.699 309.595 916.252 309.605 917.596 309.303C917.845 309.247 918.228 309.362 918.352 309.222C920.07 307.285 922.307 308.081 924.405 307.95C926.773 307.801 929.119 307.353 931.481 307.089C932.191 307.011 932.925 307.083 933.641 307.142C935.098 307.257 936.548 307.459 938.004 307.531C939.616 307.608 940.842 309.928 939.89 311.365C938.928 312.817 937.833 314.163 936.128 314.891C935.751 315.053 935.375 315.696 935.353 316.135C935.122 320.939 935.166 325.715 935.928 330.51C936.51 334.167 936.118 337.992 936.818 341.615C937.584 345.589 939.09 349.426 940.316 353.307C940.444 353.714 940.855 354.034 941.094 354.339L941.091 354.336ZM922.606 319.17C921.165 318.787 919.728 318.504 918.358 318.019C916.504 317.36 915.841 317.528 914.836 319.16C914.686 319.403 914.335 319.512 914.138 319.736C913.563 320.389 912.822 320.989 912.505 321.76C911.96 323.085 911.842 324.59 911.266 325.899C910.441 327.777 909.237 329.487 908.428 331.369C907.361 333.847 906.39 336.384 905.618 338.965C904.799 341.708 904.233 344.525 903.611 347.324C903.24 348.987 902.976 350.676 902.658 352.349C902.612 352.598 902.612 352.899 902.472 353.083C901.32 354.597 902.151 356.111 902.192 357.822C906.063 352.414 909.835 347.305 913.426 342.075C915.735 338.713 917.792 335.181 919.924 331.704C920.225 331.213 920.649 330.38 920.45 330.069C919.749 328.984 920.428 328.253 920.751 327.345C921.701 324.677 923.16 322.102 922.606 319.167V319.17Z" fill="#4C8A31"/>
<path d="M625.98 354.336C628.416 353.558 630.144 352.025 631.444 349.967C631.553 349.796 631.706 349.65 631.846 349.504C634.382 346.848 636.925 344.199 639.461 341.54C640.251 340.713 642.442 340.747 642.971 341.739C643.472 342.675 643.811 343.738 644.007 344.786C644.337 346.553 642.822 347.181 641.77 348.114C640.927 348.863 640.189 349.743 639.458 350.611C638.873 351.307 638.369 352.072 637.83 352.809C637.17 353.711 636.514 354.619 635.848 355.518C635.667 355.763 635.506 356.046 635.272 356.226C633.498 357.582 631.7 358.904 629.935 360.269C629.621 360.511 629.387 360.882 629.182 361.233C628.158 362.993 627.162 364.772 626.145 366.535C625.992 366.802 625.781 367.241 625.588 367.244C623.904 367.287 622.967 368.534 621.726 369.361C620.332 370.291 618.608 369.56 617.453 367.66C615.844 365.011 614.375 362.275 612.953 359.52C612.219 358.102 611.761 356.544 611.092 355.088C610.299 353.363 609.959 351.652 610.159 349.7C610.305 348.241 609.77 346.711 609.533 345.216C609.256 343.456 608.998 341.695 608.674 339.945C608.612 339.603 608.248 339.027 608.086 339.046C607.579 339.108 606.972 339.289 606.642 339.643C606.284 340.032 606.178 340.663 605.989 341.198C605.624 342.215 605.046 342.939 604.177 343.707C602.976 344.768 602.354 346.475 601.445 347.88C601.003 348.565 600.583 349.317 599.976 349.827C599.148 350.524 598.327 351.102 598.669 352.361C598.719 352.545 598.722 352.837 598.61 352.955C596.814 354.874 596.133 357.61 593.731 359.159C592.679 359.837 592.125 361.342 591.449 362.53C590.843 363.599 590.591 365.502 589.806 365.723C587.034 366.51 587.625 369.641 585.537 370.985C583.785 372.113 579.692 373.852 577.651 373.065C577.368 372.956 577.097 372.486 577.044 372.147C576.524 368.777 575.961 365.406 575.622 362.013C575.522 361.006 576.061 359.927 576.347 358.891C577.231 355.692 578.264 352.526 578.986 349.289C579.462 347.153 580.629 345.032 579.431 342.687C579.033 341.91 579.565 341.086 580.626 340.955C582.154 340.772 582.748 339.528 582.63 337.998C582.534 336.739 583.066 335.433 583.343 334.152C583.368 334.034 583.648 333.971 583.679 333.85C584.251 331.68 584.808 329.503 585.353 327.323C585.437 326.987 585.39 326.611 585.499 326.288C586.897 322.096 589.231 318.42 592.252 315.27C594.11 313.33 596.422 311.819 598.56 310.155C598.903 309.891 599.401 309.794 599.846 309.698C601.389 309.359 602.976 309.539 604.361 308.224C605.074 307.549 606.686 307.789 607.899 307.683C608.945 307.593 610.003 307.636 611.049 307.556C612.863 307.409 614.668 307.182 616.482 307.052C617.198 306.999 617.926 307.089 618.645 307.148C620.048 307.263 621.449 307.456 622.852 307.515C624.467 307.587 625.715 309.891 624.769 311.334C623.814 312.789 622.725 314.145 621.016 314.866C620.637 315.028 620.244 315.665 620.223 316.098C619.992 320.902 620.03 325.678 620.795 330.473C621.377 334.13 620.979 337.958 621.688 341.577C622.476 345.598 624.01 349.476 625.258 353.406C625.373 353.767 625.75 354.044 625.977 354.327L625.98 354.336ZM607.495 319.201C605.97 318.762 604.535 318.29 603.07 317.948C602.254 317.758 601.37 317.646 600.558 317.77C600.238 317.82 600.079 318.644 599.765 319.052C599.525 319.359 599.124 319.537 598.843 319.823C598.37 320.308 597.698 320.762 597.527 321.353C596.506 324.82 594.935 328.026 593.385 331.282C591.901 334.394 591.067 337.818 589.949 341.105C589.666 341.932 589.324 342.747 589.122 343.592C588.664 345.514 588.235 347.448 587.874 349.392C587.662 350.53 587.952 351.914 587.398 352.806C586.352 354.485 587.024 356.015 587.027 357.797C587.342 357.579 587.497 357.523 587.572 357.414C593.422 348.714 599.27 340.013 605.089 331.294C605.319 330.952 605.512 330.271 605.338 330.031C604.616 329.04 605.26 328.318 605.578 327.457C606.58 324.748 608.027 322.127 607.498 319.204L607.495 319.201Z" fill="#4C8A31"/>
<path d="M824.536 344.559C824.738 344.049 825.03 343.337 825.295 342.619C825.419 342.283 825.55 341.935 825.575 341.584C825.709 339.513 825.693 337.426 825.961 335.374C826.207 333.474 826.789 331.621 827.137 329.73C827.318 328.738 827.29 327.712 827.402 326.704C827.458 326.21 827.517 325.666 827.756 325.246C828.286 324.316 828.009 323.713 827.386 323.355C825.656 323.865 825.223 326.079 823.185 325.899C823.029 325.886 822.821 325.952 822.728 325.874C820.863 324.322 819.317 325.992 817.652 326.375C816.659 326.602 815.716 327.447 814.854 325.995C813.37 323.498 813.217 323.433 814.941 321.94C816.454 320.631 817.518 318.747 819.609 318.141C819.896 318.057 820.179 317.83 820.453 317.848C822.143 317.96 823.478 317.603 824.119 315.774C824.221 315.479 825.189 315.221 825.628 315.354C826.954 315.762 827.971 315.513 829.042 314.63C829.667 314.114 830.66 314.076 831.401 313.666C833.165 312.689 834.821 311.498 836.632 310.622C838.107 309.91 839.71 309.362 841.315 309.054C842.392 308.849 843.861 311.498 843.407 312.562C842.899 313.75 842.398 314.941 841.872 316.119C841.729 316.44 841.558 316.875 841.287 316.99C839.598 317.705 839.825 318.946 839.794 320.491C839.759 322.167 838.779 323.825 838.191 325.485C837.917 326.256 837.631 327.025 837.292 327.768C836.834 328.769 836.318 329.745 835.826 330.731C835.757 330.868 835.614 330.999 835.611 331.132C835.574 333.853 833.355 336.129 834.369 339.189C834.958 340.968 834.248 343.138 834.373 345.119C834.519 347.43 835.029 349.715 835.203 352.025C835.284 353.098 834.954 354.205 834.768 355.601C837.341 354.243 838.963 352.33 840.528 350.436C842.937 347.523 844.981 344.301 848.012 341.935C848.208 341.783 848.47 341.717 848.703 341.612C848.579 341.521 848.457 341.428 848.333 341.338C848.89 340.473 849.335 339.506 850.026 338.766C851.348 337.348 853.041 336.31 853.847 334.372C854.143 333.66 855.332 333.374 855.889 332.706C857.358 330.943 858.643 329.03 860.124 327.28C860.715 326.58 861.649 326.179 862.38 325.585C862.766 325.271 863.087 324.854 863.367 324.437C864.599 322.6 865.614 320.569 867.095 318.961C868.041 317.935 869.304 317.229 870.104 315.948C870.425 315.435 871.685 315.04 872.264 315.258C873.222 315.619 873.845 315.364 874.657 315.015C875.958 314.459 877.663 314.969 878.31 315.933C879.045 317.021 878.79 318.567 877.996 319.73C877.486 320.479 877.29 321.465 877.034 322.366C876.664 323.679 876.446 325.041 876.017 326.331C875.329 328.411 874.551 330.426 874.657 332.706C874.722 334.083 874.343 335.486 874.147 336.873C874.112 337.121 873.901 337.361 873.916 337.597C874.153 341.898 873.583 346.192 873.829 350.489C873.87 351.205 874.016 351.917 874.153 352.623C874.315 353.462 874.788 353.922 875.696 353.67C876.972 353.319 877.772 354.047 878.13 355.042C878.463 355.975 878.164 356.796 877.171 357.533C875.802 358.552 874.732 359.97 873.506 361.189C873.054 361.637 872.553 362.041 872.03 362.402C871.701 362.632 871.153 362.645 870.941 362.931C869.227 365.238 866.42 365.558 864.076 366.665C862.582 367.371 861.381 366.535 860.955 364.877C860.597 363.497 860.136 362.262 860.694 360.595C861.092 359.401 861.079 358.273 862.321 357.576C862.511 357.47 862.536 357.013 862.579 356.708C862.9 354.56 863.217 352.414 863.51 350.262C863.557 349.914 863.575 349.507 863.441 349.196C863.09 348.366 862.844 347.697 863.482 346.773C863.765 346.366 863.295 345.303 862.959 344.643C862.595 343.931 862.106 343.443 862.878 342.616C863.311 342.153 863.529 341.291 863.473 340.644C863.429 340.15 862.723 339.749 862.452 339.233C862.134 338.626 861.994 337.93 861.733 337.289C861.618 337.003 861.428 336.565 861.223 336.537C860.974 336.503 860.61 336.77 860.41 337.006C858.223 339.553 856.01 342.081 853.9 344.69C852.313 346.652 850.891 348.745 849.35 350.744C846.515 354.429 843.718 358.142 840.765 361.73C839.277 363.54 837.506 365.12 835.816 366.752C835.465 367.094 834.861 367.163 834.447 367.458C833.887 367.859 833.131 368.261 832.925 368.83C832.359 370.403 831.335 370.969 829.748 370.897C829.278 370.876 828.724 371.025 828.329 371.28C826.851 372.222 825.248 371.793 824.623 370.067C824.137 368.727 823.493 367.67 822.283 366.805C821.704 366.392 821.47 365.278 821.377 364.448C821.081 361.83 820.832 359.196 820.755 356.565C820.717 355.303 821 354 821.327 352.766C821.856 350.754 822.491 348.767 823.179 346.801C823.425 346.099 823.951 345.495 824.523 344.556L824.536 344.559Z" fill="#4C8A31"/>
<path d="M697.823 354.187C698.461 353.655 699.089 353.111 699.737 352.591C701.171 351.444 702.531 350.169 704.081 349.205C705.908 348.07 707.952 347.29 709.81 346.201C710.968 345.523 712.02 345.757 713.075 346.167C714.248 346.624 714.571 347.927 713.868 348.978C712.717 350.698 711.571 352.42 710.383 354.115C709.695 355.092 708.973 356.08 707.554 355.984C707.454 355.978 707.289 355.984 707.258 356.04C705.942 358.381 702.248 357.816 701.426 360.798C701.336 361.13 700.901 361.463 700.546 361.615C696.345 363.438 692.99 366.401 689.75 369.526C689.529 369.741 689.293 369.943 689.044 370.126C688.926 370.213 688.761 370.238 688.409 370.369C688.154 369.731 687.905 369.103 687.612 368.373C685.982 368.771 685.667 367.651 685.375 366.333C685.185 365.471 684.69 364.678 684.332 363.854C684.211 363.574 684.018 363.298 683.99 363.009C683.76 360.546 683.477 358.083 683.396 355.611C683.368 354.799 683.962 353.985 684.13 353.145C684.469 351.45 684.709 349.734 684.989 348.027C685.138 347.131 685.322 346.239 685.425 345.337C685.496 344.699 685.415 344.046 685.484 343.409C685.537 342.939 685.587 342.361 685.873 342.044C686.725 341.105 686.993 340.057 687.062 338.813C687.136 337.448 687.51 336.098 687.718 334.736C687.762 334.46 687.756 334.074 687.6 333.887C686.268 332.305 686.389 330.8 687.69 329.263C687.836 329.092 687.731 328.402 687.588 328.346C687.102 328.156 686.377 327.883 686.044 328.101C681.753 330.884 677.673 333.9 674.916 338.365C674.215 339.5 673.173 340.418 672.451 341.543C669.435 346.242 666.479 350.978 663.516 355.71C663 356.538 662.237 357.374 662.135 358.27C661.749 361.64 659.567 363.786 657.317 365.928C657.025 366.205 656.648 366.392 656.337 366.65C655.662 367.203 655.015 367.794 654.33 368.338C653.95 368.64 653.543 369.066 653.11 369.119C651.747 369.284 650.365 369.352 648.996 369.302C648.8 369.296 648.38 368.363 648.495 367.996C649.407 365.095 650.536 362.259 651.38 359.339C652.494 355.483 653.521 351.593 654.358 347.669C654.725 345.949 654.336 344.077 654.641 342.336C654.927 340.694 655.796 339.164 656.175 337.529C656.496 336.142 656.602 334.68 656.595 333.25C656.586 331.614 656.247 329.982 656.238 328.346C656.234 327.451 656.328 326.676 655.298 326.35C654.265 326.023 653.207 325.563 652.288 326.605C652.186 326.72 652.055 326.841 652.018 326.981C651.346 329.602 648.971 329.994 646.936 330.747C646.534 330.896 645.613 330.532 645.389 330.143C643.964 327.678 644.393 326.726 647.014 325.454C647.736 325.103 648.464 324.369 648.76 323.638C649.102 322.792 649.525 322.786 650.256 322.73C650.876 322.684 651.538 322.342 652.052 321.956C652.783 321.406 653.291 320.476 654.078 320.096C655.774 319.282 656.53 317.68 657.691 316.409C658.643 315.364 659.841 314.54 660.949 313.641C661.96 312.817 662.981 311.999 664.036 311.234C664.422 310.954 664.917 310.706 665.381 310.668C666.765 310.553 668.163 310.485 669.547 310.547C669.949 310.566 670.637 311.063 670.671 311.393C670.895 313.653 670.923 315.877 669.074 317.683C668.598 318.147 668.521 319.052 668.34 319.773C667.995 321.154 667.892 322.621 667.354 323.915C666.501 325.961 665.328 327.874 664.382 329.889C664.039 330.616 664.014 331.484 663.753 332.258C662.468 336.067 662.533 340.128 661.515 343.984C661.425 344.326 661.419 344.69 661.372 345.041L661.727 345.272C662.766 343.86 663.809 342.448 664.842 341.033C665.082 340.707 665.209 340.228 665.521 340.032C667.322 338.906 668.184 337.059 669.252 335.361C669.635 334.752 669.971 333.943 670.543 333.651C673.562 332.112 675.105 329.04 677.66 327.028C680.144 325.072 682.593 323.066 684.98 320.995C686.181 319.95 687.105 318.573 688.347 317.587C689.579 316.611 691.042 315.92 692.42 315.137C693.575 314.481 694.711 313.75 695.943 313.283C696.951 312.901 698.156 312.565 699.139 312.792C699.628 312.904 700.029 314.303 700.104 315.152C700.437 318.893 699.556 322.478 698.604 326.073C697.932 328.607 697.617 331.244 697.219 333.844C696.955 335.567 696.251 337.513 696.78 338.987C697.356 340.598 696.394 341.602 696.404 342.787C696.432 346.522 696.983 350.25 697.328 353.981C697.493 354.05 697.655 354.115 697.82 354.184L697.823 354.187Z" fill="#4C8A31"/>
<path d="M794.533 311.449C795.819 311.713 796.811 311.999 797.823 312.105C799.186 312.248 800.633 312.546 801.927 312.254C805.431 311.467 808.861 311.212 812.318 312.397C813.295 312.733 815.256 314.76 815.212 315.566C815.163 316.486 813.124 318.399 812.107 318.7C810.694 319.117 809.331 319.698 807.946 320.208C805.814 320.995 803.86 321.996 801.352 321.819C798.408 321.611 795.389 322.118 792.433 322.531C790.799 322.758 789.763 324.779 789.679 326.421C789.592 328.082 789.168 329.733 788.776 331.362C788.506 332.485 787.93 333.533 787.675 334.659C787.385 335.943 787.264 337.274 787.139 338.589C787.046 339.559 787.18 340.539 786.028 341.098C785.73 341.245 785.481 342.078 785.621 342.429C786.809 345.393 786.193 348.421 785.695 351.316C784.93 355.754 786.312 359.771 787.295 364.122C787.911 363.817 788.577 363.702 788.848 363.313C789.766 361.989 791.154 361.979 792.498 361.594C793.712 361.245 794.776 360.356 795.881 359.659C796.559 359.233 797.175 358.714 797.835 358.254C798 358.139 798.271 358.158 798.402 358.024C800.157 356.199 801.974 354.426 803.611 352.504C804.927 350.956 806.589 350.057 808.466 349.634C809.583 349.382 810.255 350.349 810.099 351.372C809.598 354.666 808.855 357.871 806.06 360.166C804.759 361.233 803.676 362.564 802.379 363.64C801.479 364.386 800.384 364.893 799.388 365.521C798.361 366.168 797.269 366.74 796.348 367.511C795.321 368.369 794.456 369.234 792.965 369.492C791.991 369.66 791.21 370.832 790.295 371.494C789.221 372.272 788.179 373.152 786.984 373.684C784.675 374.707 782.278 375.537 779.904 376.401C779.11 376.691 778.631 377.941 777.474 377.16C776.095 376.23 774.934 375.316 774.601 373.422C773.714 368.4 772.522 363.434 771.552 358.425C771.399 357.635 771.732 356.746 771.888 355.909C771.987 355.359 772.27 354.83 772.289 354.283C772.32 353.406 772.824 352.927 773.282 352.249C774.19 350.912 775.112 349.124 774.95 347.638C774.757 345.878 775.233 345.415 776.674 345.191C776.817 345.169 776.951 345.076 776.777 345.15C777.004 343.813 777.169 342.694 777.386 341.584C777.912 338.906 778.37 336.207 779.026 333.561C779.599 331.263 780.321 328.993 781.146 326.773C781.746 325.165 780.772 324.372 779.832 323.492C778.911 322.631 778.024 322.348 776.87 323.309C775.656 324.319 774.234 323.763 772.862 323.467C772.417 323.371 771.695 323.542 771.418 323.862C770.229 325.24 768.751 324.932 767.254 324.817C765.944 324.717 765.682 323.732 765.514 322.774C765.29 321.48 764.923 320.093 765.175 318.859C765.598 316.779 766.342 314.857 769.196 314.813C771.424 314.779 773.77 314.518 775.834 313.744C777.67 313.056 780.383 313.545 781.09 310.771C782.814 310.363 782.997 308.719 783.651 307.5C784.659 305.615 785.129 303.547 785.381 301.43C785.478 300.637 785.478 299.803 785.739 299.063C786.112 297.997 786.673 296.992 787.174 295.972C788.459 293.354 791.191 292.207 793.105 290.22C793.905 289.389 795.044 288.83 796.114 288.329C796.774 288.021 797.62 287.878 798.342 287.975C800.051 288.195 800.879 289.732 800.113 291.271C799.292 292.925 798.809 294.592 798.924 296.467C798.971 297.198 798.619 297.969 798.389 298.7C797.116 302.751 795.822 306.797 794.552 310.852C794.465 311.128 794.54 311.458 794.54 311.436L794.533 311.449Z" fill="#4C8A31"/>
<path d="M993.161 287.875C993.382 286.454 993.771 285.425 993.649 284.464C992.657 276.519 991.574 268.583 990.506 260.648C990.441 260.16 990.282 259.684 990.08 258.826C989.619 259.646 989.305 260.15 989.041 260.682C984.979 268.826 980.928 276.976 976.863 285.12C976.449 285.953 976.023 286.784 975.535 287.573C974.9 288.597 974.137 288.562 973.44 287.642C973.005 287.067 972.625 286.442 972.298 285.798C968.131 277.595 963.977 269.386 959.819 261.176C959.589 260.725 959.349 260.281 958.77 259.83C958.559 261.201 958.322 262.569 958.145 263.944C957.323 270.35 956.536 276.762 955.705 283.164C955.301 286.28 955.727 286.889 958.861 287.371C959.39 287.452 959.922 287.521 960.622 287.62C959.723 288.463 947.051 288.593 945.538 287.763C946.288 287.608 946.727 287.477 947.175 287.43C949.472 287.197 950.315 286.566 950.748 284.287C951.355 281.09 951.831 277.869 952.338 274.656C953.91 264.656 955.456 254.649 957.065 244.652C957.155 244.086 957.728 243.598 958.076 243.076C958.668 243.57 959.489 243.949 959.813 244.581C963.037 250.89 966.18 257.24 969.348 263.58C971.452 267.79 973.549 272.001 975.662 276.205C975.84 276.556 976.089 276.867 976.437 277.402C977.632 274.995 978.737 272.787 979.829 270.573C984.033 262.041 988.235 253.505 992.439 244.972C992.554 244.739 992.619 244.447 992.803 244.295C993.319 243.862 993.886 243.486 994.43 243.088C994.788 243.614 995.373 244.099 995.473 244.668C996.139 248.483 996.708 252.314 997.297 256.142C998.666 265.026 999.995 273.913 1001.41 282.791C1001.88 285.789 1002.86 286.7 1005.61 287.179C1008.56 287.695 1010.53 287.032 1011.75 284.514C1013.87 280.145 1015.74 275.658 1017.68 271.202C1021.42 262.569 1025.12 253.928 1028.85 245.29C1029.05 244.814 1029.24 244.329 1029.51 243.887C1030.26 242.631 1031.29 242.628 1031.92 243.984C1033.31 246.984 1034.61 250.025 1035.92 253.067C1039.83 262.184 1043.73 271.31 1047.66 280.421C1048.17 281.603 1048.77 282.751 1049.41 283.876C1050.62 286.04 1052.32 287.493 1054.98 287.443C1055.33 287.437 1055.69 287.617 1056.02 287.999C1050.77 288.565 1045.53 288.453 1040.13 288.021C1042.12 286.967 1041.35 285.667 1040.79 284.327C1039.51 281.224 1038.26 278.108 1037.06 274.967C1036.69 273.982 1036.13 273.633 1035.09 273.646C1031 273.689 1026.9 273.686 1022.81 273.646C1021.8 273.636 1021.2 273.916 1020.82 274.93C1019.68 277.977 1018.3 280.938 1017.28 284.019C1016.45 286.51 1017.18 287.306 1019.8 287.462C1020.25 287.49 1020.7 287.611 1021.12 288.018C1011.69 288.136 1002.26 288.805 993.155 287.875H993.161ZM1029.13 254.724C1028.78 255.19 1028.58 255.361 1028.49 255.579C1026.67 260.175 1024.86 264.78 1023.02 269.373C1022.62 270.384 1023.02 270.689 1023.98 270.689C1027.24 270.679 1030.49 270.695 1033.75 270.673C1034.17 270.673 1034.59 270.502 1035.17 270.374C1033.13 265.098 1031.17 260.029 1029.13 254.724Z" fill="#293D33"/>
<path d="M871.498 256.528C871.498 259.575 871.449 262.392 871.508 265.206C871.617 270.325 871.782 275.443 871.95 280.558C871.987 281.693 872.093 282.831 872.267 283.951C872.64 286.355 873.478 287.073 876.104 287.384C876.776 287.465 877.445 287.558 878.37 287.679C876.988 288.652 845.89 288.597 844.337 287.732C846.466 287.095 846.024 285.807 845.442 284.324C843.839 280.238 842.302 276.124 840.821 271.991C840.394 270.8 839.791 270.253 838.465 270.272C834.111 270.337 829.758 270.322 825.404 270.278C824.262 270.266 823.599 270.62 823.207 271.749C821.853 275.651 820.288 279.482 819.065 283.422C818.156 286.348 819.034 287.325 822.062 287.455C822.497 287.474 822.93 287.539 823.362 287.586C823.387 287.729 823.415 287.869 823.44 288.012C823.082 288.143 822.721 288.388 822.364 288.391C817.185 288.413 812.007 288.41 806.829 288.391C806.511 288.391 806.194 288.202 805.876 288.102C805.867 287.968 805.855 287.835 805.845 287.701C806.275 287.605 806.704 287.424 807.134 287.424C810.6 287.424 812.71 285.574 813.943 282.508C816.949 275.033 819.955 267.557 822.961 260.082C826.042 252.41 829.104 244.733 832.232 237.083C832.552 236.303 833.287 235.69 833.831 235C834.385 235.687 835.148 236.294 835.468 237.077C840.376 249.136 845.208 261.223 850.101 273.288C851.361 276.398 852.624 279.523 854.149 282.508C856.272 286.662 858.291 288.055 864.288 287.219C865.648 287.029 866.342 286.233 866.466 284.986C866.653 283.086 866.771 281.174 866.806 279.265C867.008 268.251 867.16 257.237 867.387 246.222C867.406 245.274 867.845 244.332 868.091 243.387C868.947 243.881 869.955 244.217 870.633 244.888C880.803 255.001 890.926 265.16 901.065 275.306C901.632 275.875 902.232 276.41 903.131 277.259C903.131 274.837 903.172 272.856 903.125 270.875C902.957 263.947 902.761 257.022 902.571 250.094C902.472 246.421 901.66 245.566 898.037 245.249C897.508 245.202 896.985 245.072 896.459 244.982C896.472 244.832 896.487 244.683 896.5 244.534H912.62C912.639 244.68 912.657 244.823 912.676 244.969C912.106 245.075 911.54 245.202 910.967 245.286C908.811 245.604 908.045 246.25 907.821 248.443C907.616 250.445 907.625 252.47 907.591 254.485C907.41 264.724 907.249 274.964 907.068 285.204C907.053 286.134 906.987 287.063 906.897 287.987C906.791 289.088 906.169 289.445 905.182 288.967C904.635 288.702 904.093 288.354 903.657 287.931C893.404 277.909 883.168 267.874 872.927 257.843C872.504 257.429 872.055 257.041 871.505 256.534L871.498 256.528ZM832.347 249.161L831.908 249.205C831.746 249.515 831.547 249.814 831.422 250.14C829.471 255.305 827.545 260.483 825.572 265.639C825.093 266.886 825.584 267.224 826.739 267.218C830.311 267.203 833.884 267.218 837.457 267.203C837.842 267.203 838.228 267.063 838.841 266.945C836.635 260.909 834.488 255.035 832.344 249.161H832.347Z" fill="#293D33"/>
<path d="M737.354 322.146C736.731 322.572 736.047 322.786 735.857 323.215C734.771 325.697 732.96 327.727 732.151 330.448C730.364 336.475 729.241 342.476 730.277 348.748C730.7 351.313 730.94 353.935 731.678 356.41C732.12 357.887 733.299 359.174 734.298 360.431C734.516 360.707 735.4 360.605 735.919 360.462C736.837 360.21 737.693 359.737 738.608 359.46C740.385 358.926 742.162 358.173 743.976 358.049C746.008 357.912 747.493 356.895 749.176 356.046C750.966 355.144 752.964 354.653 754.877 354.006C755.658 353.742 756.449 353.502 757.249 353.307C758.353 353.036 759.387 352.787 760.41 353.789C761.568 354.924 761.223 356.052 760.691 357.178C760.298 358.008 759.816 358.944 759.097 359.442C757.012 360.885 755.568 363.466 752.49 363.267C751.983 363.235 751.439 363.652 750.922 363.882C748.728 364.849 746.525 365.795 744.353 366.802C743.344 367.269 742.429 367.95 741.409 368.382C739.433 369.215 737.407 369.927 735.415 370.723C735.098 370.851 734.855 371.165 734.562 371.367C734.149 371.656 733.75 372.042 733.287 372.175C731.594 372.661 729.863 373.018 728.17 373.503C726.135 374.088 724.554 373.578 723.344 371.886C722.563 370.792 721.769 369.703 720.926 368.655C719.466 366.843 718.072 365.132 718.197 362.495C718.296 360.34 717.534 358.158 717.493 355.981C717.431 352.762 717.624 349.566 718.299 346.36C719.093 342.597 719.183 338.685 719.97 334.92C720.571 332.034 721.769 329.273 722.721 326.462C723.263 324.863 723.702 323.206 724.455 321.71C725.059 320.51 726.011 319.459 726.916 318.439C727.732 317.519 728.731 316.763 729.583 315.871C732.549 312.773 735.823 310.385 740.373 310.158C742.367 310.059 744.346 309.44 746.307 308.955C748.196 308.488 748.955 308.746 750.237 310.252C750.745 310.849 751.507 311.237 752.179 311.685C753.664 312.671 754.018 313.933 753.088 315.376C751.89 317.229 750.751 319.182 748.28 319.608C747.925 321.119 745.121 320.557 745.56 322.814C745.601 323.026 744.888 323.601 744.496 323.635C742.884 323.766 741.356 323.921 739.999 325.006C739.233 325.619 738.39 325.221 737.982 324.316C737.734 323.766 737.637 323.15 737.357 322.152L737.354 322.146Z" fill="#4C8A31"/>
<path d="M608.154 237.133C607.227 237.286 606.742 237.369 606.256 237.447C604.268 237.755 603.767 238.427 604.252 240.414C604.865 242.92 605.512 245.423 606.25 247.895C608.833 256.556 611.462 265.203 614.08 273.854C614.182 274.196 614.335 274.523 614.605 275.222C614.976 274.408 615.24 273.901 615.439 273.366C619.684 261.991 623.91 250.61 628.189 239.251C628.528 238.349 629.244 237.59 629.786 236.766C630.361 237.54 631.124 238.24 631.485 239.105C636.206 250.405 640.867 261.727 645.548 273.042C645.741 273.512 645.977 273.96 646.341 274.728C646.593 274.056 646.768 273.667 646.889 273.263C649.852 263.369 652.808 253.474 655.764 243.576C655.855 243.281 655.923 242.976 655.998 242.674C657.006 238.685 656.72 238.221 652.743 237.357C652.525 237.31 652.332 237.155 652.182 236.71H667.447C667.465 236.856 667.484 237.003 667.506 237.149C666.992 237.267 666.482 237.481 665.969 237.488C663.89 237.506 662.735 238.703 662.072 240.485C660.669 244.26 659.237 248.032 657.952 251.848C654.031 263.496 650.188 275.169 646.26 286.818C645.959 287.716 645.218 288.466 644.68 289.287C644.07 288.531 643.245 287.866 642.884 287.008C638.176 275.816 633.532 264.597 628.868 253.384C628.634 252.821 628.37 252.267 627.959 251.347C627.598 252.19 627.358 252.715 627.147 253.253C622.89 264.068 618.639 274.886 614.369 285.695C614.03 286.56 613.638 287.415 613.152 288.202C612.881 288.64 612.272 289.281 611.982 289.203C611.509 289.075 610.986 288.503 610.812 288.006C609.508 284.305 608.282 280.58 607.037 276.858C603.175 265.303 599.295 253.757 595.47 242.189C594.558 239.431 593.267 237.264 589.921 237.357C589.784 237.36 589.638 237.251 589.504 237.183C589.47 237.164 589.458 237.099 589.436 237.055C590.229 236.346 606.424 236.222 608.154 237.139V237.133Z" fill="#293D33"/>
<path d="M981.709 325.202C982.101 324.91 982.512 324.64 982.885 324.325C985.213 322.385 987.472 320.361 989.878 318.526C991.125 317.575 992.566 316.797 994.029 316.219C996.543 315.221 998.775 313.243 1001.65 313.479C1003.12 313.601 1004.59 314.232 1005.97 314.835C1006.72 315.165 1006.51 317.886 1005.56 318.486C1003.22 319.963 1001.72 322.578 998.881 323.343C998.448 323.461 997.841 323.747 997.589 323.57C996.484 322.789 995.579 323.492 994.549 323.704C990.556 324.521 987.842 326.726 985.981 330.383C984.824 332.656 983.059 334.64 981.46 336.67C979.288 339.429 979.477 342.703 979.44 345.865C979.412 348.369 978.899 350.573 977.672 352.778C977.094 353.817 977.274 355.371 977.377 356.674C977.632 360.005 976.275 362.996 974.277 365.176C972.924 366.653 970.96 368.708 968.193 368.192C967.948 368.145 967.674 368.195 967.425 368.248C964.941 368.777 963.298 367.166 963.781 364.663C963.83 364.411 963.899 364.162 963.974 363.913C964.904 360.807 965.782 357.688 966.796 354.61C967.142 353.558 967.72 352.539 968.389 351.655C969.295 350.461 969.644 348.453 968.884 347.106C967.54 344.718 967.985 342.084 967.888 339.544C967.873 339.161 968.841 338.518 969.441 338.381C970.879 338.051 971.775 337.009 971.635 335.526C971.582 334.963 971.489 334.36 971.635 333.838C971.9 332.874 971.71 332.224 971.15 331.325C970.621 330.476 970.867 329.142 970.773 328.02C970.739 327.618 970.708 327.22 970.661 326.617C969.332 327.239 968.153 327.814 966.949 328.334C966.647 328.464 966.264 328.433 965.919 328.427C965.053 328.411 964.185 328.296 963.323 328.346C961.462 328.452 960.684 327.715 960.971 325.862C961.335 323.505 962.648 321.611 964.4 320.115C965.747 318.965 967.381 318.153 968.847 317.133C970.051 316.293 971.172 315.333 972.37 314.487C973.462 313.712 974.604 313.004 975.746 312.301C975.986 312.151 976.403 312.005 976.602 312.114C978.447 313.106 979.866 311.931 981.326 311.184C982.231 310.721 982.994 310.351 983.819 311.247C984.581 312.077 984.892 312.867 984.307 314.03C983.791 315.059 983.417 316.265 983.392 317.404C983.361 318.722 982.555 319.956 983.153 321.384C983.336 321.825 982.571 322.656 982.25 323.315C981.973 323.878 981.709 324.444 981.438 325.01C981.531 325.075 981.622 325.14 981.715 325.205L981.709 325.202Z" fill="#4C8A31"/>
<path d="M526.574 288.174H506.953L506.904 287.682C507.51 287.586 508.114 287.468 508.724 287.393C510.706 287.144 511.385 286.712 511.559 284.753C511.867 281.311 511.967 277.847 512.085 274.389C512.157 272.321 512.072 270.25 512.104 268.179C512.119 267.128 511.671 266.683 510.619 266.687C503.624 266.702 496.625 266.699 489.629 266.687C488.54 266.687 488.026 267.078 488.057 268.244C488.194 273.31 488.229 278.378 488.409 283.444C488.515 286.37 489.333 287.098 492.29 287.381C493.055 287.452 493.821 287.527 494.583 287.617C494.652 287.626 494.705 287.769 494.764 287.853C493.889 288.55 476.011 288.537 474.947 287.639C475.669 287.542 476.188 287.465 476.711 287.402C478.911 287.147 479.658 286.501 479.792 284.277C479.988 281.028 480.113 277.769 480.125 274.516C480.162 266.239 480.125 257.958 480.109 249.68C480.103 246.549 479.182 245.588 475.986 245.283C475.354 245.224 474.729 245.087 474.103 244.988L474.15 244.531H493.251C493.27 244.671 493.289 244.808 493.307 244.948C492.588 245.091 491.87 245.262 491.145 245.367C489.181 245.656 488.434 246.278 488.362 248.244C488.197 252.892 488.166 257.547 488.061 262.199C488.039 263.154 488.515 263.49 489.386 263.49C496.488 263.49 503.589 263.484 510.688 263.496C511.668 263.496 512.11 263.073 512.091 262.094C511.998 257.492 511.964 252.889 511.814 248.29C511.758 246.58 510.703 245.691 508.733 245.389C507.812 245.249 506.882 245.159 505.957 245.044L506.01 244.512H525.04L525.105 244.929C524.495 245.066 523.892 245.246 523.276 245.336C520.932 245.669 520.235 246.356 520.129 248.747C520.02 251.176 519.961 253.608 519.971 256.036C519.996 264.625 520.058 273.21 520.108 281.799C520.108 282.007 520.114 282.213 520.123 282.421C520.304 286.538 520.957 287.188 525.102 287.424C525.61 287.452 526.111 287.586 526.615 287.673L526.571 288.18L526.574 288.174Z" fill="#293D33"/>
<path d="M736.806 287.558C737.345 287.499 737.883 287.452 738.418 287.381C740.488 287.107 741.281 286.407 741.403 284.305C741.602 280.903 741.726 277.492 741.745 274.084C741.785 266.018 741.745 257.952 741.733 249.882C741.726 246.505 740.877 245.591 737.516 245.265C736.906 245.206 736.308 245.035 735.705 244.916C735.711 244.755 735.717 244.593 735.726 244.434C736.196 244.385 736.666 244.295 737.136 244.295C744.854 244.285 752.578 244.127 760.289 244.36C763.977 244.472 767.755 244.935 771.296 245.927C780.15 248.405 785.397 255.536 785.624 264.712C785.935 277.11 778.547 286.05 766.305 288.254C760.933 289.222 755.578 288.733 750.203 288.528C746.329 288.379 742.448 288.457 738.568 288.404C737.958 288.394 737.354 288.242 736.744 288.155C736.763 287.953 736.785 287.754 736.803 287.552L736.806 287.558ZM749.743 265.25H749.97C749.97 270.368 749.914 275.483 749.992 280.599C750.042 283.817 750.972 285.058 754.174 285.54C756.857 285.944 759.639 286.022 762.352 285.857C769.544 285.422 774.912 280.944 776.428 274.181C776.898 272.079 777.103 269.886 777.156 267.728C777.402 257.678 772.024 250.333 762.399 248.063C759.132 247.292 755.64 247.351 752.245 247.27C750.076 247.221 749.749 247.752 749.743 249.886C749.733 255.007 749.743 260.125 749.743 265.247V265.25Z" fill="#293D33"/>
<path d="M435.73 287.598C436.259 287.536 436.785 287.462 437.314 287.409C440.118 287.135 440.886 286.426 441.182 283.568C441.375 281.718 441.515 279.856 441.521 277.996C441.559 265.89 441.555 253.782 441.562 241.676C441.562 241.225 441.499 240.775 441.465 240.293C439.053 240.293 436.741 240.246 434.429 240.305C432.257 240.361 430.088 240.523 427.919 240.656C425.541 240.799 424.2 242.233 423.394 244.326C423.217 244.786 422.993 245.224 422.79 245.675H422.345C422.224 245.206 421.938 244.705 422.012 244.267C422.46 241.673 422.952 239.086 423.55 236.524C423.637 236.157 424.408 235.672 424.832 235.703C428.479 235.967 432.114 236.586 435.758 236.629C444.876 236.738 453.997 236.62 463.118 236.539C464.506 236.527 465.885 236.169 467.276 236.095C467.655 236.076 468.405 236.511 468.405 236.735C468.396 239.733 468.287 242.727 468.188 245.722C468.181 245.902 468.038 246.076 467.761 246.683C467.447 245.877 467.12 245.42 467.114 244.957C467.089 242.684 465.682 241.443 463.744 241.098C460.856 240.585 457.906 240.414 454.971 240.199C453.39 240.084 451.791 240.177 450.082 240.177C450.039 240.924 449.97 241.533 449.97 242.146C449.964 251.82 449.923 261.497 449.986 271.171C450.014 275.303 450.204 279.439 450.421 283.565C450.555 286.081 451.479 286.917 453.96 287.191C455.148 287.322 456.337 287.474 457.747 287.642C456.72 288.454 436.881 288.556 435.72 287.595L435.73 287.598Z" fill="#293D33"/>
<path d="M564.472 244.005C564.151 246.863 563.849 249.571 563.523 252.28C563.504 252.423 563.249 252.535 562.885 252.855C562.754 252.165 562.654 251.695 562.58 251.216C562.275 249.254 561.338 248.088 559.421 247.936C556.02 247.665 552.6 247.575 549.183 247.519C548.831 247.513 548.165 248.253 548.159 248.654C548.084 253.104 548.112 257.554 548.109 262.004C548.109 262.79 548.38 263.278 549.282 263.263C552.6 263.207 555.92 263.288 559.228 263.089C560.544 263.011 561.827 262.339 563.467 261.829C563.177 264.955 562.878 268.167 562.583 271.376L562.02 271.41C561.898 270.956 561.718 270.505 561.662 270.042C561.375 267.713 560.551 266.721 558.301 266.565C555.307 266.357 552.298 266.351 549.295 266.233C548.383 266.195 548.109 266.693 548.112 267.476C548.122 271.873 548.047 276.276 548.181 280.67C548.265 283.404 549.404 284.71 552.136 284.965C554.896 285.223 557.703 285.114 560.479 284.977C562.953 284.856 564.223 283.251 564.727 280.938C564.839 280.418 565.026 279.915 565.293 279.019C565.62 279.641 565.869 279.887 565.847 280.111C565.626 282.471 565.421 284.834 565.082 287.179C564.923 288.289 564.014 288.572 562.969 288.55C558.307 288.454 553.645 288.342 548.984 288.31C544.994 288.286 541.004 288.376 537.018 288.385C536.402 288.385 535.786 288.233 535.173 288.149L535.163 287.633C535.72 287.549 536.274 287.455 536.831 287.378C538.901 287.098 539.694 286.389 539.822 284.299C540.015 281.103 540.146 277.893 540.161 274.691C540.198 266.307 540.164 257.924 540.146 249.54C540.139 246.577 539.187 245.579 536.218 245.287C535.531 245.218 534.846 245.103 534.158 245.007C534.149 244.845 534.139 244.683 534.13 244.522C534.665 244.441 535.201 244.288 535.736 244.291C543.251 244.326 550.767 244.41 558.279 244.406C560.277 244.406 562.278 244.148 564.466 243.996L564.472 244.005Z" fill="#293D33"/>
<path d="M717.54 245.013C716.644 245.134 715.745 245.265 714.845 245.374C712.882 245.61 712.141 246.257 712.026 248.203C711.858 251.039 711.758 253.884 711.749 256.727C711.727 263.608 711.743 270.489 711.814 277.374C711.83 278.966 712.1 280.555 712.3 282.141C712.468 283.487 713.333 284.47 714.59 284.542C718.343 284.75 722.118 284.93 725.868 284.747C728.217 284.632 729.306 282.698 729.879 280.558C730.013 280.061 730.206 279.579 730.371 279.091L730.828 279.143C730.894 279.607 731.049 280.079 731.009 280.533C730.844 282.331 730.67 284.131 730.402 285.916C730.063 288.174 729.621 288.556 727.371 288.534C722.709 288.485 718.047 288.351 713.386 288.317C709.085 288.286 704.784 288.342 700.483 288.338C699.92 288.338 699.357 288.205 698.794 288.13C698.8 287.965 698.803 287.804 698.809 287.639C699.27 287.561 699.727 287.465 700.191 287.412C702.621 287.135 703.343 286.482 703.483 283.973C703.673 280.617 703.785 277.256 703.801 273.898C703.838 265.981 703.798 258.064 703.788 250.147C703.785 246.453 703.172 245.756 699.519 245.252C699.089 245.193 698.669 245.053 698.134 244.923C699.096 244.158 716.258 244.052 717.549 245.016L717.54 245.013Z" fill="#293D33"/>
<path d="M1089.88 279.153C1089.92 279.883 1090.05 280.62 1089.98 281.339C1089.83 282.931 1089.62 284.52 1089.37 286.1C1089.04 288.115 1088.55 288.55 1086.47 288.525C1080.21 288.457 1073.93 288.317 1067.67 288.254C1064.92 288.226 1062.17 288.326 1059.43 288.335C1058.88 288.335 1058.33 288.189 1057.79 288.111C1057.79 287.943 1057.8 287.776 1057.8 287.605C1058.32 287.533 1058.84 287.458 1059.36 287.393C1061.52 287.123 1062.31 286.426 1062.44 284.24C1062.64 280.835 1062.76 277.421 1062.78 274.01C1062.81 265.99 1062.78 257.967 1062.76 249.948C1062.76 246.502 1062.04 245.697 1058.61 245.255C1058.13 245.193 1057.67 245.059 1057.2 244.957C1057.21 244.814 1057.23 244.671 1057.25 244.528H1076.52C1076.54 244.696 1076.56 244.867 1076.58 245.035C1075.65 245.147 1074.72 245.262 1073.79 245.374C1071.86 245.607 1071.1 246.266 1071.01 248.231C1070.84 251.639 1070.72 255.054 1070.74 258.465C1070.77 265.81 1070.85 273.154 1071.03 280.496C1071.1 283.571 1072.05 284.626 1075.13 284.871C1078.11 285.108 1081.14 285.089 1084.13 284.927C1086.71 284.787 1088.18 283.239 1088.87 280.521C1088.98 280.051 1089.13 279.591 1089.27 279.125L1089.87 279.153H1089.88Z" fill="#293D33"/>
<path d="M921.34 244.506H939.607C939.626 244.652 939.644 244.795 939.663 244.941C938.994 245.081 938.331 245.258 937.656 245.352C935.568 245.647 934.908 246.232 934.752 248.281C934.6 250.287 934.506 252.305 934.516 254.317C934.565 263.931 934.612 273.543 934.768 283.155C934.824 286.56 935.62 287.197 939.09 287.406C939.803 287.449 940.512 287.555 941.222 287.633C941.206 287.813 941.194 287.993 941.178 288.174H921.576C921.557 288.003 921.542 287.832 921.523 287.661C922.127 287.567 922.731 287.468 923.337 287.384C925.404 287.098 926.079 286.507 926.204 284.42C926.39 281.277 926.515 278.123 926.527 274.973C926.561 266.494 926.53 258.014 926.509 249.534C926.499 246.446 925.79 245.688 922.653 245.252C922.214 245.19 921.785 245.072 921.349 244.979L921.34 244.506Z" fill="#293D33"/>
<path d="M670.325 244.465H688.549L688.627 244.891C688.085 245.031 687.553 245.221 687.005 245.299C684.323 245.684 683.856 246.076 683.654 248.81C683.48 251.176 683.424 253.558 683.439 255.934C683.501 265.082 683.579 274.23 683.725 283.379C683.772 286.379 684.491 287.032 687.494 287.359C688.378 287.455 689.265 287.521 690.407 287.623C689.262 288.534 671.39 288.534 670.282 287.642C671.069 287.536 671.638 287.458 672.208 287.387C674.377 287.11 675.04 286.538 675.161 284.349C675.351 280.997 675.469 277.638 675.485 274.283C675.522 266.27 675.451 258.256 675.485 250.24C675.5 246.735 674.76 245.286 671.234 245.196C670.913 245.187 670.596 245.007 670.279 244.907C670.294 244.761 670.31 244.612 670.328 244.465H670.325Z" fill="#293D33"/>
<path d="M538.683 249.217V267.007C537.616 266.668 536.526 266.058 535.425 266.04C534.286 266.018 533.134 266.568 532.014 266.861C532.02 269.205 529.574 271.926 527.343 272.377C526.537 272.542 525.796 273.129 525.078 273.599C523.92 274.355 522.803 275.176 521.514 276.077C521.514 272.75 521.521 269.631 521.514 266.512C521.508 263.869 522.199 262.986 524.757 262.255C525.112 262.153 525.414 261.82 525.703 261.553C526.826 260.517 527.965 259.5 529.036 258.409C529.798 257.631 530.415 256.714 531.174 255.934C531.802 255.29 532.565 254.774 533.24 254.17C535.033 252.557 536.81 250.927 538.689 249.214L538.683 249.217Z" fill="#4C8A31"/>
<path d="M549.709 255.368C549.709 253.611 549.718 251.854 549.706 250.097C549.699 249.351 549.942 248.943 550.785 248.984C553.471 249.117 556.16 249.161 558.839 249.338C560.352 249.438 561.148 250.361 561.148 251.907C561.148 252.911 561.378 253.72 562.508 254.062C562.766 254.139 563.025 254.668 563.047 255.007C563.115 256.008 563.056 257.019 563.062 258.026C563.071 259.87 561.718 261.416 559.844 261.512C556.851 261.665 553.851 261.702 550.857 261.832C549.939 261.873 549.687 261.459 549.699 260.638C549.724 258.881 549.706 257.125 549.709 255.368Z" fill="#4C8A31"/>
<path d="M549.706 282.125C549.706 277.704 549.724 273.465 549.693 269.23C549.687 268.254 549.998 267.812 551.034 267.868C553.511 267.999 555.995 268.042 558.472 268.173C559.664 268.235 560.124 268.997 560.227 270.138C560.302 270.953 560.582 271.746 560.772 272.551C561.011 272.679 561.251 272.806 561.491 272.934C560.79 273.447 560.162 274.14 559.381 274.439C556.826 275.421 555.379 277.483 554.131 279.681C553.163 281.382 551.697 281.898 549.709 282.125H549.706Z" fill="#4C8A31"/>
<path d="M548.112 242.945C549.195 242.189 549.936 241.57 550.776 241.144C551.122 240.97 551.884 241.036 552.108 241.294C553.088 242.432 554.243 242.506 555.587 242.248C556.001 242.168 556.493 242.469 556.848 242.945H548.112Z" fill="#4C8A31"/>
</g>
<defs>
<clipPath id="clip0_215_1425">
<rect width="1512" height="600" fill="white"/>
</clipPath>
</defs>
</svg>
