<svg width="264" height="52" viewBox="0 0 264 52" fill="none" xmlns="http://www.w3.org/2000/svg">
<path d="M49.2604 2.74878H2.74878V49.2604H49.2604V2.74878Z" stroke="#1E1E1E" stroke-width="3.75" stroke-miterlimit="10"/>
<path d="M16.0698 2.74878L20.721 10.1441" stroke="#1E1E1E" stroke-width="3.75" stroke-miterlimit="10"/>
<path d="M27.772 49.2604L28.7766 41.9209" stroke="#1E1E1E" stroke-width="3.75" stroke-miterlimit="10"/>
<path d="M26.0048 32.2186C25.8931 33.2047 25.8652 34.4977 26.1257 35.9768C26.628 38.8326 27.9583 40.8512 28.7862 41.921L34.935 36.7117L31.8466 29.1675L38.8048 24.8047C38.8048 24.8047 31.4559 14.0698 19.0001 9.2605C19.0001 9.2605 17.9397 14.2186 17.5583 16.9442C16.4513 24.7024 16.5071 31.707 17.028 37.5861C20.0234 35.8 23.0094 34.014 26.0048 32.2186Z" stroke="#1E1E1E" stroke-width="3.75" stroke-miterlimit="10"/>
<path d="M81.8855 35.0593C80.9636 35.4656 79.5378 35.8289 77.6082 36.1492C75.8425 36.446 74.3933 36.5945 73.2605 36.5945C71.3464 36.5945 70.3894 35.7546 70.3894 34.075C70.3894 34.2078 70.4675 32.9695 70.6238 30.3601C70.8269 26.9695 70.9285 23.196 70.9285 19.0398C70.9285 18.5945 71.0808 18.2156 71.3855 17.9031C71.698 17.5906 72.0886 17.4343 72.5574 17.4343C73.0261 17.4343 73.4167 17.5906 73.7292 17.9031C74.0417 18.2156 74.198 18.5945 74.198 19.0398C74.198 23.2039 74.0925 27.0398 73.8816 30.5476C73.8113 31.1726 73.7371 32.1296 73.6589 33.4187C75.5105 33.3875 77.8855 32.9343 80.7839 32.0593C80.9636 32.0046 81.1355 31.9773 81.2996 31.9773C81.7917 31.9773 82.1902 32.157 82.4949 32.5164C82.7683 32.8367 82.905 33.196 82.905 33.5945C82.905 34.2664 82.5652 34.7546 81.8855 35.0593ZM89.9949 36.0437C88.1277 36.0437 86.6003 35.5984 85.4128 34.7078C84.1003 33.7234 83.4441 32.3367 83.4441 30.5476C83.4441 28.571 83.9636 26.8992 85.0027 25.532C86.1589 24.0164 87.7175 23.2585 89.6785 23.2585C91.0378 23.2585 92.1667 23.4773 93.0652 23.9148C94.2449 24.4929 94.8347 25.3914 94.8347 26.6101C94.8347 27.4695 94.3542 28.2312 93.3933 28.8953C92.9558 29.2 92.0769 29.6453 90.7566 30.2312L86.8074 31.9773C87.1824 32.3835 87.6355 32.6882 88.1667 32.8914C88.698 33.0945 89.3074 33.196 89.9949 33.196C91.0417 33.196 91.9285 32.9812 92.655 32.5515C93.3035 32.1687 93.823 31.9773 94.2136 31.9773C95.0261 31.9773 95.4324 32.3718 95.4324 33.1609C95.4324 34.0515 94.78 34.7781 93.4753 35.3406C92.3816 35.8093 91.2214 36.0437 89.9949 36.0437ZM89.6785 26.0945C88.9519 26.0945 88.3308 26.3367 87.8152 26.821C87.2996 27.3054 86.8855 28.032 86.573 29.0007C87.4558 28.6179 88.3347 28.239 89.2097 27.864C90.2644 27.3875 91.1042 26.946 91.7292 26.5398C91.2058 26.2429 90.5222 26.0945 89.6785 26.0945ZM105.768 26.9265C104.995 26.9265 104.53 26.6023 104.374 25.9539C104.061 25.8992 103.741 25.8718 103.413 25.8718C101.53 25.8718 100.589 26.1296 100.589 26.6453C100.589 26.95 101.155 27.3601 102.288 27.8757C103.835 28.5867 104.882 29.1414 105.428 29.5398C106.561 30.3601 107.128 31.2859 107.128 32.3171C107.128 33.6609 106.503 34.6804 105.253 35.3757C104.245 35.9304 103.007 36.2078 101.538 36.2078C100.499 36.2078 99.5496 36.0476 98.6902 35.7273C97.5183 35.2898 96.9324 34.6453 96.9324 33.7937C96.9324 33.0125 97.3972 32.6218 98.3269 32.6218C98.6863 32.6218 99.2058 32.7351 99.8855 32.9617C100.565 33.1882 101.089 33.3015 101.456 33.3015C103.042 33.3015 103.839 32.9812 103.846 32.3406C103.846 31.9421 103.296 31.5007 102.194 31.0164C100.585 30.3054 99.5535 29.7937 99.1003 29.4812C97.9988 28.7078 97.448 27.7664 97.448 26.657C97.448 25.0867 98.28 24.0281 99.9441 23.4812C100.921 23.1609 102.405 23.0007 104.397 23.0007C105.178 23.0007 105.757 23.1023 106.132 23.3054C106.647 23.5789 106.905 24.0828 106.905 24.8171C106.905 26.2234 106.526 26.9265 105.768 26.9265ZM112.823 33.782C112.823 35.2664 112.284 36.0085 111.206 36.0085C110.737 36.0085 110.35 35.8601 110.046 35.5632C109.741 35.2664 109.589 34.8835 109.589 34.4148V18.2078C109.589 17.7546 109.753 17.3835 110.081 17.0945C110.393 16.8289 110.78 16.696 111.241 16.696C111.702 16.696 112.081 16.8367 112.378 17.1179C112.675 17.3914 112.823 17.7546 112.823 18.2078V33.782ZM118.471 21.4187C117.971 21.4187 117.538 21.2507 117.171 20.9148C116.803 20.5789 116.62 20.1687 116.62 19.6843C116.62 19.2 116.803 18.7898 117.171 18.4539C117.538 18.1179 117.971 17.95 118.471 17.95C118.971 17.95 119.401 18.1179 119.76 18.4539C120.128 18.7898 120.311 19.2 120.311 19.6843C120.311 20.1687 120.128 20.5789 119.76 20.9148C119.401 21.2507 118.971 21.4187 118.471 21.4187ZM119.468 30.0085C119.468 30.4539 119.479 31.1687 119.503 32.1531C119.534 33.1375 119.55 33.8523 119.55 34.2976C119.55 34.7507 119.397 35.1257 119.093 35.4226C118.788 35.7117 118.401 35.8562 117.932 35.8562C117.464 35.8562 117.077 35.7117 116.772 35.4226C116.468 35.1257 116.315 34.7507 116.315 34.2976C116.315 33.8523 116.3 33.1375 116.268 32.1531C116.245 31.1687 116.233 30.4539 116.233 30.0085C116.233 29.3132 116.272 28.4421 116.35 27.3953C116.428 26.3484 116.468 25.4773 116.468 24.782C116.468 24.3289 116.62 23.9578 116.925 23.6687C117.229 23.3718 117.616 23.2234 118.085 23.2234C118.553 23.2234 118.94 23.3718 119.245 23.6687C119.55 23.9578 119.702 24.3289 119.702 24.782C119.702 25.4773 119.663 26.3484 119.585 27.3953C119.507 28.4421 119.468 29.3132 119.468 30.0085ZM128.432 36.0437C126.565 36.0437 125.038 35.5984 123.85 34.7078C122.538 33.7234 121.882 32.3367 121.882 30.5476C121.882 28.571 122.401 26.8992 123.44 25.532C124.596 24.0164 126.155 23.2585 128.116 23.2585C129.475 23.2585 130.604 23.4773 131.503 23.9148C132.682 24.4929 133.272 25.3914 133.272 26.6101C133.272 27.4695 132.792 28.2312 131.831 28.8953C131.393 29.2 130.514 29.6453 129.194 30.2312L125.245 31.9773C125.62 32.3835 126.073 32.6882 126.604 32.8914C127.135 33.0945 127.745 33.196 128.432 33.196C129.479 33.196 130.366 32.9812 131.093 32.5515C131.741 32.1687 132.26 31.9773 132.651 31.9773C133.464 31.9773 133.87 32.3718 133.87 33.1609C133.87 34.0515 133.218 34.7781 131.913 35.3406C130.819 35.8093 129.659 36.0437 128.432 36.0437ZM128.116 26.0945C127.389 26.0945 126.768 26.3367 126.253 26.821C125.737 27.3054 125.323 28.032 125.01 29.0007C125.893 28.6179 126.772 28.239 127.647 27.864C128.702 27.3875 129.542 26.946 130.167 26.5398C129.643 26.2429 128.96 26.0945 128.116 26.0945ZM158.163 20.4812C158.007 20.4812 157.843 20.4578 157.671 20.4109C156.405 20.0671 155.175 19.8953 153.979 19.8953C153.393 19.8953 152.764 19.9421 152.093 20.0359C151.421 20.1296 150.706 20.2703 149.948 20.4578C149.948 21.4968 149.913 23.0398 149.843 25.0867C150.28 25.0554 151.807 24.9109 154.425 24.6531C155.917 24.5046 156.862 24.4304 157.26 24.4304C157.721 24.4304 158.116 24.5789 158.444 24.8757C158.772 25.1648 158.936 25.5515 158.936 26.0359C158.936 26.9656 158.44 27.4929 157.448 27.6179C156.823 27.6648 155.889 27.7429 154.647 27.8523C153.538 27.9773 151.866 28.1296 149.632 28.3093C149.577 29.3015 149.55 30.1023 149.55 30.7117C149.55 32.2429 149.639 33.114 149.819 33.325C149.905 33.4265 150.397 33.4773 151.296 33.4773C151.78 33.4773 152.51 33.4656 153.487 33.4421C154.464 33.4187 155.194 33.407 155.678 33.407C155.835 33.407 156.065 33.3835 156.37 33.3367C156.675 33.2898 156.901 33.2664 157.05 33.2664C157.503 33.2664 157.889 33.3953 158.21 33.6531C158.577 33.9421 158.76 34.3484 158.76 34.8718C158.76 35.7468 158.303 36.2703 157.389 36.4421C156.608 36.5906 154.987 36.6648 152.526 36.6648C149.979 36.6648 148.319 36.321 147.546 35.6335C146.694 34.8757 146.268 33.2351 146.268 30.7117C146.268 29.6648 146.343 28.0945 146.491 26.0007C146.647 23.8992 146.725 22.3289 146.725 21.2898C146.725 21.0164 146.686 20.614 146.608 20.0828C146.53 19.5437 146.491 19.1375 146.491 18.864C146.491 17.6765 147.038 17.0828 148.132 17.0828C148.475 17.0828 148.792 17.1804 149.081 17.3757C149.987 17.1492 150.846 16.9812 151.659 16.8718C152.479 16.7546 153.253 16.696 153.979 16.696C155.948 16.696 157.522 16.9226 158.702 17.3757C159.421 17.6492 159.78 18.1453 159.78 18.864C159.78 19.2703 159.639 19.6296 159.358 19.9421C159.046 20.3015 158.647 20.4812 158.163 20.4812ZM169.612 26.9265C168.839 26.9265 168.374 26.6023 168.218 25.9539C167.905 25.8992 167.585 25.8718 167.257 25.8718C165.374 25.8718 164.432 26.1296 164.432 26.6453C164.432 26.95 164.999 27.3601 166.132 27.8757C167.678 28.5867 168.725 29.1414 169.272 29.5398C170.405 30.3601 170.971 31.2859 170.971 32.3171C170.971 33.6609 170.346 34.6804 169.096 35.3757C168.089 35.9304 166.85 36.2078 165.382 36.2078C164.343 36.2078 163.393 36.0476 162.534 35.7273C161.362 35.2898 160.776 34.6453 160.776 33.7937C160.776 33.0125 161.241 32.6218 162.171 32.6218C162.53 32.6218 163.05 32.7351 163.729 32.9617C164.409 33.1882 164.932 33.3015 165.3 33.3015C166.885 33.3015 167.682 32.9812 167.69 32.3406C167.69 31.9421 167.139 31.5007 166.038 31.0164C164.428 30.3054 163.397 29.7937 162.944 29.4812C161.843 28.7078 161.292 27.7664 161.292 26.657C161.292 25.0867 162.124 24.0281 163.788 23.4812C164.764 23.1609 166.249 23.0007 168.241 23.0007C169.022 23.0007 169.6 23.1023 169.975 23.3054C170.491 23.5789 170.749 24.0828 170.749 24.8171C170.749 26.2234 170.37 26.9265 169.612 26.9265ZM176.093 25.1335C177.272 23.7664 178.389 23.0828 179.444 23.0828C180.647 23.0828 181.53 23.5398 182.093 24.4539C182.569 24.032 183.096 23.7156 183.675 23.5046C184.253 23.2937 184.878 23.1882 185.55 23.1882C187.081 23.1882 188.12 23.95 188.667 25.4734C188.776 25.7859 188.944 26.8445 189.171 28.6492C189.389 29.9148 189.671 32.0242 190.014 34.9773C190.046 35.4226 189.893 35.7898 189.557 36.0789C189.221 36.3679 188.827 36.5125 188.374 36.5125C187.475 36.5125 186.948 36.0671 186.792 35.1765C186.651 34.3718 186.507 33.2351 186.358 31.7664C186.202 30.157 186.073 29.0164 185.971 28.3445C185.76 26.946 185.491 26.2468 185.163 26.2468C184.983 26.2468 184.573 26.4265 183.932 26.7859C183.292 27.1453 182.823 27.4539 182.526 27.7117C182.526 28.6023 182.632 29.8835 182.843 31.5554C183.061 33.2664 183.171 34.5476 183.171 35.3992C183.171 35.8445 183.018 36.2156 182.714 36.5125C182.409 36.8093 182.022 36.9578 181.553 36.9578C181.085 36.9578 180.698 36.8093 180.393 36.5125C180.089 36.2156 179.936 35.8445 179.936 35.3992C179.936 34.5085 179.839 33.2 179.643 31.4734C179.456 29.739 179.362 28.4265 179.362 27.5359C179.362 27.0359 179.319 26.6375 179.233 26.3406C178.327 26.864 177.417 27.7351 176.503 28.9539C176.464 29.0085 176.397 29.0906 176.303 29.2C176.272 30.7781 176.257 32.0164 176.257 32.9148C176.257 33.1335 176.249 33.4304 176.233 33.8054C176.218 34.1726 176.21 34.446 176.21 34.6257C176.21 35.0476 176.038 35.3796 175.694 35.6218C175.382 35.8484 174.995 35.9617 174.534 35.9617C173.87 35.9617 173.421 35.6726 173.186 35.0945C173.022 34.7039 172.94 34.0828 172.94 33.2312V28.8718C172.94 28.4812 172.925 27.9109 172.893 27.1609C172.862 26.4031 172.846 25.8289 172.846 25.4382C172.846 24.7429 172.971 24.114 173.221 23.5515C173.526 22.8484 173.956 22.4968 174.51 22.4968C174.948 22.4968 175.339 22.6687 175.682 23.0125C176.026 23.3484 176.198 23.7195 176.198 24.1257C176.198 23.9617 176.163 24.2976 176.093 25.1335ZM197.62 36.0437C195.753 36.0437 194.225 35.5984 193.038 34.7078C191.725 33.7234 191.069 32.3367 191.069 30.5476C191.069 28.571 191.589 26.8992 192.628 25.532C193.784 24.0164 195.343 23.2585 197.303 23.2585C198.663 23.2585 199.792 23.4773 200.69 23.9148C201.87 24.4929 202.46 25.3914 202.46 26.6101C202.46 27.4695 201.979 28.2312 201.018 28.8953C200.581 29.2 199.702 29.6453 198.382 30.2312L194.432 31.9773C194.807 32.3835 195.26 32.6882 195.792 32.8914C196.323 33.0945 196.932 33.196 197.62 33.196C198.667 33.196 199.553 32.9812 200.28 32.5515C200.928 32.1687 201.448 31.9773 201.839 31.9773C202.651 31.9773 203.057 32.3718 203.057 33.1609C203.057 34.0515 202.405 34.7781 201.1 35.3406C200.007 35.8093 198.846 36.0437 197.62 36.0437ZM197.303 26.0945C196.577 26.0945 195.956 26.3367 195.44 26.821C194.925 27.3054 194.51 28.032 194.198 29.0007C195.081 28.6179 195.96 28.239 196.835 27.864C197.889 27.3875 198.729 26.946 199.354 26.5398C198.831 26.2429 198.147 26.0945 197.303 26.0945ZM214.964 27.0554C214.893 28.2507 214.35 28.8484 213.335 28.8484C212.35 28.8484 211.858 28.3406 211.858 27.325L211.8 26.1414C210.042 26.4226 208.784 27.325 208.026 28.8484L208.038 34.7429C208.038 35.1882 207.885 35.5554 207.581 35.8445C207.276 36.1414 206.889 36.2898 206.421 36.2898C205.936 36.2898 205.561 36.1335 205.296 35.821C205.046 35.5398 204.921 35.1804 204.921 34.7429V27.0671C204.921 26.825 204.928 26.4656 204.944 25.989C204.96 25.5046 204.968 25.1414 204.968 24.8992C204.968 24.4617 205.096 24.0984 205.354 23.8093C205.62 23.5125 205.995 23.364 206.479 23.364C207.346 23.364 207.862 23.8093 208.026 24.7C209.409 23.6687 210.944 23.1531 212.632 23.1531C214.194 23.1531 214.975 24.1921 214.975 26.2703C214.975 26.6687 214.971 26.9304 214.964 27.0554ZM226.788 36.2781C226.428 36.2781 225.858 35.8875 225.077 35.1062C224.358 35.45 223.725 35.7078 223.178 35.8796C222.632 36.0593 222.167 36.1492 221.784 36.1492C219.901 36.1492 218.487 35.6453 217.542 34.6375C216.604 33.6296 216.135 32.1218 216.135 30.114C216.135 28.2312 216.831 26.6218 218.221 25.2859C219.612 23.9421 221.276 23.2703 223.214 23.2703C223.956 23.2703 224.815 23.4812 225.792 23.9031C226.971 24.4109 227.561 25.0007 227.561 25.6726C227.561 25.9539 227.471 26.2 227.292 26.4109C227.214 26.7234 227.151 27.1179 227.104 27.5945C227.065 28.0632 227.046 28.614 227.046 29.2468C227.046 30.739 227.151 31.8132 227.362 32.4695C227.385 32.5398 227.565 32.946 227.901 33.6882C228.206 34.3601 228.358 34.7429 228.358 34.8367C228.358 35.2507 228.198 35.5945 227.878 35.8679C227.565 36.1414 227.202 36.2781 226.788 36.2781ZM223.882 28.239C223.882 27.989 223.897 27.7039 223.928 27.3835C223.968 27.0554 224.022 26.6921 224.093 26.2937C223.936 26.2156 223.796 26.1609 223.671 26.1296C223.553 26.0906 223.452 26.071 223.366 26.071C222.303 26.071 221.374 26.489 220.577 27.325C219.78 28.1531 219.382 29.114 219.382 30.2078C219.382 31.2546 219.569 32.0437 219.944 32.575C220.319 33.0984 220.882 33.3601 221.632 33.3601C222.116 33.3601 222.573 33.282 223.003 33.1257C223.44 32.9617 223.85 32.7234 224.233 32.4109C223.999 30.5515 223.882 29.1609 223.882 28.239ZM233.62 33.782C233.62 35.2664 233.081 36.0085 232.003 36.0085C231.534 36.0085 231.147 35.8601 230.843 35.5632C230.538 35.2664 230.385 34.8835 230.385 34.4148V18.2078C230.385 17.7546 230.55 17.3835 230.878 17.0945C231.19 16.8289 231.577 16.696 232.038 16.696C232.499 16.696 232.878 16.8367 233.175 17.1179C233.471 17.3914 233.62 17.7546 233.62 18.2078V33.782ZM245.175 23.7273C245.276 21.0632 245.397 19.2234 245.538 18.2078C245.671 17.2859 246.178 16.825 247.061 16.825C247.522 16.825 247.893 16.9734 248.175 17.2703C248.456 17.5671 248.596 17.9304 248.596 18.3601C248.596 19.4929 248.507 21.1804 248.327 23.4226C248.155 25.6648 248.069 27.3523 248.069 28.4851C248.069 31.2507 248.159 33.1023 248.339 34.0398C248.362 34.1648 248.374 34.2781 248.374 34.3796C248.374 34.8093 248.218 35.1648 247.905 35.446C247.593 35.7195 247.229 35.8562 246.815 35.8562C246.237 35.8562 245.807 35.5984 245.526 35.0828C244.995 35.4031 244.444 35.6414 243.874 35.7976C243.303 35.9617 242.714 36.0437 242.104 36.0437C240.354 36.0437 238.901 35.4851 237.745 34.3679C236.565 33.2273 235.975 31.7742 235.975 30.0085C235.975 27.907 236.569 26.2117 237.757 24.9226C238.944 23.6257 240.495 22.9773 242.409 22.9773C242.995 22.9773 243.518 23.0398 243.979 23.1648C244.44 23.2898 244.839 23.4773 245.175 23.7273ZM244.94 27.4187C244.682 26.9265 244.346 26.5593 243.932 26.3171C243.518 26.075 243.026 25.9539 242.456 25.9539C241.3 25.9539 240.432 26.2898 239.854 26.9617C239.276 27.6257 238.987 28.6257 238.987 29.9617C238.987 30.8054 239.3 31.5281 239.925 32.1296C240.55 32.7312 241.276 33.032 242.104 33.032C242.706 33.032 243.163 32.9617 243.475 32.821C243.686 32.7273 244.046 32.4773 244.553 32.071C244.686 31.9617 244.815 31.8406 244.94 31.7078C244.925 31.3328 244.925 29.9031 244.94 27.4187ZM260.819 36.2781C260.46 36.2781 259.889 35.8875 259.108 35.1062C258.389 35.45 257.757 35.7078 257.21 35.8796C256.663 36.0593 256.198 36.1492 255.815 36.1492C253.932 36.1492 252.518 35.6453 251.573 34.6375C250.635 33.6296 250.167 32.1218 250.167 30.114C250.167 28.2312 250.862 26.6218 252.253 25.2859C253.643 23.9421 255.307 23.2703 257.245 23.2703C257.987 23.2703 258.846 23.4812 259.823 23.9031C261.003 24.4109 261.593 25.0007 261.593 25.6726C261.593 25.9539 261.503 26.2 261.323 26.4109C261.245 26.7234 261.182 27.1179 261.135 27.5945C261.096 28.0632 261.077 28.614 261.077 29.2468C261.077 30.739 261.182 31.8132 261.393 32.4695C261.417 32.5398 261.596 32.946 261.932 33.6882C262.237 34.3601 262.389 34.7429 262.389 34.8367C262.389 35.2507 262.229 35.5945 261.909 35.8679C261.596 36.1414 261.233 36.2781 260.819 36.2781ZM257.913 28.239C257.913 27.989 257.928 27.7039 257.96 27.3835C257.999 27.0554 258.053 26.6921 258.124 26.2937C257.968 26.2156 257.827 26.1609 257.702 26.1296C257.585 26.0906 257.483 26.071 257.397 26.071C256.335 26.071 255.405 26.489 254.608 27.325C253.811 28.1531 253.413 29.114 253.413 30.2078C253.413 31.2546 253.6 32.0437 253.975 32.575C254.35 33.0984 254.913 33.3601 255.663 33.3601C256.147 33.3601 256.604 33.282 257.034 33.1257C257.471 32.9617 257.882 32.7234 258.264 32.4109C258.03 30.5515 257.913 29.1609 257.913 28.239Z" fill="#1E1E1E"/>
</svg>
