<?xml version="1.0" encoding="UTF-8"?><svg id="Layer_2" xmlns="http://www.w3.org/2000/svg" viewBox="0 0 1025.46 1113.07"><defs><style>.cls-1,.cls-2{fill:#fff;}.cls-3{fill:#4d4d4d;}.cls-2{stroke:#1e1e1e;stroke-miterlimit:10;}.cls-4{fill:#afafaf;}.cls-5{fill:#1e1e1e;}</style></defs><g id="Layer_2-2"><g><g><circle class="cls-4" cx="515.42" cy="603.02" r="393.37" transform="translate(-275.44 541.08) rotate(-45)"/><g><path class="cls-5" d="m333.73,139.87c-2.63,0-5.11-1.59-6.12-4.19-1.31-3.38.37-7.17,3.75-8.48,8.22-3.18,16.64-6.19,25.02-8.94,3.44-1.13,7.14.75,8.27,4.19,1.13,3.44-.75,7.14-4.19,8.27-8.16,2.68-16.36,5.61-24.37,8.71-.78.3-1.58.44-2.37.44Z"/><path class="cls-5" d="m84.37,349.23c-1.16,0-2.33-.31-3.39-.95-3.1-1.88-4.09-5.91-2.21-9,9.62-15.89,20.23-31.43,31.54-46.2,2.2-2.87,6.32-3.42,9.19-1.22,2.87,2.2,3.42,6.32,1.22,9.19-11.02,14.39-21.36,29.53-30.74,45.01-1.23,2.04-3.4,3.16-5.61,3.16Zm67.07-87.54c-1.63,0-3.26-.6-4.53-1.82-2.62-2.5-2.71-6.65-.21-9.27,12.84-13.44,26.57-26.31,40.8-38.27,2.77-2.33,6.91-1.97,9.24.8,2.33,2.77,1.97,6.91-.8,9.24-13.87,11.65-27.25,24.2-39.76,37.29-1.29,1.35-3.01,2.03-4.74,2.03Zm84.45-70.94c-2.12,0-4.19-1.02-5.46-2.91-2.01-3.01-1.2-7.08,1.81-9.09,15.47-10.34,31.66-19.93,48.14-28.5,3.22-1.67,7.17-.42,8.84,2.79,1.67,3.21.42,7.17-2.79,8.84-16.05,8.35-31.83,17.69-46.9,27.77-1.12.75-2.39,1.11-3.64,1.11Z"/><path class="cls-5" d="m48,422.06c-.81,0-1.64-.15-2.44-.47-3.36-1.35-4.99-5.17-3.64-8.53,3.29-8.18,6.83-16.39,10.54-24.39,1.52-3.29,5.42-4.71,8.71-3.19,3.28,1.52,4.71,5.42,3.19,8.71-3.61,7.79-7.07,15.78-10.27,23.75-1.03,2.56-3.49,4.12-6.09,4.12Z"/></g><g><path class="cls-5" d="m1018.91,609.58c-3.62,0-6.56-2.93-6.56-6.56,0-8.62-.22-17.32-.66-25.88-.19-3.62,2.6-6.7,6.21-6.88,3.63-.18,6.7,2.6,6.88,6.21.45,8.78.68,17.71.68,26.55,0,3.62-2.93,6.56-6.56,6.56Z"/><path class="cls-5" d="m1013.48,535.41c-3.2,0-6-2.34-6.48-5.6-2.31-15.65-5.41-31.35-9.2-46.66-.87-3.51,1.27-7.07,4.79-7.94,3.51-.87,7.07,1.27,7.94,4.79,3.89,15.72,7.07,31.84,9.44,47.9.53,3.58-1.95,6.91-5.53,7.44-.33.05-.65.07-.97.07Zm-23.14-93.44c-2.7,0-5.23-1.68-6.18-4.38-5.25-14.89-11.3-29.7-17.97-44.03-1.53-3.28-.11-7.18,3.18-8.71,3.28-1.53,7.18-.11,8.71,3.18,6.85,14.71,13.05,29.92,18.45,45.2,1.2,3.41-.59,7.16-4,8.36-.72.25-1.46.38-2.18.38Zm-40.61-87.28c-2.25,0-4.44-1.16-5.66-3.23-8-13.61-16.77-27-26.05-39.8-2.13-2.93-1.47-7.03,1.46-9.16,2.94-2.13,7.03-1.47,9.16,1.46,9.52,13.14,18.52,26.88,26.73,40.84,1.84,3.12.79,7.14-2.33,8.97-1.04.61-2.19.91-3.32.91Z"/><path class="cls-5" d="m893.21,276.73c-1.82,0-3.62-.75-4.92-2.22-5.68-6.44-11.6-12.82-17.62-18.96-2.53-2.59-2.49-6.74.1-9.27,2.59-2.53,6.74-2.49,9.27.1,6.17,6.31,12.25,12.86,18.08,19.46,2.4,2.72,2.13,6.86-.58,9.25-1.25,1.1-2.79,1.64-4.33,1.64Z"/></g><g><path class="cls-5" d="m514.69,1113.07h0c-8.83-.01-17.76-.25-26.54-.72-3.62-.19-6.39-3.28-6.2-6.89.19-3.62,3.3-6.4,6.89-6.2,8.56.45,17.27.69,25.87.7,3.62,0,6.55,2.94,6.55,6.57,0,3.62-2.94,6.55-6.56,6.55Z"/><path class="cls-5" d="m557.31,1111.35c-3.38,0-6.25-2.59-6.53-6.02-.3-3.61,2.39-6.78,6-7.07,13.95-1.15,28.01-2.91,41.78-5.23,3.57-.6,6.95,1.81,7.55,5.38.6,3.57-1.81,6.95-5.38,7.55-14.13,2.38-28.56,4.18-42.88,5.36-.18.02-.37.02-.54.02Zm84.06-14.17c-2.92,0-5.58-1.96-6.34-4.92-.9-3.51,1.21-7.08,4.71-7.98,13.54-3.49,27.1-7.6,40.29-12.23,3.42-1.2,7.16.6,8.36,4.01,1.2,3.42-.6,7.16-4.02,8.36-13.54,4.75-27.45,8.98-41.36,12.56-.55.14-1.1.21-1.64.21Z"/><path class="cls-5" d="m721.82,1068.96c-2.5,0-4.89-1.44-5.98-3.87-1.49-3.3-.01-7.18,3.29-8.67,7.83-3.52,15.67-7.3,23.31-11.23,3.22-1.66,7.17-.39,8.83,2.83,1.66,3.22.39,7.17-2.83,8.83-7.84,4.04-15.9,7.92-23.93,11.53-.87.39-1.79.58-2.69.58Z"/></g></g><g><g><path class="cls-1" d="m824.65,233.33c7.15,6.38,7.15,17.58,0,23.96-36.36,32.43-146.07,119.53-275.76,119.53s-239.4-87.1-275.76-119.53c-7.15-6.38-7.15-17.58,0-23.96,36.36-32.43,146.07-119.53,275.76-119.53s239.4,87.1,275.76,119.53Z"/><path class="cls-5" d="m548.89,383.38c-56.88,0-116.09-16.28-175.98-48.38-49.1-26.32-86.33-56.92-104.14-72.81-4.8-4.28-7.55-10.43-7.55-16.87s2.75-12.59,7.55-16.87c17.82-15.9,55.04-46.49,104.14-72.82,59.89-32.1,119.1-48.38,175.98-48.38s116.09,16.28,175.98,48.38c49.1,26.32,86.33,56.92,104.14,72.82,4.8,4.28,7.55,10.43,7.55,16.87s-2.75,12.59-7.55,16.87c-17.82,15.9-55.04,46.49-104.14,72.81-59.89,32.1-119.1,48.38-175.98,48.38Zm0-263.02c-125.7,0-231.67,82.43-271.39,117.87-2.04,1.82-3.17,4.34-3.17,7.09s1.13,5.26,3.17,7.09c39.73,35.44,145.7,117.87,271.39,117.87s231.67-82.43,271.39-117.87c2.04-1.82,3.17-4.34,3.17-7.09s-1.13-5.26-3.17-7.09h0c-39.73-35.44-145.7-117.87-271.39-117.87Z"/></g><g><circle class="cls-3" cx="553.6" cy="245.31" r="131.51" transform="translate(-11.31 463.31) rotate(-45)"/><path class="cls-5" d="m553.6,385.62c-77.37,0-140.31-62.94-140.31-140.31s62.94-140.31,140.31-140.31,140.31,62.94,140.31,140.31-62.94,140.31-140.31,140.31Zm0-263.02c-67.66,0-122.71,55.05-122.71,122.71s55.05,122.71,122.71,122.71,122.71-55.05,122.71-122.71-55.05-122.71-122.71-122.71Z"/></g><g><g><g><rect class="cls-4" x="792.47" y="365.01" width="37.2" height="152.62" rx="11.39" ry="11.39" transform="translate(17.81 913.91) rotate(-59.34)"/><path class="cls-5" d="m863.2,500.83c-3.58,0-7.11-.96-10.26-2.83l-111.68-66.22c-9.58-5.68-12.75-18.09-7.07-27.67l7.35-12.4c2.75-4.64,7.14-7.93,12.37-9.27,5.23-1.34,10.66-.56,15.3,2.19l111.68,66.22c9.58,5.68,12.75,18.09,7.07,27.67h0s-7.35,12.4-7.35,12.4c-2.75,4.64-7.14,7.93-12.37,9.27-1.67.43-3.36.64-5.03.64Zm-104.28-101.41c-.25,0-.47.04-.66.08-.47.12-1.14.43-1.59,1.19l-7.35,12.4c-.73,1.23-.32,2.83.91,3.56l111.68,66.22c.77.45,1.49.4,1.97.28.47-.12,1.14-.43,1.59-1.19l7.35-12.4c.73-1.23.32-2.83-.91-3.56l-111.68-66.22c-.47-.28-.92-.37-1.31-.37Zm121.47,74.63h0,0Z"/></g><g><line class="cls-1" x1="745.43" y1="402.4" x2="722.03" y2="388.52"/><path class="cls-5" d="m745.43,408.96c-1.14,0-2.29-.3-3.34-.92l-23.4-13.88c-3.11-1.85-4.14-5.87-2.3-8.98,1.85-3.12,5.87-4.14,8.98-2.3l23.4,13.88c3.11,1.85,4.14,5.87,2.3,8.98-1.22,2.07-3.41,3.21-5.65,3.21Z"/></g></g><g><circle class="cls-1" cx="614.15" cy="308.41" r="134.39" transform="translate(-38.2 524.6) rotate(-45)"/><path class="cls-5" d="m613.9,449.41c-24.98,0-49.59-6.69-71.64-19.77-32.38-19.2-55.35-49.86-64.67-86.34-9.32-36.48-3.88-74.4,15.32-106.78,19.2-32.38,49.86-55.35,86.34-64.67,36.47-9.32,74.4-3.88,106.78,15.32,32.38,19.2,55.35,49.86,64.67,86.34,9.32,36.48,3.88,74.4-15.32,106.78-19.2,32.38-49.86,55.35-86.34,64.67-11.64,2.98-23.43,4.45-35.14,4.45Zm.47-268.88c-10.62,0-21.31,1.33-31.87,4.03-33.08,8.45-60.89,29.29-78.3,58.66s-22.35,63.76-13.89,96.85c8.46,33.08,29.29,60.89,58.66,78.31,29.37,17.41,63.76,22.35,96.85,13.89,33.08-8.45,60.89-29.29,78.3-58.66,17.41-29.37,22.35-63.76,13.89-96.85h0c-8.45-33.08-29.29-60.89-58.66-78.31-20-11.85-42.32-17.93-64.97-17.93Z"/></g><g><circle class="cls-4" cx="614.15" cy="308.41" r="104.84" transform="translate(-38.2 524.6) rotate(-45)"/><path class="cls-5" d="m613.95,422.1c-20.14,0-39.98-5.4-57.76-15.94-26.11-15.48-44.63-40.2-52.15-69.61-7.52-29.41-3.13-59.99,12.35-86.1,15.48-26.11,40.2-44.63,69.61-52.15,60.72-15.52,122.73,21.25,138.24,81.96,7.52,29.41,3.13,59.99-12.35,86.1-15.48,26.11-40.2,44.63-69.61,52.14-9.39,2.4-18.89,3.59-28.34,3.59Zm.36-209.77c-7.98,0-16.01,1-23.95,3.03-24.86,6.35-45.75,22-58.83,44.07-13.08,22.07-16.79,47.91-10.44,72.76,6.35,24.85,22,45.75,44.07,58.83,22.07,13.08,47.9,16.79,72.76,10.44,24.85-6.35,45.75-22,58.83-44.07,13.08-22.07,16.79-47.91,10.44-72.76-6.35-24.85-22-45.75-44.07-58.83-15.02-8.91-31.8-13.47-48.82-13.47Z"/></g></g><path class="cls-5" d="m570.94,365.39c-3.51,0-6.42-2.78-6.55-6.32l-3.42-95.54c-.06-1.78.6-3.51,1.83-4.79,1.24-1.28,2.94-2,4.72-2h98.96c3.62,0,6.56,2.93,6.56,6.56s-2.93,6.56-6.56,6.56h-92.17l3.18,88.75c.13,3.62-2.7,6.66-6.32,6.79-.08,0-.16,0-.24,0Z"/><path class="cls-5" d="m555.5,86.33c-3.62,0-6.56-2.94-6.56-6.56V6.56c0-3.62,2.93-6.56,6.56-6.56s6.56,2.93,6.56,6.56v73.22c0,3.62-2.93,6.56-6.56,6.56Z"/><g><line class="cls-5" x1="738.2" y1="43.16" x2="686.43" y2="94.94"/><path class="cls-5" d="m686.43,101.49c-1.68,0-3.36-.64-4.64-1.92-2.56-2.56-2.56-6.71,0-9.27l51.77-51.77c2.56-2.56,6.71-2.56,9.27,0,2.56,2.56,2.56,6.71,0,9.27l-51.77,51.77c-1.28,1.28-2.96,1.92-4.64,1.92Z"/></g><g><line class="cls-5" x1="391.21" y1="43.16" x2="442.98" y2="94.94"/><path class="cls-5" d="m442.98,101.49c-1.68,0-3.36-.64-4.64-1.92l-51.77-51.77c-2.56-2.56-2.56-6.71,0-9.27,2.56-2.56,6.71-2.56,9.27,0l51.77,51.77c2.56,2.56,2.56,6.71,0,9.27-1.28,1.28-2.96,1.92-4.64,1.92Z"/></g></g><g><g><g><path class="cls-5" d="m953.26,937.17c-1.56,0-3.13-.56-4.38-1.68-2.69-2.42-2.91-6.57-.49-9.26,52.08-57.89,69.79-140.06,46.2-214.44-36.89-116.35-161.43-181.37-277.62-144.95-3.46,1.08-7.13-.84-8.22-4.29-1.08-3.46.84-7.13,4.3-8.22,59.62-18.69,123.04-13.01,178.58,15.98,55.53,28.99,96.54,77.83,115.47,137.52,12.56,39.61,14.41,81.82,5.36,122.05-8.79,39.05-27.57,75.4-54.31,105.12-1.29,1.44-3.08,2.17-4.88,2.17Z"/><g><path class="cls-4" d="m982.32,949.67c2.16,2.16,1.04,5.84-1.96,6.41l-63.6,12.02c-2.63.5-4.94-1.81-4.45-4.44l11.88-63.63c.56-2.99,4.24-4.13,6.4-1.97l51.72,51.61Z"/><path class="cls-5" d="m916.06,976.96c-3.3,0-6.51-1.3-8.9-3.69-2.95-2.94-4.25-7.14-3.49-11.24l11.88-63.62c.86-4.6,4.17-8.32,8.63-9.7,4.47-1.39,9.32-.19,12.64,3.12l51.72,51.61h0c3.32,3.31,4.53,8.15,3.15,12.63-1.38,4.47-5.09,7.79-9.68,8.66l-63.6,12.02c-.78.15-1.56.22-2.34.22Zm15.04-65.97l-8.79,47.1,47.08-8.9-38.29-38.21Zm45,44.91s0,0,0,0c0,0,0,0,0,0h0Z"/></g></g><g><path class="cls-5" d="m791.54,1013.81c-39.35,0-78.28-10.01-113.69-29.68-54.77-30.42-94.49-80.31-111.86-140.46-11.53-39.92-12.28-82.16-2.18-122.14,9.8-38.8,29.52-74.65,57.03-103.66,2.49-2.63,6.64-2.74,9.27-.25,2.63,2.49,2.74,6.64.25,9.27-53.58,56.51-73.42,138.18-51.77,213.14,33.86,117.25,156.68,185.49,273.79,152.11,3.48-.99,7.11,1.03,8.1,4.51.99,3.48-1.03,7.11-4.51,8.1-21.25,6.06-42.91,9.06-64.43,9.06Z"/><g><path class="cls-4" d="m594.4,605.68c-2.16-2.16-1.04-5.84,1.96-6.41l63.6-12.02c2.63-.5,4.94,1.81,4.45,4.44l-11.88,63.63c-.56,2.99-4.24,4.13-6.4,1.97l-51.72-51.61Z"/><path class="cls-5" d="m648.79,667.2c-3.28,0-6.49-1.29-8.89-3.69l-51.72-51.61h0c-3.32-3.31-4.53-8.15-3.15-12.63,1.38-4.47,5.09-7.79,9.68-8.65l63.6-12.02c4.09-.77,8.29.52,11.24,3.47,2.95,2.94,4.25,7.14,3.49,11.23l-11.88,63.63c-.86,4.6-4.17,8.32-8.63,9.7-1.23.38-2.49.57-3.74.57Zm3.54-16.15h0,0Zm-45-44.91l38.29,38.21,8.79-47.1-47.08,8.9Z"/></g></g></g><g><path class="cls-3" d="m651.31,803.74l7.24,25.41c2.37,8.32,11.03,13.13,19.35,10.76l14.01-4c2.23-.64,4.57.29,5.85,2.23,3.39,5.11,7.18,9.88,11.32,14.27,1.59,1.69,1.96,4.17.83,6.2l-7.09,12.74c-4.2,7.56-1.49,17.09,6.07,21.29l23.09,12.84c7.56,4.2,17.09,1.49,21.29-6.07l7.09-12.74c1.13-2.03,3.43-3.03,5.7-2.56,5.92,1.2,11.97,1.91,18.1,2.09,2.32.07,4.34,1.57,4.97,3.8l4,14.01c2.37,8.32,11.03,13.13,19.35,10.76l25.41-7.24c8.32-2.37,13.13-11.03,10.76-19.35l-4-14.01c-.64-2.23.29-4.57,2.23-5.85,5.11-3.39,9.88-7.18,14.27-11.32,1.69-1.59,4.17-1.96,6.2-.83l12.74,7.09c7.56,4.2,17.09,1.49,21.29-6.07l12.84-23.09c4.2-7.56,1.49-17.09-6.07-21.29l-12.74-7.09c-2.03-1.13-3.03-3.43-2.56-5.7,1.2-5.92,1.91-11.97,2.09-18.1.07-2.32,1.57-4.34,3.8-4.97l14.01-4c8.32-2.37,13.13-11.03,10.76-19.35l-7.24-25.41c-2.37-8.32-11.03-13.13-19.35-10.76l-14.01,4c-2.23.64-4.57-.29-5.85-2.23-3.39-5.11-7.18-9.88-11.32-14.27-1.59-1.69-1.96-4.17-.83-6.2l7.09-12.74c4.2-7.56,1.49-17.09-6.07-21.29l-23.09-12.84c-7.56-4.2-17.09-1.49-21.29,6.07l-7.09,12.74c-1.13,2.03-3.43,3.03-5.7,2.56-5.92-1.2-11.97-1.91-18.1-2.09-2.32-.07-4.34-1.56-4.97-3.8l-4-14.01c-2.37-8.32-11.03-13.13-19.35-10.76l-25.41,7.24c-8.32,2.37-13.13,11.03-10.76,19.35l4,14.01c.64,2.23-.29,4.57-2.23,5.85-5.11,3.39-9.88,7.18-14.27,11.32-1.69,1.59-4.17,1.96-6.2.83l-12.74-7.09c-7.56-4.2-17.09-1.49-21.29,6.07l-12.84,23.09c-4.2,7.56-1.49,17.09,6.07,21.29l12.74,7.09c2.03,1.13,3.03,3.43,2.56,5.7-1.2,5.92-1.91,11.97-2.09,18.1-.07,2.32-1.56,4.34-3.8,4.97l-14.01,4c-8.32,2.37-13.13,11.03-10.76,19.35Zm112.81-73.59c33.75-15.9,72.53,5.67,76.82,42.73,2.6,22.44-9.77,44.67-30.21,54.3-33.75,15.9-72.53-5.67-76.82-42.73-2.6-22.44,9.77-44.67,30.21-54.3Z"/><path class="cls-5" d="m808.21,924.18c-10.65,0-20.47-7.02-23.53-17.75l-3.29-11.53c-4.89-.25-9.78-.82-14.59-1.69l-5.83,10.48c-6.56,11.78-21.48,16.04-33.26,9.48l-23.09-12.84c-11.78-6.56-16.04-21.48-9.48-33.26l5.83-10.48c-3.28-3.63-6.34-7.49-9.13-11.51l-11.53,3.29c-12.98,3.7-26.53-3.85-30.22-16.81l-7.24-25.41h0c-1.79-6.28-1.03-12.89,2.15-18.59,3.18-5.71,8.38-9.84,14.67-11.63l11.53-3.29c.25-4.89.82-9.78,1.69-14.59l-10.48-5.83c-5.71-3.18-9.84-8.38-11.63-14.67-1.79-6.28-1.03-12.89,2.15-18.59l12.84-23.09c6.56-11.78,21.47-16.04,33.26-9.48l10.48,5.83c3.63-3.28,7.49-6.34,11.51-9.13l-3.29-11.53c-1.79-6.28-1.03-12.89,2.15-18.59,3.18-5.71,8.38-9.84,14.67-11.63l25.41-7.24c12.97-3.7,26.53,3.85,30.22,16.81l3.29,11.53c4.89.25,9.78.82,14.59,1.69l5.83-10.48c3.17-5.71,8.38-9.84,14.67-11.63,6.28-1.79,12.88-1.03,18.59,2.15l23.09,12.84c5.71,3.18,9.84,8.38,11.63,14.67,1.79,6.28,1.03,12.89-2.15,18.59l-5.83,10.48c3.28,3.64,6.34,7.49,9.13,11.51l11.53-3.29c6.28-1.79,12.89-1.03,18.59,2.15,5.71,3.18,9.84,8.38,11.63,14.67l7.24,25.41c3.7,12.97-3.85,26.53-16.81,30.22l-11.53,3.29c-.25,4.89-.82,9.78-1.69,14.59l10.48,5.83c5.71,3.18,9.84,8.38,11.63,14.67,1.79,6.28,1.03,12.89-2.15,18.59l-12.84,23.09c-6.55,11.78-21.47,16.04-33.26,9.48l-10.48-5.83c-3.63,3.28-7.49,6.34-11.51,9.13l3.29,11.53c1.79,6.28,1.03,12.89-2.15,18.59-3.18,5.71-8.38,9.84-14.67,11.63l-25.41,7.24c-2.23.64-4.48.94-6.7.94Zm-43.26-48.98c.95,0,1.91.09,2.87.29,5.46,1.11,11.05,1.76,16.61,1.92,6.2.18,11.49,4.27,13.17,10.18l3.99,14.01c1.04,3.64,4.84,5.75,8.47,4.71l25.41-7.24c1.76-.5,3.22-1.66,4.11-3.26.89-1.6,1.1-3.45.6-5.21l-4-14.01c-1.68-5.9.66-12.17,5.82-15.59,4.64-3.08,9.05-6.57,13.1-10.39,4.51-4.25,11.14-5.1,16.51-2.12l12.74,7.09c3.3,1.84,7.49.64,9.33-2.66l12.84-23.09c.89-1.6,1.1-3.45.6-5.21-.5-1.76-1.66-3.22-3.26-4.11l-12.74-7.09c-5.37-2.99-8.14-9.07-6.91-15.15,1.11-5.46,1.76-11.05,1.92-16.61.19-6.2,4.28-11.49,10.18-13.17l14.01-4c3.64-1.04,5.75-4.84,4.71-8.47l-7.24-25.41c-.5-1.76-1.66-3.22-3.26-4.11-1.6-.89-3.45-1.1-5.21-.6l-14.01,4c-5.91,1.68-12.17-.66-15.59-5.82-3.08-4.64-6.57-9.05-10.39-13.1-4.25-4.51-5.1-11.15-2.12-16.52l7.08-12.74c.89-1.6,1.1-3.45.6-5.21-.5-1.76-1.66-3.22-3.26-4.11l-23.09-12.84c-1.6-.89-3.45-1.1-5.21-.6-1.76.5-3.22,1.66-4.11,3.26l-7.09,12.74c-2.98,5.37-9.07,8.14-15.15,6.91-5.46-1.11-11.05-1.76-16.61-1.92-6.19-.18-11.49-4.27-13.17-10.18l-4-14.02c-1.04-3.63-4.84-5.75-8.47-4.71l-25.41,7.24c-1.76.5-3.22,1.66-4.11,3.26-.89,1.6-1.1,3.45-.6,5.21l4,14.01c1.68,5.9-.66,12.17-5.83,15.6-4.64,3.07-9.04,6.57-13.1,10.39-4.51,4.25-11.14,5.1-16.51,2.12l-12.74-7.08c-3.3-1.84-7.49-.65-9.33,2.66l-12.84,23.09c-.89,1.6-1.1,3.45-.6,5.21.5,1.76,1.66,3.22,3.26,4.11l12.74,7.09c5.37,2.99,8.14,9.07,6.91,15.15-1.11,5.46-1.76,11.05-1.92,16.61-.19,6.2-4.28,11.49-10.18,13.17l-14.01,4c-1.76.5-3.22,1.66-4.11,3.26-.89,1.6-1.1,3.45-.6,5.21h0s7.24,25.41,7.24,25.41c1.04,3.64,4.84,5.75,8.47,4.71l14.01-4c5.91-1.68,12.17.66,15.6,5.83,3.08,4.64,6.57,9.05,10.39,13.1,4.25,4.51,5.1,11.15,2.12,16.52l-7.08,12.74c-1.84,3.3-.64,7.49,2.66,9.33l23.09,12.84c3.31,1.84,7.49.64,9.33-2.66l7.08-12.74c2.51-4.52,7.23-7.2,12.27-7.2Zm22.37-33.89c-10.45,0-20.83-2.66-30.34-7.94-17.85-9.93-29.45-27.39-31.83-47.91-3.01-26.07,11.46-52.09,35.2-63.27h0c18.68-8.8,39.64-8.16,57.49,1.77,17.85,9.93,29.45,27.39,31.83,47.91,3.01,26.07-11.46,52.09-35.2,63.27-8.74,4.12-17.97,6.17-27.15,6.17Zm-19.46-103.2c-17.01,8.01-27.38,26.65-25.22,45.33,1.71,14.82,10.06,27.41,22.9,34.55,12.84,7.14,27.94,7.59,41.43,1.23,17.01-8.01,27.38-26.65,25.22-45.33-1.71-14.82-10.06-27.41-22.9-34.55-12.84-7.14-27.94-7.59-41.43-1.23h0Z"/></g></g><g><g><path class="cls-3" d="m319.23,477.56l134.95.17c5.11,0,9.18,4.15,9.18,9.24l-.73,567.15c0,5.09-4.09,9.22-9.2,9.22l-435.45-.56c-5.07,0-9.18-4.15-9.18-9.24l.73-567.15c0-5.09,4.13-9.22,9.2-9.22l134.95.17"/><path class="cls-5" d="m453.44,1072.15h-.02l-435.45-.56C8.04,1071.58-.01,1063.48,0,1053.54L.73,486.38c0-4.81,1.88-9.33,5.27-12.73,3.4-3.4,7.91-5.28,12.71-5.28h.02l134.95.17c4.86,0,8.79,3.95,8.79,8.81,0,4.86-3.95,8.79-8.8,8.79h-.01l-134.95-.17h0s-.15,0-.26.11c-.13.13-.13.26-.13.31l-.73,567.16c0,.26.2.43.39.43l435.45.56h0c.27,0,.39-.22.39-.43l.73-567.15c0-.21-.12-.43-.39-.43l-134.95-.17c-4.86,0-8.79-3.95-8.79-8.81,0-4.86,3.95-8.79,8.8-8.79h.01l134.95.17c9.92.01,17.97,8.11,17.96,18.05l-.73,567.16c-.01,9.93-8.08,18-17.99,18.01Z"/></g><g><polyline class="cls-1" points="332.43 519.11 417.55 519.22 416.91 1021.77 54.61 1021.3 55.25 518.75 140.36 518.86"/><path class="cls-5" d="m416.91,1028.32h0l-362.3-.46c-3.62,0-6.55-2.94-6.55-6.56l.64-502.55c0-1.74.69-3.41,1.93-4.63,1.23-1.23,2.89-1.91,4.63-1.91h0l85.11.11c3.62,0,6.55,2.94,6.55,6.56,0,3.62-2.94,6.55-6.56,6.55h0l-78.56-.1-.63,489.44,349.19.45.63-489.44-78.56-.1c-3.62,0-6.55-2.94-6.55-6.56,0-3.62,2.94-6.55,6.56-6.55h0l85.12.11c1.74,0,3.41.7,4.63,1.93,1.23,1.23,1.92,2.9,1.92,4.64l-.64,502.55c0,3.62-2.94,6.55-6.56,6.55Z"/></g><g><line class="cls-5" x1="179.19" y1="752.5" x2="359.11" y2="752.73"/><path class="cls-5" d="m359.11,759.29h0l-179.92-.23c-3.62,0-6.55-2.94-6.55-6.56,0-3.62,2.94-6.55,6.56-6.55h0l179.92.23c3.62,0,6.55,2.94,6.55,6.56,0,3.62-2.94,6.55-6.56,6.55Z"/></g><g><line class="cls-5" x1="179.08" y1="837.37" x2="359" y2="837.6"/><path class="cls-5" d="m359,844.16h0l-179.92-.23c-3.62,0-6.55-2.94-6.55-6.56,0-3.62,2.94-6.55,6.56-6.55h0l179.92.23c3.62,0,6.55,2.94,6.55,6.56,0,3.62-2.94,6.55-6.56,6.55Z"/></g><g><rect class="cls-3" x="111.01" y="813.95" width="46.52" height="46.74" transform="translate(1.07 -.17) rotate(.07)"/><path class="cls-5" d="m157.51,869.51h-.01l-46.52-.06c-2.33,0-4.57-.93-6.22-2.59-1.65-1.65-2.57-3.89-2.57-6.23l.06-46.74c0-2.33.93-4.57,2.59-6.22,1.65-1.65,3.88-2.57,6.21-2.57h.01l46.53.06c2.33,0,4.57.93,6.22,2.58,1.65,1.65,2.57,3.89,2.57,6.23l-.06,46.73c0,4.86-3.95,8.79-8.8,8.79Zm-37.71-17.65l28.93.04.04-29.14-28.93-.04-.04,29.14Z"/></g><g><rect class="cls-3" x="111.12" y="729.08" width="46.52" height="46.74" transform="translate(.96 -.17) rotate(.07)"/><path class="cls-5" d="m157.62,784.64h-.01l-46.53-.06c-2.33,0-4.57-.93-6.22-2.58-1.65-1.65-2.57-3.89-2.57-6.23l.06-46.74c0-4.86,3.95-8.79,8.8-8.79h.01l46.52.06c4.86,0,8.79,3.95,8.79,8.81l-.06,46.73c0,4.86-3.95,8.79-8.8,8.79Zm-37.71-17.65l28.93.04.04-29.14-28.93-.04-.04,29.14Z"/></g><g><line class="cls-5" x1="178.97" y1="922.24" x2="358.9" y2="922.47"/><path class="cls-5" d="m358.9,929.03h0l-179.92-.23c-3.62,0-6.55-2.94-6.55-6.56,0-3.62,2.94-6.55,6.56-6.55h0l179.92.23c3.62,0,6.55,2.94,6.55,6.56,0,3.62-2.94,6.55-6.56,6.55Z"/></g><g><path class="cls-3" d="m332.43,519.11l-13.21-41.55-6.52-20.6-48.36-.06s0-.01,0-.02c.02-12.97-12.44-23.5-27.83-23.52-15.39-.02-27.87,10.48-27.89,23.45,0,0,0,.01,0,.01h-.01s-48.32-.06-48.32-.06l-6.61,20.58-13.31,41.51-7.31,22.85,206.63.26-7.25-22.86Z"/><path class="cls-5" d="m339.69,550.77h-.01l-206.63-.26c-2.81,0-5.45-1.35-7.1-3.62-1.65-2.27-2.13-5.19-1.27-7.87l27.24-84.95c1.17-3.64,4.56-6.11,8.38-6.11h.01l40.92.05c4.37-13.53,18.52-23.46,35.25-23.46h.05c9.51.01,18.52,3.2,25.36,8.98,4.81,4.06,8.18,9.07,9.92,14.56l40.92.05c3.83,0,7.22,2.49,8.38,6.15l6.52,20.6,13.2,41.54s0,0,0,0l7.25,22.86c.85,2.68.37,5.6-1.29,7.86-1.66,2.26-4.29,3.6-7.1,3.6Zm-194.58-17.85l182.56.23-21.4-67.41-41.93-.05c-2.48,0-4.84-1.05-6.5-2.88-1.5-1.65-2.31-3.81-2.28-6.03-.03-3.61-1.81-7.09-5.02-9.8-3.67-3.1-8.65-4.82-14.02-4.83h-.03c-10.44,0-18.94,6.5-19.05,14.53.06,3.68-2.21,7.09-5.77,8.39-.97.36-2.01.54-3.04.54h-.01l-41.9-.05-21.6,67.35Z"/></g><g><line class="cls-5" x1="179.3" y1="667.64" x2="359.22" y2="667.87"/><path class="cls-5" d="m359.22,674.42h0l-179.92-.23c-3.62,0-6.55-2.94-6.55-6.56,0-3.62,2.94-6.55,6.56-6.55h0l179.92.23c3.62,0,6.55,2.94,6.55,6.56,0,3.62-2.94,6.55-6.56,6.55Z"/></g><g><rect class="cls-3" x="110.9" y="899.36" width="46.52" height="46.74" transform="translate(1.18 -.17) rotate(.07)"/><path class="cls-5" d="m157.4,954.92h-.01l-46.53-.06c-2.33,0-4.57-.93-6.22-2.58-1.65-1.65-2.57-3.89-2.57-6.23l.06-46.74c0-4.86,3.95-8.79,8.8-8.79h.01l46.52.06c4.86,0,8.79,3.95,8.79,8.81l-.06,46.74c0,2.33-.93,4.57-2.59,6.22-1.65,1.65-3.88,2.57-6.21,2.57Zm-37.71-17.65l28.93.04.04-29.14-28.93-.04-.04,29.14Z"/></g><g><polyline class="cls-2" points="157.74 675.76 157.72 690.98 111.2 690.92 111.26 644.18 128.05 644.2"/><path class="cls-5" d="m157.72,697.53h0l-46.52-.06c-3.62,0-6.55-2.94-6.55-6.56l.06-46.73c0-1.74.69-3.41,1.93-4.63,1.23-1.23,2.89-1.91,4.63-1.91h0l16.79.02c3.62,0,6.55,2.94,6.55,6.56,0,3.62-2.94,6.55-6.56,6.55h-10.25s-.04,33.61-.04,33.61l33.41.04v-8.66c.02-3.62,2.95-6.55,6.57-6.55h0c3.62,0,6.55,2.94,6.55,6.56l-.02,15.21c0,3.62-2.94,6.55-6.56,6.55Z"/><g><polyline class="cls-5" points="127.66 665.11 136.83 672.4 164.38 632.92"/><path class="cls-5" d="m136.83,678.96c-1.47,0-2.92-.5-4.08-1.43l-9.17-7.3c-2.83-2.25-3.3-6.38-1.05-9.21,2.26-2.83,6.38-3.3,9.21-1.05l3.7,2.95,23.56-33.76c2.07-2.97,6.16-3.7,9.13-1.62,2.97,2.07,3.7,6.16,1.62,9.13l-27.56,39.48c-1.04,1.48-2.64,2.47-4.43,2.74-.31.05-.63.07-.94.07Z"/></g></g></g></g></g></svg>