<?xml version="1.0" encoding="UTF-8"?><svg id="Layer_2" xmlns="http://www.w3.org/2000/svg" viewBox="0 0 1062.48 1018.51"><defs><style>.cls-1{fill:#fff;}.cls-2{fill:#4d4d4d;}.cls-3{fill:#0c6bc2;}.cls-4{fill:#afafaf;}.cls-5{fill:#1e1e1e;}</style></defs><g id="Layer_2-2"><g><g><circle class="cls-4" cx="547.63" cy="509.58" r="393.19"/><path class="cls-5" d="m962.12,230.63c-2.08,0-4.13-.99-5.4-2.83-9.76-14.14-20.37-27.93-31.55-40.99-2.35-2.75-2.03-6.89.72-9.24,2.75-2.35,6.89-2.03,9.24.72,11.47,13.4,22.36,27.55,32.38,42.06,2.06,2.98,1.31,7.06-1.67,9.12-1.14.78-2.43,1.16-3.72,1.16Zm-68.05-79.52c-1.62,0-3.24-.6-4.51-1.8-12.47-11.83-25.69-23.15-39.3-33.62-2.87-2.21-3.4-6.32-1.2-9.19,2.21-2.87,6.32-3.4,9.19-1.2,13.97,10.75,27.54,22.36,40.33,34.5,2.62,2.49,2.73,6.64.24,9.26-1.29,1.36-3.02,2.04-4.75,2.04Zm-82.95-63.81c-1.17,0-2.36-.31-3.43-.97-14.64-9.01-29.91-17.35-45.38-24.78-3.26-1.57-4.64-5.48-3.07-8.74,1.57-3.26,5.48-4.64,8.74-3.07,15.88,7.62,31.56,16.18,46.58,25.44,3.08,1.9,4.04,5.93,2.14,9.02-1.24,2.01-3.39,3.12-5.59,3.12Zm-94.33-45.27c-.73,0-1.47-.12-2.2-.38-5.06-1.81-10.22-3.55-15.35-5.19-11.23-3.59-22.74-6.83-34.2-9.61-3.52-.85-5.68-4.4-4.82-7.91.85-3.52,4.39-5.68,7.91-4.82,11.77,2.85,23.58,6.17,35.11,9.86,5.26,1.69,10.56,3.48,15.75,5.33,3.41,1.22,5.19,4.97,3.97,8.37-.96,2.68-3.48,4.35-6.17,4.35Zm-101.7-24.66c-.29,0-.58-.02-.88-.06-16.99-2.28-34.33-3.69-51.55-4.2-3.62-.11-6.46-3.13-6.36-6.75.11-3.62,3.1-6.47,6.75-6.36,17.66.52,35.46,1.98,52.9,4.31,3.59.48,6.11,3.78,5.62,7.37-.44,3.29-3.25,5.68-6.49,5.68Z"/><path class="cls-5" d="m577.58,1018.51c-3.44,0-6.33-2.69-6.54-6.17-.21-3.61,2.54-6.71,6.16-6.93,17.19-1.01,34.49-2.93,51.41-5.7,3.57-.58,6.94,1.84,7.53,5.41.59,3.57-1.83,6.94-5.41,7.53-17.37,2.85-35.12,4.82-52.76,5.85-.13,0-.26.01-.39.01Zm103.28-16.95c-2.88,0-5.52-1.91-6.32-4.82-.96-3.49,1.1-7.1,4.59-8.05,16.57-4.54,33.09-10.01,49.09-16.26,3.37-1.32,7.17.35,8.49,3.72,1.32,3.37-.35,7.17-3.72,8.49-16.43,6.42-33.39,12.03-50.4,16.69-.58.16-1.16.23-1.73.23Zm97.5-38.06c-2.37,0-4.66-1.29-5.83-3.55-1.66-3.21-.4-7.17,2.81-8.83,15.25-7.88,30.27-16.67,44.64-26.11,3.02-1.99,7.09-1.15,9.08,1.88,1.99,3.02,1.15,7.09-1.88,9.08-14.75,9.69-30.17,18.7-45.82,26.8-.96.5-1.99.73-3,.73Z"/><path class="cls-5" d="m157.75,834.37c-1.9,0-3.78-.82-5.08-2.41-11.17-13.66-21.73-28.06-31.41-42.79-1.99-3.02-1.15-7.09,1.88-9.08,3.02-1.99,7.09-1.15,9.08,1.88,9.43,14.35,19.73,28.38,30.61,41.69,2.29,2.8,1.87,6.93-.93,9.22-1.22.99-2.68,1.48-4.14,1.48Zm-57.46-87.47c-2.37,0-4.66-1.29-5.83-3.55-8.1-15.68-15.46-31.95-21.88-48.37-1.32-3.37.35-7.17,3.72-8.49,3.37-1.32,7.17.35,8.49,3.72,6.25,15.99,13.42,31.85,21.31,47.12,1.66,3.22.4,7.17-2.81,8.83-.96.5-1.99.73-3,.73Zm-38.08-97.49c-2.88,0-5.52-1.91-6.32-4.82-4.66-17-8.47-34.45-11.32-51.87-.59-3.57,1.83-6.94,5.41-7.53,3.57-.59,6.94,1.83,7.53,5.41,2.78,16.97,6.49,33.97,11.03,50.53.96,3.49-1.1,7.1-4.59,8.05-.58.16-1.16.23-1.74.23Z"/></g><g><g><path class="cls-5" d="m437.36,602.08h-216.71c-3.62,0-6.55-2.93-6.55-6.55s2.93-6.55,6.55-6.55h216.71c3.62,0,6.55,2.93,6.55,6.55s-2.93,6.55-6.55,6.55Z"/><g><rect class="cls-1" x="270.57" y="377.32" width="116.86" height="218.2"/><path class="cls-5" d="m387.44,602.08h-116.86c-3.62,0-6.55-2.93-6.55-6.55v-218.2c0-3.62,2.93-6.55,6.55-6.55h116.86c3.62,0,6.55,2.93,6.55,6.55v218.2c0,3.62-2.93,6.55-6.55,6.55Zm-110.31-13.11h103.75v-205.09h-103.75v205.09Z"/></g><g><path class="cls-2" d="m608.38,520.34H55.58c-25.84,0-46.79-20.96-46.79-46.82V106.95c0-25.86,20.95-46.82,46.79-46.82h552.8c25.84,0,46.79,20.96,46.79,46.82v366.56c0,25.86-20.95,46.82-46.79,46.82Z"/><path class="cls-5" d="m608.38,529.13H55.58c-30.65,0-55.58-24.95-55.58-55.62V106.95c0-30.67,24.93-55.62,55.58-55.62h552.8c30.65,0,55.58,24.95,55.58,55.62v366.56c0,30.67-24.93,55.62-55.58,55.62ZM55.58,68.93c-20.95,0-37.99,17.06-37.99,38.03v366.56c0,20.97,17.04,38.03,37.99,38.03h552.8c20.95,0,37.99-17.06,37.99-38.03V106.95c0-20.97-17.04-38.03-37.99-38.03H55.58Z"/></g><g><path class="cls-1" d="m33.68,468.46c-.55,0-.99-.45-.99-1V110.53c0-14.69,11.89-26.59,26.57-26.59h544.84c14.67,0,26.56,11.9,26.56,26.58v356.93c0,.55-.45,1-1,1H33.68Z"/><path class="cls-5" d="m629.66,475.01H33.68c-4.16,0-7.55-3.39-7.55-7.55V110.53c0-18.28,14.86-33.14,33.12-33.14h544.84c18.26,0,33.12,14.87,33.12,33.14v356.93c0,4.16-3.39,7.55-7.55,7.55Zm-590.42-13.11h584.87V110.53c0-11.04-8.98-20.03-20.01-20.03H59.25c-11.04,0-20.01,8.99-20.01,20.04v351.37Z"/></g><path class="cls-5" d="m354.11,500.09h-50.06c-3.62,0-6.55-2.93-6.55-6.55s2.93-6.55,6.55-6.55h50.06c3.62,0,6.55,2.93,6.55,6.55s-2.93,6.55-6.55,6.55Z"/><g><g><rect class="cls-4" x="87.09" y="146.33" width="228.57" height="153.85"/><path class="cls-5" d="m315.67,308.98H87.09c-4.86,0-8.8-3.94-8.8-8.8v-153.85c0-4.86,3.94-8.8,8.8-8.8h228.57c4.86,0,8.8,3.94,8.8,8.8v153.85c0,4.86-3.94,8.8-8.8,8.8Zm-219.78-17.59h210.98v-136.26H95.89v136.26Z"/></g><g><rect class="cls-4" x="372.93" y="146.33" width="194.68" height="153.85"/><path class="cls-5" d="m567.61,308.98h-194.68c-4.86,0-8.8-3.94-8.8-8.8v-153.85c0-4.86,3.94-8.8,8.8-8.8h194.68c4.86,0,8.8,3.94,8.8,8.8v153.85c0,4.86-3.94,8.8-8.8,8.8Zm-185.88-17.59h177.09v-136.26h-177.09v136.26Z"/></g><path class="cls-5" d="m315.67,358.25H87.09c-3.62,0-6.55-2.93-6.55-6.55s2.93-6.55,6.55-6.55h228.57c3.62,0,6.55,2.93,6.55,6.55s-2.93,6.55-6.55,6.55Z"/><path class="cls-5" d="m315.67,393.52H87.09c-3.62,0-6.55-2.93-6.55-6.55s2.93-6.55,6.55-6.55h228.57c3.62,0,6.55,2.93,6.55,6.55s-2.93,6.55-6.55,6.55Z"/><path class="cls-5" d="m315.67,428.79H87.09c-3.62,0-6.55-2.93-6.55-6.55s2.93-6.55,6.55-6.55h228.57c3.62,0,6.55,2.93,6.55,6.55s-2.93,6.55-6.55,6.55Z"/><path class="cls-5" d="m567.61,358.25h-194.68c-3.62,0-6.55-2.93-6.55-6.55s2.93-6.55,6.55-6.55h194.68c3.62,0,6.55,2.93,6.55,6.55s-2.93,6.55-6.55,6.55Z"/><path class="cls-5" d="m567.61,393.52h-194.68c-3.62,0-6.55-2.93-6.55-6.55s2.93-6.55,6.55-6.55h194.68c3.62,0,6.55,2.93,6.55,6.55s-2.93,6.55-6.55,6.55Z"/><path class="cls-5" d="m567.61,428.79h-194.68c-3.62,0-6.55-2.93-6.55-6.55s2.93-6.55,6.55-6.55h194.68c3.62,0,6.55,2.93,6.55,6.55s-2.93,6.55-6.55,6.55Z"/></g></g><path class="cls-5" d="m87.1,306.74c-2.11,0-4.18-1.01-5.44-2.89-2.02-3-1.23-7.07,1.78-9.1l228.57-153.85c3-2.02,7.07-1.23,9.1,1.78,2.02,3,1.23,7.07-1.78,9.1l-228.57,153.85c-1.12.76-2.39,1.12-3.65,1.12Z"/><path class="cls-5" d="m315.66,306.74c-1.26,0-2.53-.36-3.65-1.12L83.44,151.77c-3-2.02-3.8-6.09-1.78-9.1,2.02-3,6.09-3.8,9.1-1.78l228.57,153.85c3,2.02,3.8,6.09,1.78,9.1-1.27,1.88-3.33,2.89-5.44,2.89Z"/><path class="cls-5" d="m372.94,306.74c-1.94,0-3.85-.85-5.15-2.49-2.24-2.84-1.76-6.96,1.08-9.2l194.68-153.85c2.84-2.24,6.96-1.76,9.2,1.08,2.24,2.84,1.76,6.96-1.08,9.2l-194.68,153.85c-1.2.95-2.64,1.41-4.06,1.41Z"/><path class="cls-5" d="m567.61,306.74c-1.42,0-2.86-.46-4.06-1.41l-194.68-153.85c-2.84-2.24-3.32-6.36-1.08-9.2,2.24-2.84,6.36-3.32,9.2-1.08l194.68,153.85c2.84,2.24,3.32,6.36,1.08,9.2-1.29,1.64-3.21,2.49-5.15,2.49Z"/></g><g><g><g><path class="cls-1" d="m714.5,435.63c-.05,2.64-.4,5.33-1.08,7.98"/><path class="cls-3" d="m713.43,450.16c-.53,0-1.08-.07-1.62-.2-3.51-.89-5.63-4.46-4.74-7.96.54-2.14.84-4.32.87-6.48.06-3.62,3.03-6.49,6.66-6.44,3.62.06,6.5,3.04,6.44,6.66-.05,3.17-.48,6.36-1.28,9.48-.75,2.97-3.42,4.94-6.35,4.94Z"/></g><g><g><path class="cls-2" d="m1053.68,296.07c0-7.49-6.05-13.54-13.53-13.54h-312.12c-7.48,0-13.53,6.05-13.53,13.54v26.5h339.18v-26.5Z"/><path class="cls-5" d="m1053.68,331.36h-339.18c-4.86,0-8.8-3.94-8.8-8.8v-26.5c0-12.32,10.01-22.33,22.32-22.33h312.12c12.31,0,22.32,10.02,22.32,22.33v26.5c0,4.86-3.94,8.8-8.8,8.8Zm-330.38-17.59h321.59v-17.7c0-2.62-2.12-4.74-4.73-4.74h-312.12c-2.61,0-4.73,2.13-4.73,4.74v17.7Z"/></g><g><path class="cls-2" d="m714.5,859.28c0,7.49,6.05,13.54,13.53,13.54h312.12c7.48,0,13.53-6.05,13.53-13.54v-35.86h-339.18v35.86Z"/><path class="cls-5" d="m1040.15,881.61h-312.12c-12.31,0-22.32-10.02-22.32-22.33v-35.86c0-4.86,3.94-8.8,8.8-8.8h339.18c4.86,0,8.8,3.94,8.8,8.8v35.86c0,12.32-10.01,22.33-22.32,22.33Zm-316.85-49.4v27.07c0,2.62,2.12,4.74,4.73,4.74h312.12c2.61,0,4.73-2.13,4.73-4.74v-27.07h-321.59Z"/></g><g><rect class="cls-1" x="714.5" y="322.56" width="339.18" height="500.85"/><path class="cls-5" d="m1053.68,829.97h-339.18c-3.62,0-6.55-2.93-6.55-6.55v-500.85c0-3.62,2.93-6.55,6.55-6.55h339.18c3.62,0,6.55,2.93,6.55,6.55v500.85c0,3.62-2.93,6.55-6.55,6.55Zm-332.62-13.11h326.07v-487.74h-326.07v487.74Z"/></g></g><path class="cls-5" d="m903.49,854.62h-32.79c-3.62,0-6.55-2.93-6.55-6.55s2.93-6.55,6.55-6.55h32.79c3.62,0,6.55,2.93,6.55,6.55s-2.93,6.55-6.55,6.55Z"/><g><g><rect class="cls-4" x="758.82" y="515.64" width="111.88" height="76.29"/><path class="cls-5" d="m870.7,600.72h-111.88c-4.86,0-8.8-3.94-8.8-8.8v-76.29c0-4.86,3.94-8.8,8.8-8.8h111.88c4.86,0,8.8,3.94,8.8,8.8v76.29c0,4.86-3.94,8.8-8.8,8.8Zm-103.08-17.59h94.29v-58.7h-94.29v58.7Z"/></g><path class="cls-5" d="m870.7,646.79h-113.38c-3.62,0-6.55-2.93-6.55-6.55s2.93-6.55,6.55-6.55h113.38c3.62,0,6.55,2.93,6.55,6.55s-2.93,6.55-6.55,6.55Z"/><path class="cls-5" d="m870.7,473.78h-113.38c-3.62,0-6.55-2.93-6.55-6.55s2.93-6.55,6.55-6.55h113.38c3.62,0,6.55,2.93,6.55,6.55s-2.93,6.55-6.55,6.55Z"/><path class="cls-5" d="m870.7,426.73h-113.38c-3.62,0-6.55-2.93-6.55-6.55s2.93-6.55,6.55-6.55h113.38c3.62,0,6.55,2.93,6.55,6.55s-2.93,6.55-6.55,6.55Z"/><path class="cls-5" d="m870.7,379.68h-113.38c-3.62,0-6.55-2.93-6.55-6.55s2.93-6.55,6.55-6.55h113.38c3.62,0,6.55,2.93,6.55,6.55s-2.93,6.55-6.55,6.55Z"/><path class="cls-5" d="m870.7,694.12h-113.38c-3.62,0-6.55-2.93-6.55-6.55s2.93-6.55,6.55-6.55h113.38c3.62,0,6.55,2.93,6.55,6.55s-2.93,6.55-6.55,6.55Z"/><path class="cls-5" d="m870.7,741.44h-113.38c-3.62,0-6.55-2.93-6.55-6.55s2.93-6.55,6.55-6.55h113.38c3.62,0,6.55,2.93,6.55,6.55s-2.93,6.55-6.55,6.55Z"/><path class="cls-5" d="m870.7,788.77h-113.38c-3.62,0-6.55-2.93-6.55-6.55s2.93-6.55,6.55-6.55h113.38c3.62,0,6.55,2.93,6.55,6.55s-2.93,6.55-6.55,6.55Z"/></g><g><g><rect class="cls-4" x="904.99" y="373.13" width="111.88" height="76.29"/><path class="cls-5" d="m1016.87,458.21h-111.88c-4.86,0-8.8-3.94-8.8-8.8v-76.29c0-4.86,3.94-8.8,8.8-8.8h111.88c4.86,0,8.8,3.94,8.8,8.8v76.29c0,4.86-3.94,8.8-8.8,8.8Zm-103.08-17.59h94.29v-58.7h-94.29v58.7Z"/></g><path class="cls-5" d="m1016.87,645.85h-113.38c-3.62,0-6.55-2.93-6.55-6.55s2.93-6.55,6.55-6.55h113.38c3.62,0,6.55,2.93,6.55,6.55s-2.93,6.55-6.55,6.55Z"/><path class="cls-5" d="m1016.87,598.21h-113.38c-3.62,0-6.55-2.93-6.55-6.55s2.93-6.55,6.55-6.55h113.38c3.62,0,6.55,2.93,6.55,6.55s-2.93,6.55-6.55,6.55Z"/><path class="cls-5" d="m1016.87,550.57h-113.38c-3.62,0-6.55-2.93-6.55-6.55s2.93-6.55,6.55-6.55h113.38c3.62,0,6.55,2.93,6.55,6.55s-2.93,6.55-6.55,6.55Z"/><path class="cls-5" d="m1016.87,502.93h-113.38c-3.62,0-6.55-2.93-6.55-6.55s2.93-6.55,6.55-6.55h113.38c3.62,0,6.55,2.93,6.55,6.55s-2.93,6.55-6.55,6.55Z"/><path class="cls-5" d="m1016.87,693.49h-113.38c-3.62,0-6.55-2.93-6.55-6.55s2.93-6.55,6.55-6.55h113.38c3.62,0,6.55,2.93,6.55,6.55s-2.93,6.55-6.55,6.55Z"/><path class="cls-5" d="m1016.87,741.13h-113.38c-3.62,0-6.55-2.93-6.55-6.55s2.93-6.55,6.55-6.55h113.38c3.62,0,6.55,2.93,6.55,6.55s-2.93,6.55-6.55,6.55Z"/><path class="cls-5" d="m1016.87,788.77h-113.38c-3.62,0-6.55-2.93-6.55-6.55s2.93-6.55,6.55-6.55h113.38c3.62,0,6.55,2.93,6.55,6.55s-2.93,6.55-6.55,6.55Z"/></g></g><path class="cls-5" d="m870.69,598.48c-1.27,0-2.56-.37-3.69-1.14l-111.88-76.29c-2.99-2.04-3.76-6.12-1.72-9.11,2.04-2.99,6.12-3.76,9.11-1.72l111.88,76.29c2.99,2.04,3.76,6.12,1.72,9.11-1.27,1.86-3.33,2.86-5.42,2.86Z"/><path class="cls-5" d="m758.4,597.85c-2.11,0-4.18-1.01-5.44-2.89-2.02-3-1.23-7.07,1.77-9.1l112.31-75.65c3-2.02,7.07-1.23,9.1,1.77,2.02,3,1.23,7.07-1.77,9.1l-112.31,75.65c-1.12.76-2.4,1.12-3.66,1.12Z"/><path class="cls-5" d="m1016.87,455.97c-1.27,0-2.56-.37-3.69-1.14l-111.88-76.29c-2.99-2.04-3.76-6.12-1.72-9.11,2.04-2.99,6.12-3.76,9.11-1.72l111.88,76.29c2.99,2.04,3.76,6.12,1.72,9.11-1.27,1.86-3.33,2.86-5.42,2.86Z"/><path class="cls-5" d="m904.57,455.34c-2.12,0-4.2-1.03-5.46-2.92-2-3.01-1.19-7.08,1.83-9.09l112.73-75.02c3.01-2,7.08-1.19,9.09,1.83,2,3.01,1.19,7.08-1.83,9.09l-112.73,75.02c-1.12.74-2.38,1.1-3.62,1.1Z"/></g><g><g><path class="cls-1" d="m478.3,884.36c-.36,44.73-25.09,83.64-61.57,104.13,17.42,9.78,37.51,15.39,58.91,15.39,66.55,0,120.5-53.95,120.5-120.5,0-44.67-24.33-83.64-60.44-104.45.02.91.07,1.81.07,2.72,0,43.45-23,81.51-57.48,102.71Z"/><path class="cls-5" d="m475.64,1010.43c-21.73,0-43.21-5.61-62.12-16.23-2.07-1.16-3.34-3.34-3.34-5.71s1.28-4.55,3.34-5.71c35.59-19.99,57.9-57.72,58.23-98.47.02-2.26,1.2-4.35,3.12-5.53,34.04-20.93,54.36-57.24,54.36-97.13,0-.5-.02-1-.03-1.49-.01-.36-.02-.72-.03-1.08-.05-2.37,1.17-4.58,3.21-5.78,2.04-1.21,4.56-1.22,6.61-.04,39.3,22.65,63.72,64.85,63.72,110.13,0,70.06-57,127.06-127.06,127.06Zm-45.52-22.6c14.3,6.23,29.84,9.49,45.52,9.49,62.83,0,113.95-51.12,113.95-113.95,0-36.79-17.98-71.32-47.58-92.59-2.79,39.65-23.68,75.31-57.24,97.23-1.47,40.05-21.93,77.12-54.66,99.82Z"/></g><g><path class="cls-4" d="m237.31,883.38c0,66.55,53.95,120.5,120.5,120.5,21.4,0,41.49-5.61,58.91-15.39-36.01-20.22-60.55-58.39-61.53-102.4-36.11-20.81-60.44-59.78-60.44-104.45,0-.33.02-.65.02-.98-34.48,21.2-57.48,59.27-57.48,102.71Z"/><path class="cls-5" d="m357.82,1012.67c-71.3,0-129.3-58-129.3-129.3,0-45.26,23.05-86.46,61.67-110.2,2.72-1.67,6.14-1.74,8.92-.17,2.78,1.57,4.5,4.52,4.48,7.72,0,.25,0,.49-.02.73v.21c0,39.79,21.46,76.9,56.03,96.82,2.66,1.54,4.33,4.35,4.4,7.42.87,39.28,22.73,75.65,57.04,94.92,2.77,1.56,4.49,4.49,4.49,7.67s-1.72,6.11-4.49,7.67c-19.24,10.81-41.1,16.52-63.22,16.52Zm-70.92-215.63c-25.78,21.09-40.79,52.39-40.79,86.33,0,61.6,50.11,111.71,111.71,111.71,14.04,0,27.96-2.66,40.95-7.78-30.47-22.63-49.84-57.97-52.16-96.12-33.15-20.83-55.06-55.66-59.71-94.14Z"/></g><g><path class="cls-1" d="m478.3,884.36c-18.34,11.28-39.92,17.79-63.03,17.79-21.88,0-42.38-5.86-60.07-16.06.98,44,25.52,82.17,61.53,102.4,36.48-20.49,61.21-59.4,61.57-104.13Z"/><path class="cls-5" d="m416.73,995.04c-1.11,0-2.21-.28-3.21-.84-39.02-21.92-63.88-63.28-64.87-107.97-.05-2.37,1.17-4.58,3.21-5.78,2.03-1.21,4.56-1.22,6.61-.04,17.23,9.93,36.87,15.18,56.8,15.18,21.09,0,41.7-5.82,59.59-16.82,2.03-1.25,4.58-1.3,6.65-.12,2.08,1.17,3.35,3.38,3.33,5.76-.36,45.44-25.24,87.51-64.91,109.79-1,.56-2.1.84-3.21.84Zm-54.15-97.79c4.26,34.43,24.24,65.54,54.15,83.65,30.42-18.42,50.47-50.06,54.34-85.1-17.3,8.46-36.36,12.89-55.79,12.89-18.21,0-36.21-3.93-52.69-11.45Z"/></g><g><path class="cls-2" d="m416.73,778.26c17.42-9.78,37.51-15.39,58.91-15.39s42.38,5.86,60.07,16.06c-1.45-65.29-54.79-117.79-120.44-117.79s-119.95,53.43-120.48,119.52c18.34-11.28,39.92-17.79,63.03-17.79,21.4,0,41.49,5.6,58.91,15.39Z"/><path class="cls-5" d="m294.79,789.46c-1.49,0-2.98-.38-4.32-1.14-2.79-1.57-4.5-4.53-4.47-7.73.27-34.32,13.84-66.54,38.2-90.72,24.38-24.2,56.72-37.53,91.07-37.53s66.15,13.11,90.45,36.92c24.26,23.77,38.03,55.54,38.78,89.47.07,3.18-1.58,6.14-4.31,7.76-2.73,1.62-6.13,1.64-8.88.05-16.89-9.73-36.14-14.88-55.68-14.88s-37.99,4.93-54.6,14.26c-2.67,1.5-5.94,1.5-8.61,0-16.61-9.33-35.49-14.26-54.6-14.26-20.68,0-40.88,5.7-58.42,16.49-1.41.87-3.01,1.3-4.61,1.3Zm63.03-35.38c20.48,0,40.75,4.9,58.91,14.2,18.16-9.31,38.43-14.2,58.91-14.2,17.18,0,34.16,3.44,49.91,10.03-8.52-53.13-55.15-94.17-110.28-94.17s-102.61,41.62-110.51,95.52c16.6-7.47,34.67-11.37,53.06-11.37Z"/></g><g><path class="cls-1" d="m416.73,778.26c36.75,20.64,61.59,59.97,61.59,105.11,0,.33-.02.65-.02.98,34.48-21.2,57.48-59.27,57.48-102.71,0-.91-.05-1.81-.07-2.72-17.69-10.19-38.19-16.06-60.07-16.06s-41.49,5.6-58.91,15.39Z"/><path class="cls-5" d="m478.3,890.91c-1.11,0-2.22-.28-3.22-.85-2.08-1.17-3.35-3.37-3.33-5.76,0-.22,0-.43.02-.65,0-.09,0-.19,0-.28,0-41.13-22.32-79.22-58.25-99.4-2.07-1.16-3.34-3.34-3.34-5.71s1.28-4.55,3.34-5.71c18.9-10.62,40.38-16.23,62.12-16.23s44.12,5.85,63.34,16.93c1.98,1.14,3.23,3.24,3.28,5.53,0,.31.02.62.03.93.02.64.04,1.29.04,1.93,0,44.48-22.65,84.96-60.6,108.29-1.05.65-2.24.97-3.43.97Zm-48.18-111.99c31.01,21.5,50.96,55.78,54.27,93.34,27.96-21.26,44.47-53.87,44.83-89.43-16.44-8.77-34.88-13.39-53.58-13.39-15.69,0-31.22,3.26-45.52,9.49Z"/></g><g><path class="cls-1" d="m355.2,886.09c-.02-.91-.07-1.81-.07-2.72,0-45.15,24.85-84.47,61.59-105.11-17.42-9.78-37.51-15.39-58.91-15.39-23.11,0-44.69,6.51-63.03,17.79,0,.33-.02.65-.02.98,0,44.67,24.33,83.64,60.44,104.45Z"/><path class="cls-5" d="m355.2,892.65c-1.13,0-2.26-.29-3.27-.88-39.3-22.65-63.72-64.85-63.72-110.13,0-.25,0-.5.02-.75v-.27c.02-2.26,1.2-4.36,3.13-5.54,19.96-12.27,42.94-18.76,66.46-18.76,21.74,0,43.22,5.61,62.12,16.23,2.07,1.16,3.34,3.34,3.34,5.71s-1.28,4.55-3.34,5.71c-35.93,20.18-58.25,58.27-58.25,99.4,0,.49.02.98.03,1.47.01.37.02.74.03,1.1.05,2.37-1.18,4.57-3.21,5.78-1.03.61-2.18.91-3.34.91Zm-53.85-108.26c.87,35.76,18.69,69.11,47.56,89.85,2.77-38.34,22.87-73.45,54.43-95.33-14.3-6.23-29.84-9.49-45.52-9.49-19.87,0-39.32,5.16-56.46,14.96Z"/></g><g><path class="cls-1" d="m478.3,884.36c0-.33.02-.65.02-.98,0-45.15-24.85-84.47-61.59-105.11-36.75,20.64-61.59,59.97-61.59,105.11,0,.91.05,1.81.07,2.72,17.69,10.19,38.19,16.06,60.07,16.06,23.11,0,44.69-6.52,63.03-17.79Z"/><path class="cls-5" d="m415.27,908.7c-22.22,0-44.12-5.85-63.34-16.93-1.99-1.15-3.23-3.24-3.28-5.54,0-.31-.02-.63-.03-.94-.02-.64-.04-1.27-.04-1.92,0-45.86,24.88-88.33,64.94-110.83,1.99-1.12,4.42-1.12,6.42,0,40.06,22.5,64.94,64.96,64.94,110.83,0,.25,0,.5-.02.75v.28c-.02,2.26-1.2,4.35-3.13,5.53-19.96,12.27-42.94,18.76-66.46,18.76Zm-53.58-26.5c16.44,8.77,34.88,13.39,53.58,13.39,19.87,0,39.31-5.16,56.46-14.97-.94-38.84-21.74-74.65-55.01-94.78-33.71,20.4-54.63,56.91-55.04,96.35Zm116.6,2.16h0,0Z"/></g></g></g></g></svg>