<?xml version="1.0" encoding="UTF-8"?><svg id="Layer_2" xmlns="http://www.w3.org/2000/svg" viewBox="0 0 1017.84 1043.25"><defs><style>.cls-1{fill:#fff;}.cls-2{fill:#4d4d4d;}.cls-3{fill:#afafaf;}.cls-4{fill:#1e1e1e;}</style></defs><g id="Layer_2-2"><g><g><circle class="cls-3" cx="504.68" cy="521.92" r="393.67" transform="translate(-221.24 509.73) rotate(-45)"/><g><path class="cls-4" d="m24.37,681.23c-2.78,0-5.36-1.78-6.25-4.58-2.67-8.42-5.16-17.01-7.38-25.54-.91-3.51,1.19-7.09,4.69-8,3.5-.92,7.09,1.19,8,4.69,2.17,8.31,4.59,16.68,7.19,24.88,1.1,3.45-.81,7.14-4.27,8.24-.66.21-1.33.31-1.99.31Z"/><path class="cls-4" d="m114.04,846.77c-1.9,0-3.79-.82-5.09-2.41-10.07-12.34-19.67-25.3-28.53-38.52-2.02-3.01-1.21-7.09,1.79-9.1,3.01-2.02,7.09-1.21,9.1,1.8,8.64,12.88,17.99,25.51,27.8,37.54,2.29,2.81,1.87,6.94-.94,9.23-1.22.99-2.69,1.48-4.14,1.48Zm-52.65-78.53c-2.33,0-4.59-1.24-5.77-3.44-7.59-14.01-14.6-28.54-20.83-43.18-1.42-3.33.13-7.19,3.47-8.61,3.34-1.42,7.19.13,8.61,3.47,6.07,14.26,12.9,28.42,20.3,42.07,1.73,3.19.54,7.17-2.64,8.89-.99.54-2.06.79-3.12.79Z"/><path class="cls-4" d="m164.52,900.22c-1.58,0-3.17-.57-4.43-1.72-6.51-5.96-12.95-12.17-19.13-18.45-2.54-2.58-2.51-6.74.07-9.28,2.58-2.54,6.74-2.51,9.28.07,6.03,6.12,12.3,12.17,18.64,17.98,2.67,2.45,2.86,6.6.41,9.27-1.29,1.41-3.07,2.13-4.84,2.13Z"/></g><g><path class="cls-4" d="m919.85,814.07c-1.28,0-2.58-.38-3.72-1.16-2.98-2.06-3.74-6.14-1.68-9.13,4.88-7.08,9.64-14.39,14.14-21.7,1.9-3.09,5.94-4.05,9.03-2.15,3.09,1.9,4.05,5.94,2.15,9.03-4.62,7.51-9.5,15-14.51,22.27-1.27,1.85-3.32,2.84-5.41,2.84Z"/><path class="cls-4" d="m958.31,748.06c-.96,0-1.94-.21-2.86-.66-3.26-1.58-4.62-5.51-3.04-8.77,7.18-14.82,13.7-30.16,19.36-45.61,1.25-3.4,5.01-5.15,8.42-3.9,3.4,1.25,5.15,5.02,3.9,8.42-5.81,15.86-12.5,31.61-19.87,46.82-1.13,2.34-3.47,3.7-5.91,3.7Zm34.51-94.16c-.54,0-1.09-.07-1.63-.21-3.51-.9-5.63-4.47-4.73-7.98,4.08-15.92,7.4-32.26,9.87-48.55.54-3.58,3.88-6.05,7.47-5.5,3.58.54,6.05,3.89,5.5,7.47-2.54,16.72-5.95,33.49-10.14,49.84-.76,2.96-3.43,4.93-6.35,4.93Z"/><path class="cls-4" d="m1007.88,554.72c-.11,0-.23,0-.34,0-3.62-.19-6.4-3.27-6.22-6.89.44-8.57.66-17.29.66-25.9,0-3.62,2.94-6.56,6.56-6.56s6.56,2.94,6.56,6.56c0,8.83-.23,17.77-.68,26.57-.18,3.5-3.08,6.23-6.55,6.23Z"/></g></g><g><g><g><path class="cls-2" d="m303.04,862.1h36.7c11.15,0,20.12-9.01,20.12-20.12v-155.92c0-11.11-8.97-20.12-20.12-20.12h-123.21c-11.11,0-20.12,9.01-20.12,20.12v155.92c0,1.73.2,3.38.64,4.99v.04c2.21,8.69,10.1,15.09,19.47,15.09h36.74"/><path class="cls-4" d="m339.74,870.9h-36.7c-4.86,0-8.81-3.94-8.81-8.81s3.94-8.81,8.81-8.81h36.7c6.24,0,11.31-5.07,11.31-11.31v-155.92c0-6.24-5.07-11.31-11.31-11.31h-123.21c-6.24,0-11.31,5.07-11.31,11.31v155.92c0,.98.11,1.85.33,2.66.04.16.08.32.12.48,1.36,4.83,5.79,8.18,10.87,8.18h36.74c4.86,0,8.81,3.94,8.81,8.81s-3.94,8.81-8.81,8.81h-36.74c-13.23,0-24.75-8.93-28.01-21.72-.03-.11-.05-.22-.08-.33-.56-2.2-.84-4.45-.84-6.87v-155.92c0-15.95,12.98-28.92,28.92-28.92h123.21c15.95,0,28.92,12.98,28.92,28.92v155.92c0,15.95-12.98,28.92-28.92,28.92Z"/></g><g><g><path class="cls-1" d="m253.23,899.08l.04-69.93c0-13.72,11.15-24.87,24.87-24.87,6.88,0,13.12,2.78,17.62,7.28,4.51,4.51,7.28,10.74,7.28,17.58v48.32c0,8.73,3.06,17.22,8.85,23.7,7.85,8.77,18.07,29.78,18.31,79.95-.25.25-24.17,0-24.17,0h-62.01c-2.53-6.36-12.31-29.65-26.48-51.14-16.62-25.11-21.08-47.04-21.08-86.71h52.88"/><path class="cls-4" d="m324.06,987.8c-1.69,0-3.68-.01-6.07-.02-6.03-.03-12.03-.1-12.03-.1h-61.95c-2.69,0-5.1-1.64-6.09-4.13-1.81-4.54-11.55-28.26-25.86-49.96-16.78-25.35-22.17-47.3-22.17-90.32,0-3.62,2.94-6.56,6.56-6.56h50.25v-7.57c0-17.33,14.1-31.42,31.43-31.42,8.42,0,16.33,3.27,22.26,9.2,5.94,5.94,9.21,13.83,9.21,22.22v48.33c0,7.28,2.55,14.15,7.18,19.33,8.98,10.04,19.73,32.81,19.98,84.29,0,1.76-.69,3.44-1.93,4.68-1.75,1.75-2.04,2.03-10.78,2.03Zm-75.65-13.24h57.62c6.22.07,12.87.11,17.52.11-1.06-45.05-10.71-62.6-16.55-69.13-6.79-7.59-10.52-17.56-10.52-28.07v-48.33c0-4.89-1.9-9.49-5.36-12.94-3.46-3.46-8.07-5.36-12.98-5.36-10.09,0-18.3,8.21-18.3,18.31l-.04,69.94c0,3.62-2.94,6.56-6.56,6.56h0c-3.62,0-6.56-2.94-6.56-6.56l.03-49.24h-43.63c.53,35.75,5.66,54.94,19.95,76.53,12.42,18.85,21.55,39.09,25.4,48.2Z"/></g><g><rect class="cls-3" x="231.28" y="981.13" width="111.66" height="53.31" rx="8.91" ry="8.91"/><path class="cls-4" d="m334.03,1043.25h-93.83c-9.77,0-17.72-7.95-17.72-17.72v-35.49c0-9.77,7.95-17.72,17.72-17.72h93.83c9.77,0,17.72,7.95,17.72,17.72v35.49c0,9.77-7.95,17.72-17.72,17.72Zm-93.83-53.31c-.06,0-.11.05-.11.11v35.49c0,.06.05.11.11.11h93.83c.06,0,.11-.05.11-.11v-35.49c0-.06-.05-.11-.11-.11h-93.83Z"/></g></g></g><g><g><path class="cls-4" d="m867.69,1041.01h-431.38c-3.62,0-6.56-2.94-6.56-6.56s2.94-6.56,6.56-6.56h431.38c3.62,0,6.56,2.94,6.56,6.56s-2.94,6.56-6.56,6.56Z"/><g><g><path class="cls-3" d="m436.31,1034.45v-128.38c0-6.87,5.55-12.42,12.42-12.42h40.05c6.83,0,12.42,5.55,12.42,12.42v128.38h-64.89Z"/><path class="cls-4" d="m501.2,1043.25h-64.89c-4.86,0-8.81-3.94-8.81-8.81v-128.38c0-11.71,9.52-21.23,21.23-21.23h40.05c11.71,0,21.23,9.52,21.23,21.23v128.38c0,4.86-3.94,8.81-8.81,8.81Zm-56.09-17.61h47.28v-119.57c0-1.99-1.62-3.62-3.62-3.62h-40.05c-2,0-3.62,1.62-3.62,3.62v119.57Z"/></g><g><path class="cls-2" d="m558.47,1034.45v-218.12c0-6.83,5.55-12.42,12.42-12.42h40.05c6.83,0,12.42,5.59,12.42,12.42v218.12h-64.89Z"/><path class="cls-4" d="m623.37,1043.25h-64.89c-4.86,0-8.81-3.94-8.81-8.81v-218.12c0-11.71,9.52-21.23,21.23-21.23h40.05c11.71,0,21.23,9.52,21.23,21.23v218.12c0,4.86-3.94,8.81-8.81,8.81Zm-56.09-17.61h47.28v-209.32c0-1.96-1.66-3.62-3.62-3.62h-40.05c-2,0-3.62,1.62-3.62,3.62v209.32Z"/></g><g><path class="cls-3" d="m680.64,1034.45v-178.08c0-6.87,5.55-12.42,12.42-12.42h40.05c6.83,0,12.42,5.55,12.42,12.42v178.08h-64.89Z"/><path class="cls-4" d="m745.54,1043.25h-64.89c-4.86,0-8.81-3.94-8.81-8.81v-178.08c0-11.71,9.52-21.23,21.23-21.23h40.05c11.71,0,21.23,9.52,21.23,21.23v178.08c0,4.86-3.94,8.81-8.81,8.81Zm-56.09-17.61h47.28v-169.27c0-1.99-1.62-3.62-3.62-3.62h-40.05c-2,0-3.62,1.62-3.62,3.62v169.27Z"/></g><g><path class="cls-2" d="m802.81,1034.45v-356.15c0-6.87,5.55-12.42,12.42-12.42h40.05c6.83,0,12.42,5.55,12.42,12.42v356.15h-64.89Z"/><path class="cls-4" d="m867.7,1043.25h-64.89c-4.86,0-8.81-3.94-8.81-8.81v-356.15c0-11.71,9.52-21.23,21.23-21.23h40.05c11.71,0,21.23,9.52,21.23,21.23v356.15c0,4.86-3.94,8.81-8.81,8.81Zm-56.09-17.61h47.28v-347.35c0-1.99-1.62-3.62-3.62-3.62h-40.05c-2,0-3.62,1.62-3.62,3.62v347.35Z"/></g></g></g><path class="cls-4" d="m436.3,843.26c-3.52,0-6.43-2.79-6.55-6.34-.12-3.6,2.67-6.62,6.26-6.78.61-.04,28.19-2.46,59.76-48.9,33.88-49.83,48-67.06,95.15-67.06,29.78,0,42.75,17.74,54.19,33.39,10.04,13.74,17.98,24.59,35.53,24.59,35.72,0,43.08-30.25,53-83.72,1.69-9.08,3.43-18.47,5.47-28.07,8.34-39.2,20.85-61.37,41.82-74.12,20.45-12.43,48.35-14.93,86.75-14.93,3.62,0,6.56,2.94,6.56,6.56s-2.94,6.56-6.56,6.56c-76.7,0-101.2,10.32-115.74,78.67-2.01,9.44-3.74,18.74-5.41,27.74-4.78,25.77-8.92,48.03-17.71,64.97-10.3,19.84-26.07,29.48-48.19,29.48-24.22,0-35.86-15.92-46.13-29.97-10.53-14.4-20.48-28.01-43.59-28.01-39.19,0-49.43,10.05-84.29,61.32-35.96,52.88-68.72,54.59-70.1,54.63-.08,0-.15,0-.23,0Z"/></g></g><g><g><path class="cls-1" d="m415.54,287.28v222.44c0,8.7-7.05,15.75-15.75,15.75h-148.12c-8.7,0-15.75,7.05-15.75,15.75h0c0,8.7,7.05,15.75,15.75,15.75h191.15v-269.69c0-6.04-4.9-10.94-10.94-10.94h-5.41c-6.04,0-10.94,4.9-10.94,10.94Z"/><path class="cls-4" d="m442.82,563.53h-191.15c-12.3,0-22.31-10.01-22.31-22.31s10.01-22.31,22.31-22.31h148.12c5.07,0,9.19-4.12,9.19-9.19v-222.44c0-9.65,7.85-17.5,17.5-17.5h5.41c9.65,0,17.5,7.85,17.5,17.5v269.69c0,3.62-2.94,6.56-6.56,6.56Zm-191.15-31.5c-5.07,0-9.19,4.12-9.19,9.19s4.12,9.19,9.19,9.19h184.59v-263.13c0-2.41-1.96-4.38-4.37-4.38h-5.41c-2.41,0-4.37,1.96-4.37,4.38v222.44c0,12.3-10.01,22.31-22.31,22.31h-148.12Z"/></g><g><g><path class="cls-3" d="m146.94,508.67l46.42,62.67c7.53,11.54,143.89,3.13,143.89,3.13,21.93-3.11,38.64-22.73,36.16-44.74-2.55-22.74-23.76-35.94-45.85-35.55l-81.01,1.61c-10.94.22-20.81-6.52-24.59-16.79,0,0-31.8-73.45-49.37-95.88l-.17-.22c-12.59-16.16-32.26-25.93-51.78-27.22-66.54-4.39-97.18,35.16-101.02,87.11l-10.81,143.48h227.11"/><path class="cls-4" d="m235.92,595.1H8.81c-2.45,0-4.79-1.02-6.46-2.82-1.67-1.8-2.51-4.21-2.33-6.65l10.81-143.48c2.17-29.45,12.43-53.79,29.67-70.37,19.49-18.75,46.64-27.12,80.71-24.87,22.65,1.49,44.39,12.93,58.15,30.59l.16.21c18.05,23.05,49.19,94.76,50.51,97.8.07.15.13.3.18.45,2.48,6.74,8.99,11.17,16.16,11.03l81.01-1.61c.4,0,.8-.01,1.19-.01,28.31,0,50.75,18.09,53.59,43.38,2.94,26.18-16.65,50.61-43.68,54.44-.23.03-.46.06-.7.07-.34.02-34.68,2.12-69.5,2.78-8.52.16-16.38.23-23.56.19v.06c0,4.86-3.94,8.81-8.81,8.81Zm-217.62-17.61h168.68c-.3-.34-.56-.7-.81-1.06l-46.3-62.51c-2.9-3.91-2.07-9.42,1.83-12.32,3.91-2.89,9.42-2.07,12.32,1.84l45.78,61.81c2.95,1.15,16.34,4.35,72.64,3.09,30.91-.69,60.3-2.42,63.89-2.63,17.52-2.66,30.2-18.28,28.32-34.99-2.09-18.6-20.18-28-36.95-27.72l-80.99,1.61c-14.6.32-27.79-8.66-32.94-22.3-1.86-4.27-31.9-73.02-48.13-93.75l-.18-.23c-10.72-13.77-27.7-22.68-45.42-23.85-74.28-4.9-89.32,47.38-91.65,78.97l-10.1,134.03Zm182.43-10.96s0,0,0,0c0,0,0,0,0,0Z"/></g><g><circle class="cls-1" cx="139.4" cy="294.23" r="81" transform="translate(-45.33 26.13) rotate(-9.22)"/><path class="cls-4" d="m139.4,381.79c-48.28,0-87.56-39.28-87.56-87.56s39.28-87.56,87.56-87.56,87.56,39.28,87.56,87.56-39.28,87.56-87.56,87.56Zm0-162c-41.05,0-74.44,33.39-74.44,74.44s33.39,74.44,74.44,74.44,74.44-33.39,74.44-74.44-33.39-74.44-74.44-74.44Z"/></g></g><g><path class="cls-1" d="m515.6,571.66c0-8.11-6.08-14.69-13.57-14.69l-359.39-1.45-2.19,30.77h361.58c7.49,0,13.57-6.58,13.57-14.63Z"/><path class="cls-4" d="m502.02,592.85H140.44c-1.82,0-3.56-.76-4.8-2.09-1.24-1.33-1.87-3.12-1.74-4.94l2.19-30.77c.25-3.43,3.1-6.09,6.54-6.09h.03l359.39,1.45c11.08,0,20.11,9.54,20.11,21.26s-9.03,21.19-20.13,21.19Zm-354.53-13.12h354.53c3.87,0,7.01-3.62,7.01-8.07s-3.15-8.13-7.01-8.13l-353.28-1.42-1.26,17.62Z"/></g><g><rect class="cls-1" x="373.59" y="45.41" width="110.56" height="110.56"/><path class="cls-4" d="m484.15,162.53h-110.56c-3.62,0-6.56-2.94-6.56-6.56V45.41c0-3.62,2.94-6.56,6.56-6.56h110.56c3.62,0,6.56,2.94,6.56,6.56v110.56c0,3.62-2.94,6.56-6.56,6.56Zm-103.99-13.12h97.43V51.97h-97.43v97.43Z"/></g><g><rect class="cls-1" x="205.11" y="45.41" width="110.56" height="110.56"/><path class="cls-4" d="m315.67,162.53h-110.56c-3.62,0-6.56-2.94-6.56-6.56V45.41c0-3.62,2.94-6.56,6.56-6.56h110.56c3.62,0,6.56,2.94,6.56,6.56v110.56c0,3.62-2.94,6.56-6.56,6.56Zm-104-13.12h97.43V51.97h-97.43v97.43Z"/></g><g><g><rect class="cls-3" x="33.73" y="45.41" width="110.56" height="110.56"/><path class="cls-4" d="m144.29,164.77H33.74c-4.86,0-8.81-3.94-8.81-8.81V45.41c0-4.86,3.94-8.81,8.81-8.81h110.56c4.86,0,8.81,3.94,8.81,8.81v110.56c0,4.86-3.94,8.81-8.81,8.81Zm-101.75-17.61h92.94V54.22H42.54v92.94Z"/></g><path class="cls-4" d="m89.52,126.41c-1.9,0-3.71-.82-4.96-2.26l-22.65-26.12c-2.37-2.74-2.08-6.88.66-9.26,2.74-2.37,6.88-2.08,9.26.66l17.27,19.92,49.91-67.82c2.15-2.92,6.25-3.54,9.17-1.4,2.92,2.15,3.54,6.25,1.4,9.17l-54.77,74.43c-1.18,1.61-3.03,2.59-5.02,2.67-.09,0-.18,0-.26,0Z"/></g></g><g><g><g><g><path class="cls-1" d="m769.53,335.86c-1.84-28.42-5.63-55.95-17.34-72.59-7.7-10.95-19.73-23.29-32.64-24.32,9.84-7.1,16.28-18.89,16.28-32.24,0-21.71-17-39.31-37.97-39.31s-37.97,17.6-37.97,39.31c0,13.45,6.53,25.31,16.48,32.39-11.61,1.94-22.51,12.83-29.68,22.55-12.38,16.77-16.47,44.91-18.45,74.12-.98,14.52,10.48,26.86,25.03,26.86h91.21c14.51,0,25.98-12.28,25.04-26.76Z"/><path class="cls-4" d="m744.49,369.19h-91.21c-8.85,0-17.05-3.57-23.1-10.03-5.98-6.4-9.07-15.09-8.48-23.84,1.87-27.69,5.67-58.56,19.71-77.57,4.54-6.15,12.63-15.62,22.72-21.12-6.88-8.24-10.79-18.82-10.79-29.92,0-25.29,19.98-45.87,44.53-45.87s44.53,20.58,44.53,45.87c0,10.76-3.69,21.06-10.21,29.19,11.35,5.58,20.34,16.46,25.37,23.61,13.19,18.76,16.76,48.91,18.51,75.93.57,8.72-2.53,17.38-8.51,23.75-5.96,6.36-14.37,10-23.08,10Zm-46.62-195.23c-17.32,0-31.41,14.69-31.41,32.75,0,10.81,5.13,20.93,13.72,27.05,2.16,1.54,3.18,4.23,2.59,6.82-.6,2.59-2.69,4.56-5.31,5-7.79,1.3-17.08,8.58-25.49,19.97-12.1,16.39-15.54,46.38-17.18,70.66-.35,5.21,1.42,10.18,4.97,13.99,3.54,3.78,8.33,5.87,13.51,5.87h91.21c5.17,0,9.97-2.07,13.51-5.85,3.55-3.79,5.32-8.74,4.99-13.93h0c-1.54-23.73-4.77-53.05-16.16-69.24-9.02-12.82-19.41-20.88-27.8-21.56-2.74-.22-5.05-2.13-5.79-4.77-.74-2.65.25-5.48,2.48-7.09,8.49-6.14,13.57-16.2,13.57-26.93,0-18.06-14.09-32.75-31.41-32.75Z"/></g><g><g><path class="cls-1" d="m719.64,238.92c12.88,1.08,24.88,13.43,32.56,24.35,11.7,16.64,15.49,44.16,17.34,72.59.94,14.48-10.53,26.77-25.04,26.77h-91.21c-14.55,0-26.01-12.35-25.03-26.87,1.97-29.21,6.07-57.35,18.45-74.12,7.09-9.6,17.81-20.38,29.26-22.51"/><path class="cls-4" d="m744.49,369.19h-91.21c-8.85,0-17.05-3.57-23.1-10.03-5.98-6.4-9.07-15.09-8.48-23.83,1.87-27.69,5.67-58.56,19.71-77.57,6.03-8.17,18.37-22.28,33.34-25.06,3.55-.66,6.99,1.69,7.65,5.25.66,3.56-1.69,6.99-5.25,7.65-7.7,1.43-16.88,8.7-25.18,19.95-12.1,16.39-15.54,46.38-17.18,70.66-.35,5.21,1.42,10.18,4.97,13.99,3.54,3.78,8.33,5.87,13.51,5.87h91.21c5.17,0,9.97-2.08,13.51-5.85,3.55-3.79,5.32-8.74,4.99-13.93-1.54-23.73-4.77-53.05-16.16-69.24-9.01-12.82-19.38-20.89-27.74-21.59-3.61-.3-6.29-3.47-5.99-7.09.3-3.61,3.48-6.29,7.09-5.99,16.93,1.42,30.69,17.6,37.38,27.11,13.19,18.76,16.76,48.91,18.51,75.93.57,8.72-2.53,17.38-8.51,23.75-5.96,6.36-14.37,10-23.08,10Z"/></g><g><ellipse class="cls-1" cx="697.88" cy="206.7" rx="37.97" ry="39.31"/><path class="cls-4" d="m697.88,252.57c-24.55,0-44.53-20.58-44.53-45.87s19.98-45.87,44.53-45.87,44.53,20.58,44.53,45.87-19.98,45.87-44.53,45.87Zm0-78.62c-17.32,0-31.41,14.69-31.41,32.75s14.09,32.75,31.41,32.75,31.41-14.69,31.41-32.75-14.09-32.75-31.41-32.75Z"/></g></g></g><g><g><path class="cls-1" d="m919.8,335.86c-1.84-28.42-5.63-55.95-17.34-72.59-7.7-10.95-19.73-23.29-32.64-24.32,9.84-7.1,16.28-18.89,16.28-32.24,0-21.71-17-39.31-37.97-39.31s-37.97,17.6-37.97,39.31c0,13.45,6.53,25.31,16.48,32.39-11.61,1.94-22.51,12.83-29.68,22.55-12.38,16.77-16.47,44.91-18.45,74.12-.98,14.52,10.48,26.86,25.03,26.86h91.21c14.51,0,25.98-12.28,25.04-26.76Z"/><path class="cls-4" d="m894.76,369.19h-91.21c-8.85,0-17.05-3.57-23.1-10.03-5.98-6.4-9.07-15.09-8.48-23.84,1.87-27.69,5.67-58.56,19.71-77.57,4.54-6.15,12.63-15.62,22.72-21.12-6.88-8.24-10.79-18.82-10.79-29.92,0-25.29,19.98-45.87,44.53-45.87s44.53,20.58,44.53,45.87c0,10.76-3.69,21.06-10.21,29.19,11.35,5.58,20.34,16.46,25.37,23.61,13.19,18.76,16.76,48.91,18.51,75.93h0c.57,8.72-2.53,17.38-8.51,23.75-5.96,6.36-14.37,10-23.08,10Zm-46.62-195.23c-17.32,0-31.41,14.69-31.41,32.75,0,10.81,5.13,20.93,13.72,27.05,2.16,1.54,3.18,4.23,2.59,6.82-.6,2.59-2.69,4.56-5.31,5-7.79,1.3-17.08,8.58-25.49,19.97-12.1,16.39-15.54,46.38-17.18,70.66-.35,5.21,1.42,10.18,4.97,13.99,3.54,3.78,8.34,5.87,13.51,5.87h91.21c5.17,0,9.97-2.07,13.51-5.85,3.55-3.79,5.32-8.74,4.99-13.93h0c-1.54-23.73-4.77-53.05-16.16-69.24-9.02-12.82-19.41-20.88-27.8-21.56-2.74-.22-5.05-2.13-5.79-4.77-.74-2.65.25-5.48,2.48-7.09,8.49-6.14,13.56-16.2,13.56-26.93,0-18.06-14.09-32.75-31.41-32.75Z"/></g><g><g><path class="cls-1" d="m869.9,238.92c12.88,1.08,24.88,13.43,32.56,24.35,11.7,16.64,15.49,44.16,17.34,72.59.94,14.48-10.53,26.77-25.04,26.77h-91.21c-14.55,0-26.01-12.35-25.03-26.87,1.97-29.21,6.07-57.35,18.45-74.12,7.09-9.6,17.81-20.38,29.26-22.51"/><path class="cls-4" d="m894.76,369.19h-91.21c-8.85,0-17.05-3.57-23.1-10.03-5.98-6.4-9.07-15.09-8.48-23.83,1.87-27.69,5.67-58.55,19.71-77.57,6.03-8.17,18.37-22.28,33.34-25.06,3.56-.66,6.99,1.69,7.65,5.25.66,3.56-1.69,6.99-5.25,7.65-7.7,1.43-16.88,8.7-25.18,19.95-12.1,16.4-15.54,46.38-17.18,70.66-.35,5.21,1.42,10.18,4.97,13.99,3.54,3.78,8.34,5.87,13.51,5.87h91.21c5.17,0,9.97-2.08,13.51-5.85,3.55-3.79,5.32-8.74,4.99-13.93-1.54-23.73-4.77-53.05-16.16-69.24-9.01-12.82-19.38-20.89-27.74-21.59-3.61-.3-6.29-3.47-5.99-7.09.3-3.61,3.49-6.29,7.09-5.99,16.93,1.42,30.69,17.6,37.38,27.11,13.19,18.76,16.76,48.91,18.52,75.93.57,8.72-2.54,17.38-8.51,23.75-5.96,6.36-14.37,10-23.08,10Z"/></g><g><ellipse class="cls-1" cx="848.14" cy="206.7" rx="37.97" ry="39.31"/><path class="cls-4" d="m848.14,252.57c-24.55,0-44.53-20.58-44.53-45.87s19.98-45.87,44.53-45.87,44.53,20.58,44.53,45.87-19.98,45.87-44.53,45.87Zm0-78.62c-17.32,0-31.41,14.69-31.41,32.75s14.09,32.75,31.41,32.75,31.41-14.69,31.41-32.75-14.09-32.75-31.41-32.75Z"/></g></g></g><g><g><path class="cls-3" d="m569.99,443.97c-17.81,0-31.83-15.11-30.63-32.87,2.41-35.74,7.42-70.19,22.58-90.71,9.69-13.12,24.93-28.04,40.76-28,12.98.03,28.44.08,46.32.1,16.58.02,32.2,15.91,42.03,29.89,14.32,20.36,18.96,54.05,21.22,88.83,1.15,17.73-12.88,32.76-30.65,32.76h-111.62Z"/><path class="cls-4" d="m681.61,452.79h-111.62c-10.89,0-21.4-4.57-28.83-12.53-7.47-7.99-11.32-18.83-10.59-29.75,2.3-34,6.97-71.91,24.28-95.35,8.71-11.8,26.49-31.58,47.78-31.58h.08l9.21.02c10.9.03,23.28.06,37.1.08,22.27.03,40.4,21.09,49.22,33.63,16.25,23.11,20.65,60.15,22.8,93.33.71,10.89-3.17,21.7-10.62,29.65-7.44,7.94-17.94,12.49-28.81,12.49Zm-111.62-17.62h111.62s0,0,0,0c6.11,0,11.78-2.46,15.96-6.92,4.2-4.48,6.29-10.33,5.9-16.47-1.88-28.94-5.81-64.68-19.63-84.34-11.51-16.36-24.53-26.14-34.84-26.15-13.83-.02-26.22-.05-37.12-.08l-9.21-.02h-.04c-9.76,0-22.32,9.13-33.61,24.43-14.7,19.9-18.87,56.45-20.87,86.07-.42,6.16,1.67,12.04,5.88,16.54,4.18,4.47,9.85,6.93,15.97,6.94h0Z"/></g><g><ellipse class="cls-1" cx="624.56" cy="253.15" rx="46.47" ry="48.11"/><path class="cls-4" d="m624.56,307.82c-29.24,0-53.03-24.53-53.03-54.67s23.79-54.67,53.03-54.67,53.03,24.53,53.03,54.67-23.79,54.67-53.03,54.67Zm0-96.22c-22,0-39.91,18.64-39.91,41.55s17.9,41.55,39.91,41.55,39.91-18.64,39.91-41.55-17.9-41.55-39.91-41.55Z"/></g></g><g><g><path class="cls-3" d="m866.7,443.97c-17.81,0-31.83-15.11-30.63-32.87,2.41-35.74,7.42-70.19,22.58-90.71,9.69-13.12,24.93-28.04,40.76-28,12.98.03,28.44.08,46.32.1,16.58.02,32.2,15.91,42.03,29.89,14.32,20.36,18.96,54.05,21.22,88.83,1.15,17.73-12.88,32.76-30.65,32.76h-111.62Z"/><path class="cls-4" d="m978.32,452.79h-111.62c-10.89,0-21.4-4.57-28.83-12.53-7.47-7.99-11.32-18.83-10.59-29.75,2.3-34,6.98-71.91,24.28-95.35,8.71-11.8,26.5-31.58,47.78-31.58h.08l9.21.02c10.9.03,23.28.06,37.1.08,22.27.03,40.4,21.09,49.22,33.63,16.25,23.11,20.65,60.15,22.8,93.33.71,10.89-3.17,21.7-10.62,29.65-7.44,7.94-17.94,12.49-28.81,12.49Zm-111.62-17.62h111.62s0,0,0,0c6.11,0,11.78-2.46,15.96-6.92,4.2-4.48,6.29-10.33,5.9-16.47-1.88-28.94-5.81-64.68-19.63-84.34-11.51-16.36-24.53-26.14-34.84-26.15-13.83-.02-26.22-.05-37.12-.08l-9.21-.02h-.04c-9.76,0-22.32,9.13-33.61,24.43-14.69,19.9-18.87,56.45-20.87,86.07-.42,6.16,1.67,12.04,5.88,16.54,4.18,4.47,9.85,6.93,15.97,6.93h0Z"/></g><g><ellipse class="cls-1" cx="921.27" cy="253.15" rx="46.47" ry="48.11"/><path class="cls-4" d="m921.27,307.82c-29.24,0-53.03-24.53-53.03-54.67s23.79-54.67,53.03-54.67,53.03,24.53,53.03,54.67-23.79,54.67-53.03,54.67Zm0-96.22c-22.01,0-39.91,18.64-39.91,41.55s17.9,41.55,39.91,41.55,39.91-18.64,39.91-41.55-17.9-41.55-39.91-41.55Z"/></g></g><g><g><path class="cls-3" d="m715.06,478.69c-18.3,0-32.71-15.53-31.48-33.78,2.48-36.73,7.63-72.13,23.2-93.22,9.95-13.48,25.62-28.82,41.88-28.78,13.34.03,29.23.08,47.6.1,17.03.02,33.09,16.35,43.19,30.72,14.72,20.93,19.48,55.54,21.8,91.29,1.18,18.22-13.24,33.67-31.49,33.67h-114.71Z"/><path class="cls-4" d="m829.77,487.5h-114.71c-11.12,0-21.86-4.67-29.45-12.79-7.63-8.16-11.57-19.24-10.81-30.39,2.36-34.9,7.16-73.82,24.9-97.85,8.92-12.09,27.14-32.35,48.9-32.35h.08l9.54.02c11.18.03,23.88.06,38.05.08,22.77.03,41.34,21.6,50.38,34.46,16.67,23.7,21.18,61.72,23.39,95.78.72,11.12-3.23,22.16-10.85,30.29-7.6,8.11-18.32,12.75-29.43,12.75Zm-114.71-17.62h114.71s0,0,0,0c6.35,0,12.24-2.55,16.58-7.19,4.36-4.65,6.54-10.73,6.12-17.1-1.93-29.77-5.97-66.54-20.22-86.79-11.87-16.88-25.33-26.97-36-26.98-14.18-.02-26.89-.05-38.08-.08l-9.54-.02h-.04c-10.1,0-23.08,9.42-34.74,25.2-15.14,20.5-19.44,58.11-21.5,88.58-.43,6.4,1.74,12.5,6.11,17.18,4.34,4.65,10.23,7.2,16.59,7.2h0Z"/></g><g><ellipse class="cls-1" cx="771.13" cy="282.6" rx="47.75" ry="49.44"/><path class="cls-4" d="m771.13,338.6c-29.95,0-54.31-25.12-54.31-56s24.37-56,54.31-56,54.32,25.12,54.32,56-24.37,56-54.32,56Zm0-98.88c-22.71,0-41.19,19.24-41.19,42.88s18.48,42.88,41.19,42.88,41.19-19.24,41.19-42.88-18.48-42.88-41.19-42.88Z"/></g></g></g><g><g><path class="cls-2" d="m919.94,8.81h-300.7c-31.02,0-56.18,25.15-56.18,56.18h0c0,31.02,25.15,56.18,56.18,56.18h85.98c18.97,0,37.19,7.38,50.8,20.59l13.57,13.16,13.57-13.16c13.62-13.2,31.84-20.59,50.8-20.59h85.98c31.02,0,56.18-25.15,56.18-56.18h0c0-31.02-25.15-56.18-56.18-56.18Z"/><path class="cls-4" d="m769.59,163.71c-2.21,0-4.42-.83-6.13-2.48l-13.57-13.16c-12.04-11.67-27.9-18.1-44.67-18.1h-85.98c-35.83,0-64.98-29.15-64.98-64.98S583.4,0,619.24,0h300.7c35.83,0,64.98,29.15,64.98,64.98s-29.15,64.98-64.98,64.98h-85.98c-16.77,0-32.63,6.43-44.67,18.1l-13.57,13.16c-1.71,1.66-3.92,2.48-6.13,2.48ZM619.24,17.61c-26.12,0-47.37,21.25-47.37,47.37s21.25,47.37,47.37,47.37h85.98c21.37,0,41.59,8.19,56.93,23.07l7.44,7.21,7.44-7.21c15.34-14.88,35.56-23.07,56.93-23.07h85.98c26.12,0,47.37-21.25,47.37-47.37s-21.25-47.37-47.37-47.37h-300.7Z"/></g><g><circle class="cls-1" cx="771.98" cy="67.44" r="22.03" transform="translate(528.98 803.28) rotate(-76.72)"/><path class="cls-4" d="m771.98,96.03c-15.77,0-28.59-12.83-28.59-28.59s12.83-28.59,28.59-28.59,28.59,12.83,28.59,28.59-12.83,28.59-28.59,28.59Zm0-44.06c-8.53,0-15.47,6.94-15.47,15.47s6.94,15.47,15.47,15.47,15.47-6.94,15.47-15.47-6.94-15.47-15.47-15.47Z"/></g><g><circle class="cls-1" cx="694.91" cy="67.44" r="22.03" transform="translate(469.61 728.27) rotate(-76.72)"/><path class="cls-4" d="m694.91,96.03c-15.77,0-28.59-12.83-28.59-28.59s12.83-28.59,28.59-28.59,28.59,12.83,28.59,28.59-12.83,28.59-28.59,28.59Zm0-44.06c-8.53,0-15.47,6.94-15.47,15.47s6.94,15.47,15.47,15.47,15.47-6.94,15.47-15.47-6.94-15.47-15.47-15.47Z"/></g><g><circle class="cls-1" cx="849.06" cy="67.44" r="22.03" transform="translate(588.34 878.29) rotate(-76.72)"/><path class="cls-4" d="m849.06,96.03c-15.77,0-28.59-12.83-28.59-28.59s12.83-28.59,28.59-28.59,28.59,12.83,28.59,28.59-12.83,28.59-28.59,28.59Zm0-44.06c-8.53,0-15.47,6.94-15.47,15.47s6.94,15.47,15.47,15.47,15.47-6.94,15.47-15.47-6.94-15.47-15.47-15.47Z"/></g></g></g></g></g></svg>